/* XPM */
static char *c155337a464b4106ec0073759a98050dXKGLbviID3BtYYvj[] = {
/* columns rows colors chars-per-pixel */
"70 70 7 1 ",
"  c None",
". c black",
"X c black",
"o c #F3D7B3",
"O c #C78463",
"+ c #6F4045",
"@ c #EBAF6E",
/* pixels */
"  ++++++++++++++++++++  ++++++++++++++++++++++  ++++++++++++++++++++  ",
" +++OOOOOOOOOOOOOOOOOOOOOOOOOOOOOOOOOOOOOOOOOOOOOOOOOOOOOOOOOOOO+++++ ",
"++OO@@@@@@@@@@@@@@@@@@@@@@@@@@@@@@@@@@@@@@@@@@@@@@@@@@@@@@@@@@@@OOOO++",
"++Ooooooooooooooooooooooooooooooooooooooooooooooooooooooooooooooo@@O++",
"+O@oooooooooooooooooooooooooooooooooooooooooooooooooooooooooooooo@@O++",
"+O@ooo@@@@@@@@@@@@@@@@@@@@@@@@@@@@@@@@@@@@@@@@@@@@@@@@@@@@@@@@@@@@OO++",
"+O@oo@@@@@@@@@@@@@@@@@@@@@@@@@@@@@@@@@@@@@@@@@@@@@@@@@@@@@@@@@@@@OOO++",
"+O@oo@@@@@@@@@@@@@@@@@@@@@@@@@@@@@@@@@@@@@@@@@@@@@@@@@@@@@@o@@@@@OOO++",
"+O@oo@@@@@@@@@@@@@@@@@@@@@@@@@@@@@@@@@@@@@@@@@@@@@@@@@@@@@oo@@@@@OOO++",
"+O@oo@@@@@@@@@@@@@@@@@@@@@@@@@@@@@@@@@@@@@@@@@@@@@@@@@@@@@@o@@@@@OOO++",
"+O@oo@@@@@@@@@@@@@@@@@@@@@@@@@@@@@@@@@@@@@@@@@@@@@@@@@@@@@@@@@@@@OOO++",
"+O@oo@@@@@@@@@@@@@@@@@@@@@@@@@@@@@@@@@@@@@@@@@@@@@@@@@@@@@@@@@@@@OOO++",
"+O@oo@@@@@@@@@@@@@@@@@@@@@@@@@@@@@@@@@@@@@@@@@@@@@@@@@@@@@@@@@@@@OOO++",
"+O@oo@@@@@@@@@@@@@@@@@@@@@@@@@@@@@@@@@@@@@@@@@@@@@@@@@@@@@@@@@@@@OOO++",
"+O@oo@@@o@@@@@@@@@@@@@@@@@@@@@@@@@@@@@@@@@@@@@@@@@@@@@@@@@@@@@@@@OOO++",
"+O@oo@@ooo@@@@@@@@@@@@@@@@@@@@@@@@@@@@@@@@@@@@@@@@@@@@@@@@@@@@@@@OOO++",
"+O@oo@@@o@@@@@@@@@@@@@@@@@@@@@@@@@@@@@@@@@@@@@@@@@@@@@@@@@@@@@@@@OOO++",
"+O@oo@@@@@@@@@@@@@@@@@@@@@@@@@@@@@@@@@@@@@@@@@@@@@@@@@@@@@@@@@@@@OOO++",
"+O@oo@@@@@@@@@@@@@@@@@@@@@@@@@@@@@@@@@@@@@@@@@@@@@@@@@@@@@@@@@@@@OOO++",
"+O@oo@@@@@@@@@@@@@@@@@@@@@@@@@@@@@@@@@@@@@@@@@@@@@@@@@@@@@@@@@@@@OOO++",
"+O@oo@@@@@@@@@@@@@@@@@@@@@@@@@@@@@@@@@@@@@@@@@@@@@@@@@@@@@@@@@@@@OOO++",
"+O@oo@@@@@@@@@@@@@@@@@  @@@@@@@@@@@@@@@@@@@@@@  @@@@@@@@@@@@@@@@@OOO++",
" O@oo@@@@@@@@@@@@@@@@    @@@@@@@@@@@@@@@@@@@@    @@@@@@@@@@@@@@@@OOO+ ",
" O@oo@@@@@@@@@@@@@@@@    @@@@@@@@@@@@@@@@@@@@    @@@@@@@@@@@@@@@@OOO+ ",
"+O@oo@@@@@@@@@@@@@@@@@  @@@@@@@@@@@@@@@@@@@@@@  @@@@@@@@@@@@@@@@@OOO++",
"+O@oo@@@@@@@@@@@@@@@@@@@@@@@@@@@@@@@@@@@@@@@@@@@@@@@@@@@@@@@@@@@@OOO++",
"+O@oo@@@@@@@@@@@@@@@@@@@@@@@@@@@@@@@@@@@@@@@@@@@@@@@@@@@@@@@@@@@@OOO++",
"+O@oo@@@@@@@@@@@@@@@@@@@@@@@@@@@@@@@@@@@@@@@@@@@@@@@@@@@@@@@@@@@@OOO++",
"+O@oo@@@@@@@@@@@@@@@@@@@@@@@@@@@@@@@@@@@@@@@@@@@@@@@@@@@@@@@@@@@@OOO++",
"+O@oo@@@@@@@@@@@@@@@@@@@@@@@@@@@@@oo@@@@@@@@@@@@@@@@@@@@@@@@@@@@@OOO++",
"+O@oo@@@@@@@@@@@@@@@@@@@@@@@@@@@@@oo@@@@@@@@@@@@@@@@@@@@@@@@@@@@@OOO++",
"+O@oo@@@@@@@@@@@@@@@@@@@@@@@@@@@@@oo@@@@@@@@@@@@@@@@@@@@@@@@@@@@@OOO++",
"+O@oo@@@@@@@@@@@@@@@@@@@@@@@@@@@@@oo@@@@@@@@@@@@@@@@@@@@@@@@@@@@@OOO++",
"+O@oo@@@@@@@@@@@@@@@@@@@@@@@@@@@@@oo@@@@@@@@@@@@@@@@@@@@@@@@@@@@@OOO++",
"+O@oo@@@@@@@@@@@@@@@@@@@@@@@@@@@@@@@@@@@@@@@@@@@@@@@@@@@@@@@@@@@@OOO++",
"+O@oo@@@@@@@@@@@@@@@@@@@@@@@@@@@@@@@@@@@@@@@@@@@@@@@@@@@@@@@@@@@@OOO++",
"+O@oo@@@@@@@@@@@@@@@@@@@@@@@@@@@@@@@@@@@@@@@@@@@@@@@@@@@@@@@@@@@@OOO++",
"+O@oo@@@@@@@@@@@@@@@@@@@@@@@@@@@@@@@@@@@@@@@@@@@@@@@@@@@@@@@@@@@@OOO++",
"+O@oo@@@@@@@@@@@@@@@@@@@@@@@@@@@@@@@@@@@@@@@@@@@@@@@@@@@@@@@@@@@@OOO++",
"+O@oo@@@@@@@@@@@@@@@@@@@@@@@@@@@@@@@@@@@@@@@@@@@@@@@@@@@@@@@@@@@@OOO++",
"+O@oo@@@@@@@@@@@@@@@@@@@@@@@@@@@@@@@@@@@@@@@@@@@@@@@@@@@@@@@@@@@@OOO++",
"+O@oo@@@@@@@@@@@@@@@@@@@@@@oo@@@@@@@@@@@@@@@@@@@@@@@@@@@@@@@@@@@@OOO++",
"+O@oo@@@@@@@@@@@@@@@@@@@@@@oo@@@@@@@@@@@@@@@@@@@@@@@@@@@@@@@@@@@@OOO++",
"+O@oo@@@@@@@@@@@@@@@@@@@@@@@@@@@@@@@@@@@@@@@@@@@@@@@@@@@@@@@@@@@@OOO++",
"+O@oo@@@@@@@@@@@@@@@@@@@@@@@@@@@@@@@@@@@@@@@@@@@@@@@@@@@@@@@@@@@@OOO++",
"+O@oo@@@@@@@@@@@@@@@@@  @@@@@@@@@@@@@@@@@@@@@@  @@@@@@@@@@@@@@@@@OOO++",
" O@oo@@@@@@@@@@@@@@@@    @@@@@@@@@@@@@@@@@@@@    @@@@@@@@@@@@@@@@OOO+ ",
" O@oo@@@@@@@@@@@@@@@@    @@@@@@@@@@@@@@@@@@@@    @@@@@@@@@@@@@@@@OOO+ ",
"+O@oo@@@@@@@@@@@@@@@@@  @@@@@@@@@@@@@@@@@@@@@@  @@@@@@@@@@@@@@@@@OOO++",
"+O@oo@@@@@@@@@@@@@@@@@@@@@@@@@@@@@@@@@@@@@@@@@@@@@@@@@@@@@@@@@@@@OOO++",
"+O@oo@@@@@@@@@@@@@@@@@@@@@@@@@@@@@@@@@@@@@@@@@@@@@@@@@@@@@@@@@@@@OOO++",
"+O@oo@@@@@@@@@@@@@@@@@@@@@@@@@@@@@@@@@@@@@@@@@@@@@@@@@@@@@@@@@@@@OOO++",
"+O@oo@@@@@@@@@@@@@@@@@@@@@@@@@@@@@@@@@@@@@@@@@@@@@@@@@@@@@@@@@@@@OOO++",
"+O@oo@@@@@@@@@@@@@@@@@@@@@@@@@@@@@@@@@@@@@@@@@@@@@@@@@@@@@@@@@@@@OOO++",
"+O@oo@@@@@@@@@@@@@@@@@@@@@@@@@@@@@@@@@@@@@@@@@@@@@@@@@@@@@@@@@@@@OOO++",
"+O@oo@@@@@@@@@@@@@@@@@@@@@@@@@@@@@@@@@@@@@@@@@@@@@@@@@@@@@@@@@@@@OOO++",
"+O@oo@@@@@@@@@@@@@@@@@@@@@@@@@@@@@@@@@@@@@@@@@@@@@@@@@@@@@@@@@@@@OOO++",
"+O@oo@@@@@@@@@@@@@@@@@@@@@@@@@@@@@@@@@@@@@@@@@@@@@@@@@@@@@@@@@@@@OOO++",
"+O@oo@@@@@oo@@@@@@@@@@@@@@@@@@@@@@@@@@@@@@@@@@@@@@@@@@@@@@@@@oo@@OOO++",
"+O@oo@@@@@oo@@@@@@@@@@@@@@@@@@@@@@@@@@@@@@@@@@@@@@@@@@@@@@@@ooo@@OOO++",
"+O@oo@@@@@@@@@@@@@@@@@@@@@@@@@@@@@@@@@@@@@@@@@@@@@@@@@@@@@@@@@@@@OOO++",
"+O@oo@@@@@@@@@@@@@@@@@@@@@@@@@@@@@@@@@@@@@@@@@@@@@@@@@@@@@@@@@@@@OOO++",
"+O@oo@@@@@@@@@@@@@@@@@@@@@@@@@@@@@@@@@@@@@@@@@@@@@@@@@@@@@@@@@@@@OOO++",
"+O@oo@@@@@@@@@@@@@@@@@@@@@@@@@@@@@@@@@@@@@@@@@@@@@@@@@@@@@@@@@@@@OOO++",
"++Ooo@@@@@@@@@@@@@@@@@@@@@@@@@@@@@@@@@@@@@@@@@@@@@@@@@@@@@@@@@@@@OOO++",
"++O@@@OOOOOOOOOOOOOOOOOOOOOOOOOOOOOOOOOOOOOOOOOOOOOOOOOOOOOOOOOOOOOO++",
"++O@@OOOOOOOOOOOOOOOOOOOOOOOOOOOOOOOOOOOOOOOOOOOOOOOOOOOOOOOOOOOOOOO++",
"++OOOOOOOOOOOOOOOOOOOOOOOOOOOOOOOOOOOOOOOOOOOOOOOOOOOOOOOOOOOOOOOOO+++",
" ++++++++++++++++++++++++++++++++++++++++++++++++++++++++++++++++++++ ",
"  ++++++++++++++++++++  ++++++++++++++++++++++  ++++++++++++++++++++  "
};
