/* XPM */
static char *result[] = {
/* columns rows colors chars-per-pixel */
"64 64 222 2 ",
"   c #7E4B78",
".  c #814F7A",
"X  c #86537A",
"o  c #89557A",
"O  c #955779",
"+  c #9D597A",
"@  c #A25B7B",
"#  c #AB5C7B",
"$  c #B95E7C",
"%  c #9B6C78",
"&  c #A96878",
"*  c #B5617B",
"=  c #BC637B",
"-  c #A87478",
";  c #B47E77",
":  c #D8676B",
">  c #DB6A6D",
",  c #DF716C",
"<  c #DF7A6F",
"1  c #C2637B",
"2  c #CE667C",
"3  c #CC6A7B",
"4  c #D26472",
"5  c #D36B76",
"6  c #D0667C",
"7  c #DA677A",
"8  c #DC6B7B",
"9  c #CA7B7A",
"0  c #D97279",
"q  c #DF7D78",
"w  c #E16E6F",
"e  c #E2746D",
"r  c #E57D6E",
"t  c #E87E6E",
"y  c #E16E7B",
"u  c #E77E77",
"i  c #EB7E75",
"p  c #E3747A",
"a  c #E47978",
"s  c #EC7D7B",
"d  c #B58377",
"f  c #BF9275",
"g  c #C78F75",
"h  c #D39C73",
"j  c #E4806E",
"k  c #EC846F",
"l  c #ED8D6F",
"z  c #F18C6F",
"x  c #F4946F",
"c  c #F69D6F",
"v  c #F89E6F",
"b  c #E68374",
"n  c #EE8475",
"m  c #EE8A71",
"M  c #EE827C",
"N  c #EF8D7D",
"B  c #F08674",
"V  c #F28C73",
"C  c #F1877A",
"Z  c #F18C7A",
"A  c #F49373",
"S  c #F69B72",
"D  c #F89E72",
"F  c #F1927C",
"G  c #F29A7C",
"H  c #D4A074",
"J  c #F7A16F",
"K  c #F9A76F",
"L  c #FBB36F",
"P  c #FDBC6F",
"I  c #E8A971",
"U  c #F8A372",
"Y  c #F5A875",
"T  c #FBAB71",
"R  c #F4A57B",
"E  c #EAB673",
"W  c #F5B476",
"Q  c #FDB470",
"!  c #FDBB71",
"~  c #FEC36F",
"^  c #FEC371",
"/  c #FECC71",
"(  c #FFD271",
")  c #59699E",
"_  c #566EA3",
"`  c #596DA2",
"'  c #4E71A3",
"]  c #5672A4",
"[  c #5875A8",
"{  c #557DAC",
"}  c #5B7BAB",
"|  c #577AB0",
" . c #597BB1",
".. c #6D6DA9",
"X. c #726CAA",
"o. c #796EAF",
"O. c #6478AD",
"+. c #787BAE",
"@. c #7C6EB2",
"#. c #756FBD",
"$. c #797AB3",
"%. c #7F78B8",
"&. c #5A17ED",
"*. c #5B18ED",
"=. c #5C26EB",
"-. c #5C2CE8",
";. c #5D34EA",
":. c #6924E6",
">. c #742BE4",
",. c #5A50D8",
"<. c #615ADD",
"1. c #5D6DC8",
"2. c #7A6DC3",
"3. c #6379CE",
"4. c #6269D8",
"5. c #6577D5",
"6. c #5E47E3",
"7. c #695EEB",
"8. c #6F73E5",
"9. c #BF5B9F",
"0. c #B654AE",
"q. c #B654B1",
"w. c #B756B3",
"e. c #9C73AA",
"r. c #866FB5",
"t. c #9B6DB2",
"y. c #8570B6",
"u. c #8971B7",
"i. c #8672B8",
"p. c #8973B9",
"a. c #8078B8",
"s. c #9C70B3",
"d. c #957BB1",
"f. c #A86EAE",
"g. c #B76CA8",
"h. c #BC6CAD",
"j. c #B073AB",
"k. c #A46FB4",
"l. c #B46DB1",
"z. c #BA6DB0",
"x. c #A471B6",
"c. c #CF429B",
"v. c #D1449B",
"b. c #D24C98",
"n. c #D05B94",
"m. c #CD628F",
"M. c #D9698A",
"N. c #DD758A",
"B. c #CB6597",
"V. c #CC6B9D",
"C. c #D66895",
"Z. c #D46C99",
"A. c #CC789C",
"S. c #D87694",
"D. c #E06A8A",
"F. c #EC7782",
"G. c #EC7A82",
"H. c #E47988",
"J. c #C25FA0",
"K. c #C568A3",
"L. c #C773A0",
"P. c #8D3DCD",
"I. c #903FCF",
"U. c #8738DA",
"Y. c #9442CD",
"T. c #A349C3",
"R. c #A148C9",
"E. c #5681AE",
"W. c #5982AF",
"Q. c #5C84B1",
"!. c #5E8CB5",
"~. c #5F8FB8",
"^. c #5F90B9",
"/. c #648BB5",
"(. c #618EB6",
"). c #748DB8",
"_. c #6190B7",
"`. c #6891B6",
"'. c #6593BA",
"]. c #6996BC",
"[. c #6999BF",
"{. c #6788C7",
"}. c #6890C1",
"|. c #6C9DC2",
" X c #729EC1",
".X c #6781D0",
"XX c #6EA0C4",
"oX c #72A3C6",
"OX c #79A5C7",
"+X c #74A6C9",
"@X c #75A9CB",
"#X c #7AACCD",
"$X c #7BAFD0",
"%X c #7EB1D2",
"&X c #7985E7",
"*X c #9290BB",
"=X c #BB82AA",
"-X c #A38CB7",
";X c #DB8295",
":X c #E98585",
">X c #EB8C84",
",X c #ED9183",
"<X c #F09880",
"1X c #8A9DC2",
"2X c #909DC2",
"3X c #85A9C8",
"4X c #8BB2CC",
"5X c #91B6CF",
"6X c #83B5D5",
"7X c #88B6D2",
"8X c #86B8D6",
"9X c #8BBAD6",
"0X c #8BBDDA",
"qX c #92BCD7",
"wX c #8690EA",
"eX c #8CA6E4",
"rX c #95C2DB",
"tX c #9AC4DD",
"yX c #A3CADE",
"uX c #A7CDE1",
"iX c #ABCFE1",
"pX c #ADD1E1",
/* pixels */
"V.S.a s s s s N.C.u.u.r.o.) ..r.r.u.u.u.u.u.u.u.p.p.p.p.p.p.p.p.p.p.p.p.p.p.p.p.i.i.u.p.i.u.X.X.r.o.) ..i.u.t.V.M.M s s s s N.B.",
"Z.H.s s i s s H.H.g.f.u.@.) ..r.t.k.x.x.x.x.x.x.x.x.x.x.x.x.x.x.x.x.x.x.x.x.x.x.k.k.x.x.x.x.t.f.r.o.) X.u.k.l.S.N.M s s M s H.N.",
"F.s s i i s M C M Z.V.u.o.) X.r.l.h.z.K.h.z.z.l.z.l.z.z.z.z.h.h.z.z.z.z.z.z.z.z.h.z.h.h.z.h.h.h.r.o.) X.u.g.Z.F A n s s i M n C ",
"M n s i s i n B B Z.L.u.o.) X.r.z.h.h.h.d.d.d.d.d.d.d.d.d.d.d.d.d.d.d.d.d.d.d.d.d.d.d.d.l.h.h.h.@.o.) ..u.g.Z.F S n M n n i N A ",
"N m n s i i i V A C.V.i.@.` X.y.h.h.h.h.} Q.Q.Q.!.Q.Q.Q.Q.Q.W./.Q.Q.Q.Q.(.Q.Q./.Q./.} /.d.K.z.K.r.@.) ..u.g.C.F A M n M s s B S ",
"N A C n n B C A A S.V.p.o.) O.O.+.).$.).|.oXOX#XOX#X#X#X#X#X#X#X#X#XOX#X#X#XOXOX#XOX X}.).a.$.+.O.O.` ..u.g.Z.F S B n m B B Z D ",
"N A m m C Z B V A Z.V.p.o._ } W.Q.Q.Q.Q. X+X$X#X#X$X$X3X#X3X%X$X#X3X%X%X3X$X$X#X#X$X+X]./.W.W.W. .} ` ..u.g.Z.F A B B C B C Z S ",
"G U C B B B Z U T S.V. .{ ] Q.].}.].].|.oX5.*.*.*.*.*.*.*.*.*.*.*.*.*.*.*.*.*.*.&.&.4.].'.`.'.'.'./.' [ } g.Z.G U Z B Z B B A U ",
">X<XA Z C F F <X<XK.g.{ { { !.'.].].{.{.{.8.*.*.*.*.*.*.*.*.*.*.*.*.*.*.&.&.&.&.&.*.<.{.{.3.`.].]./.{ { ] e.g.:XF A V B Z V F ,X",
"L.;XU D V S U >XZ.r.#.{ { !.'.].].}.*.*.*.*.*.*.*.*.*.*.*.*.*.*.*.*.*.*.&.&.&.&.*.*.&.&.*.*.'.'.].'.Q.{ ' O.o.K.S.U D C A U >XK.",
"h.A.,X,XA F >XA.g.$.$.{ Q.(.'.]..X5.*.*.*.*.*.I.T.T.T.T.T.T.T.T.T.T.R.T.T.T.T.T.T.*.&.&.*.*.5.3.]._.(.Q.' } $.j.L.>X>XV F >XA.g.",
"a.x.Z.S.D >XZ.j.u.).'.E.Q.'.'.'.6.*.*.*.*.*.*.J.> : > > > > > > > > > > > > > > w *.*.*.*.*.*.*.].'.(. .' /.'.*Xt.Z.S.A >XZ.j.@.",
").*Xh.L.:XH.Z.-X*X'.'.W.Q._.3.<.-.*.*.>.0.0.0.N.e r t t j j t t j b t t t t t r t 0.0.0.I.*.*.*.<.4.(.W.' !.].).*XZ.S.>XS.h.j.).",
"+X1Xs.g.H.S.V.*X+X[.[.W.!._.4.*.*.*.*.U.w > w j B z B z V V V A V V V V z V z V B > > > T.*.*.*.*.6.(.Q.' !.].+X1XK.V.H.A.f.-X#X",
"+XOX1X-XZ.=X2X#X@X[.[.Q.3.6.;.&.*.*.M.M.B z z x J J J T T T T T T T K T T T U D v k t k D.m.U.*.&.=.6.4.' !.].+X+X2X-XA.j.3XOX+X",
"+X#X#X*XB.=X#X@X@X|.].Q.1.&.&.&.*.*.> e z z x T Q L L P ! ! ! ! P P P P P Q L Q T B k k e > U.*.*.&.&.,.] (.}.+X@X#X2XC.=X#X+X+X",
"+X+X@X@X@X#X@X#X@X|.'.*.*.*.*.*.B.w k z T L T ; X X X X X X X X X X X X X X X .   K K x z k > > :.*.*.*.*.3.|.+X#X@X@X@X@X@X@X@X",
"+X#X#X#X#X#X@X@X#X|.}.*.*.*.>.U.M.w V x T L E - o + @ @ @ @ @ @ @ @ @ @ @ @ @ o   I J S z k e w P.>.*.*.&.3.].@X$X$X#X#X@X@X#X@X",
"#X%X%X%X%X%X6X%X%X].'.*.*.*.w.> i i K T Q H o o o 1 3 M.6 2 2 3 6 6 m.6 6 6 2 + X X ; K K v B k > m.*.*.&.3.].OX%X%X6X$X6X%X%X%X",
"XXoXoXoX+XoX+X+X+X3.4.&.*.*.w.> l l T L h d o # * 0 q a a q q a q q q q q a q 3 = X - h I K x z > M.*.*.&.<.5.|.oXoXoXoXoXoXoX|.",
"E.{ { E.| { { { { -.&.&.*.*.w.> A x W E o o o 6 8 m A A A A A F z A A x A x V i p X o o h L v x > m.*.*.*.*.&.| { E.{ E.| E.{ { ",
"!.'.|.|.|.XX|.(.[ -.&.&.U.9.M.e K L - - o # M.b B A S U T T T Y T T T T T U x V Z 5 = o % - I T t 0 J.Y.*.*.&.| E.|.XXXX|.|.'.Q.",
"!.'.oXXXXX+XoX_.{ -.*.*.P.> e t K ! X o o $ 0 m A A D T Q Q Q Q Q Q Q Q Q U x V B p 1 o o o E T k e : q.*.*.*.| ~.+X+XXX+XXX|.~.",
"!.[.+XoX+X%X6X}.{ -.*.*.P.> l c Q P   + F.n V V V Q ! ^ / ( ( ( ( ( ( ^ ^ ! P A Z A B 8 # o E ! c z > q.*.*.*.} ^.%X$X+X+XXX|.~.",
"!.[.+X+X+X$X6X].{ -.*.*.I.> z c W E + & p n V A S Q ! ^ / / / / / / / / / ! ! S S B n p = + I E J l > q.*.*.*.| ^.%X%X+XXX+X|.^.",
"^.[.+X+X+X$X%X].{ -.*.*.Y.> x c & X 7 8 V A V T Q Q ^ ( W G.H.F.F.F.G.R ( / ^ Q Q V A V a 8 + X K l > 0.*.*.*.| '.%X%X+X+X@X|.~.",
"~.[.@X+X+X%X9X[.{ -.*.q.h.r J T & X 8 0 A A S Q ! ^ ^ W R G.:Xs :XM G.F <X! / ! ! U U V a 7 + o L x j B.T.>.*.| _.8X%X+X+X+X|.~.",
"~.|.@X@X+X6X0X[.{ =.&.4 < x L P - X 8 p A U Q ! ! ( ^ G.G.F.V B V Z F.F.:XW ( ^ ^ P T V a 7 + o P L x b : Y.*.| '.0X8X@X@X+XXX^.",
"~.[.@X@X@X6X0XXX{ -.*.> j S L ^ 9 # s n U L ! ~ / <XG G.s Z F.D.D.F.C :XG.,XR / / ~ P T m u * @ ^ L x l : Y.&.| '.8X8X@X@X@XXX^.",
"^.|.@X@X@X6X0XXX{ -.*.> r S L P 9 1 B A T ! ! / ( <XG.G.C S D.v.c.C.A C G.G.G.^ ( / ~ P S V 1 # ^ L x l 4 P.*.| '.rX8X@X@X@XXX^.",
"^.[.#X@X@X%XrX[.{ -.&.> j c L ^ 9 $ C V L P / Y <X:XG.F :XC.b.v.c.v.C.F.A Z G.>XN ( / Q S B 1 # ^ L x l : Y.&.| '.rX8X@X@X@XXX^.",
"_.XX@X@X@X8XrXXX{ -.*.> j c P ^ 9 1 B C L P ( R :XG.C D :Xv.v.v.v.v.v.H.U Z G.G.G.( / ! S m = @ ^ L x m 4 Y.&.E.^.rX0X@X@X#XXX^.",
"'.|.#X@X@X8X0X X} ;.*.> j v L ^ 9 1 B A L ~ / R G.A >Xv.v.v.c.c.c.c.v.v.v.H.G :XF.( / P S B = # ~ L x l > P.*. .].0X8X@X@X@XXX_.",
"'.|.@X@X@X7X0X X{ -.*.> j U L ~ 9 $ B V Q P ( R G.D Z v.c.c.c.c.c.c.v.v.v.G.S >Xs ( / ! S B = @ ^ L x l > P.*. .].0X0X@X@X@XXX^.",
"^.|.@X@X@X8X0X X{ -.*.> j v L ^ 9 m.B A T P / R G.S <Xv.c.c.v.c.c.c.c.v.v.G.S G.G.( / P S n = # ~ L x l > P.*. .].0X8X@X@X@XXX_.",
"'.|.@X@X@X6X0X X} -.*.> j v L ~ 9 $ B V L P / R G.Z Z D.C.c.v.v.c.v.v.n.H.G.A :XG.( / Q S M = # ~ L x m > P.*. .].0X8X@X@X@XXX_.",
"^.|.@X@X@X8X0X XE.-.*.> j v L ^ 9 $ B z L P / R G.G.C D :Xv.v.v.v.v.v.H.F C G.G.F.( / Q x B = # ~ L x l > P.*. .^.rX8X@X@X+XXX~.",
"'.|.@X@X+X8X0XoX{ -.*.> j c L ~ 9 $ B V T L ~ ! Q ,XG.C :XG.n.v.v.b.G.C >XC G.T W ^ ~ L A n = # ^ L A m > P.*.Q.'.rX6X@X@X@X|.~.",
"^.|.#X@X@X8X9XOX{ -.*.> j c L ~ 9 $ B V T L Q / / <X:Xs C A C.b.v.C.A C G.:XG.! ( P P T A n $ # ^ L x l > P.*. .].0X0X+X+X+XXX^.",
"^.|.@X@X+X7X0X[.{ -.*.> r x L P & O y a S U Q ! ! / ! G.s M B Z F Z :XG.G.<X^ / ~ L T A u 8 @ O ~ T x k > P.*.| '.0X6X+X#X+X|.~.",
"~.|.+X@X+X6XrXXX{ -.*.5 r x T P & o 8 a x v T P ! / ^ >XM M Z A A V G.:XC Y ( ^ ! T T A s 8 + o P T x j 5 U.*. .'.rX8X@X@X@X|.^.",
"~.|.#X+X@X6X0X|.{ -.*.*.Y.> l D & X 8 p z V B K Q ! ^ / W s s G.s G.G.R ( / ! T T B V V a 8 + o S z > q.*.*.*. .'.0X%X@X@X@X|.!.",
"~.[.#X@X+X8XrX[.{ -.*.*.Y.> l J g d 1 3 i B V c U ! ^ / ! <X<XG G G G Q / ^ L T U V B n 0 3 d d S l > w.*.*.*. .'.0X6X@X@X+XXX!.",
"_.[.+X+X+X8X9XoX{ -.*.*.P.> l K L ~ . + 8 a B B B T Q ! ^ ( ( ( ( ( ( ^ P L T V n B n 8 # X E ! c z > q.*.*.*. .'.0X8X@X+X+X|.!.",
"~.|.+X@X#X6XrXXX{ -.*.*.P.> l J ! ^ . O = 3 s m V v K ! ! ^ ^ ~ ^ ^ ~ P L Q J B n p 0 $ @ o E ! S x > w.*.*.*.E.[.0X8X@X@X+XXX!.",
"~.|.@X+X+X8X0X X{ -.*.*.P.> l c ! ! . o o $ 8 n B z x T T T T T T T T T T D B B n 7 1 X X o E ^ J l > 0.&.&.*.E.^.0X%X+X+X+XXX!.",
"(.].@X+X+X7X0X[.{ -.&.*.:.U.K.r x S I h X O @ 8 p k B x V A A V Z V A z V z B a p + + X g I S c r < : q.&.&.&.| ^.rX8X@X+X+X|.!.",
"_.[.+X+X+X8X9XoX{ -.*.*.*.&.w.> k l Q I X X o 2 y i B B B B B B B B B B B V B p y o o X H ! l m > > > q.&.&.&.E.^.rX8X+X+X+X[.!.",
"_.[.+X+X+X#X$X[.E.-.*.*.*.*.q.: b k V x P H X X X 3 7 8 7 7 7 7 7 7 7 7 7 7 5 + o o d P J x V m > m.*.*.*.*.*. .}.6X%X+X+X+X|.~.",
"_.[.XXXX+X#X$X[.E.-.*.&.*.*.q.m.b k z x T h - O o 1 6 6 3 3 3 6 6 3 5 3 6 6 6 + o - g Q S A m b m.0.*.*.*.*.*. .'.7X%X@X+XXX[.~.",
"~._.^.'.+X%X%X[.E.;.*.&.*.&.&.&.n.4 l V x K L ; o X o o o X o X o o X o o o X X . ! K A z m : : :.*.*.*.*.*.&. .'.6X%X@X|.~.~.!.",
"3X4X4X7X5XrXtX5X3XwXwX&.*.&.&.&.w.0.j k x v T h f f f f f f f g f f f f f g f g f T c z l t B.0.:.*.*.*.*.8.wX4X4XtXtXqX9X4X4X4X",
"yXpXpXpXpXpXiXpXpXuXtX&.*.*.*.*.*.*.w , z x x K L L L P P L L ! P P P L P L L T L z x z e > U.&.&.*.&.&.*.eXuXuXpXpXpXpXpXpXpXpX",
"tXyXpXpXpXpXpXpXuX9X6XeX&X*.*.*.*.*.T.w.r r j x c J c J K J J c v v J v J x c v S r r r K.Y.>.&.*.*.&.8.eXqX7XuXpXpXpXpXpXpXiXyX",
"tXyXpXpXpXpXiXiXuX6X#XtXeX*.*.*.*.*.*.U.: > > k z z z z z z z z z z z z z z z z z : > : T.*.*.*.*.*.*.wXiXqX$XuXpXpXpXpXpXpXyXtX",
"`.Q.Q.].tXrXrX5X6X0X0X+X+X@X8.*.*.*.*.*.>.>.:.m., , e , e , , , , , e > , e , > > >.>.>.:.*.*.*.*.7.7X6X3X0XtX8X7XrXrXrX3XQ.Q.W.",
"Q.{ { (.8XrXtXrX7X0X9XoX+X#X8.&.*.*.*.*.*.*.*.9.4 4 4 4 4 4 4 4 : 4 4 4 4 4 4 4 4 *.*.*.*.*.*.*.*.7.7X$X+X7XrX7XrXrXrX7X|.E.{ { ",
"E.E.E.E.E.3XtXtXtX@X+XoX+X#X5.*.&.&.*.&.*.*.*.*.*.*.*.*.*.*.&.*.&.&.*.*.*.*.*.&.*.*.*.*.*.*.*.*.*.7.7X$X+X+X+XrXtXrX5X{ E.E.E.E.",
"E.E.E.E.E.oX3X9XtX#X+X+X|.|.3.,.-.&.*.*.*.*.*.*.*.*.*.*.*.*.*.*.&.*.*.*.*.*.*.*.*.*.*.*.*.*.*.*.,.3.XX+X@X+X+XrXrXOXOXE.E.E.E.{ ",
"E.E.E.E.E.E.E.4XrX@X+XoX].E.{ Q.6.*.*.*.*.*.*.*.*.*.*.*.*.*.*.*.*.*.*.*.*.*.*.*.*.*.*.*.*.*.*.*.E.W.W.`.#X+X+XrXrXE.E.E.E.E.E.E.",
"E.W.W.W.W.E.W.[.OX#X+X_.~.E.W.W.6.&.&.*.*.*.*.*.*.*.*.*.*.*.*.*.*.*.*.*.*.*.*.*.*.*.*.*.*.*.*.*.W.Q.W.!.`. X#X X[.E.W.W.E.E.E.E.",
"W.W.W.W.W.W.W.W.{ #XoX} Q.W.W.W.6.*.&.&.*.*.*.*.*.*.*.*.*.&.*.*.*.*.*.&.*.*.*.*.*.*.*.*.*.*.*.*.W.W.E.E.W. X4XW.W.E.W.W.E.E.E.E.",
"] ] ] ] ] ] ] ] ] } } ] ] ] _ ` #.2.2.2.2.2.2.2.2.2.2.2.2.2.2.2.2.2.2.2.2.2.#.2.2.2.2.2.2.2.#.2.] ] ] ] ] } W.] _ ] ] ] ] ] ' ] ",
"] ] ] ] ] ` ] ] ` ] _ _ ` _ ` ` %.%.a.a.a.a.a.a.i.a.a.a.%.%.%.%.%.a.%.a.a.a.a.%.%.%.%.%.%.a.a.a.` _ _ ] _ _ ` _ ] ] ] ] ] ] _ _ "
};
