/* XPM */
static char *_bbfd99d176a40b5b9828b795e3bdaef3nBEK0pUAT5EjVcb[] = {
/* columns rows colors chars-per-pixel */
"64 64 22 1 ",
"  c black",
". c #00001C",
"X c #00002C",
"o c #000034",
"O c #000040",
"+ c #00004C",
"@ c #000058",
"# c #000064",
"$ c #000070",
"% c #00007C",
"& c #000088",
"* c #000098",
"= c #0000A4",
"- c #0000A8",
"; c #0000B0",
": c #0000BC",
"> c #0000C8",
", c #0000D4",
"< c #0000EC",
"1 c #0000FC",
"2 c #0004FC",
"3 c #2024FC",
/* pixels */
":<11<1111111111111112211111111111<11<11111111<111221121111111<1-",
"*;;;;;::;;;;;;-;-;;-;;-;;;;;;-:;;;;;;;:;;;;;;;;;;;;;----::;:;;-&",
"*;>-;;;;;;;;;--;-;;;;;;;;;;;;::::;;;:;:;:::::::;;;--;-;;;;;;>;;&",
"*;::;--=-;;-----;;;;;;;;--;;;;;>:;;;;;==------;-;;;---;;=-;:>;-*",
"*;;;;*%%$%%%%%%%%%%%%%%$%$*;:;;;;;;:-&@+##$$%%%%%%%%%%%%$$=;;;-&",
"*-:;-&..    ...........  .&-:;:;;;;;*@.    ......  ...   .&;;;;*",
"&-:;-&.......X............&-:;;;;;;-*+.   ......        ..&-;;-&",
"*-;;-&...XXXOO..XoOoXXX...&-;:;;;:;;*O.  ...........      &=;:;&",
"&;:;;&X..Xoo++..o++OoOOXXX*--:;;;;;;=+..............      *-;-;&",
"*;;-;&OX.XOXXX..X@@OO@+XoO*-;;;;;::;*#.....XXXXXXXXX..X.. &--;;&",
"*;;;;&+OXo+o....o##O+$#O+@&;;:;;;;:;=#...XXo+++++OO+O+#@oX*;-;;&",
"&;;;:*@+OOOo....o##O@%$@@@*-;;;;:;::=@..XOOO+#$$#+@@+@$$OX*;--;&",
"&;:;:*@O++o.....XO@O@%#@@@=;-:;;;;:;*+ .XOOO+#$#@+@@OXoo..*;-;:&",
"&;:;:&@OO+o......XOo+$@OO+*--::--;::=@ .XoooO#@+O+#@X..   &;-;:&",
"&;;;:&oXO@O......XOXO#@ooO*;-:;;;;;;=@ ..XooO@+oX+%$X...  &;;;:&",
"&;;;;&.Xo+O.XoOOXXXXO@+XoO*;-::;;;:;=@ .XOOooOOo.O**o.....&;;;;&",
"*;;;-&XXXXX.o+@OX.X.X+OXXo&;;::;;-;-=#.XO++OooOOXO%%o.XXX.*;--;&",
"*;;;-&..XoX.O+@+X...XOoXXX*;;;;-;;;;-#..o+#+OoO+Oo+O..oOX.*:;;;&",
"*--;-&...OX.O@@@o...XOOoXX&;;;:;;;;;=#...O+OoooOoXoX..ooX.*:--;&",
"*--;-*  .oX.O@@@o.XooO++XX&;:;:-;;;;-$ .XoX.XoX..XOo..oo..*:;;;&",
"*--;-&  .oX.o@$$O.XoooOoX.*;;;:;;;;:-% .oOX.XX...X++..ooXX*:;;;&",
"*;-;;&  .XX.X@**O.o+OXX...&;-;:-;;;;;&..XoX..X...X##..XO++*:--;&",
"*----&  .XX.X@&%O.+$@oX...*;;::;;;;;;&..oOX......X@@X..o++&;:-;&",
"*-;;;&  .oo..@*&O.@%#o....*;;::-:;;;-&..O+o.    .XOO...XOO*;;--&",
"*;;--&  .XX.X@*&O.+#+oXX..*-;;;;;:;;-&..O+X.    .OOX...o++&;--:&",
"*;;;;*   ...XXO+XX+OXO#@oo&-:;;;;;;;-&..oO......X+O....Xoo&;;-;&",
"*;--:&   ..... ..o@O.O$#oo*;:;;:;;;:-&...X......Xoo...X. .*;;-;&",
"*;;;;&   .X... .Xo++XXXXXo*=;;;;;;;;-&O...XXO+o...X.....  &;--:&",
"*;:-:&  .oo....XOo++X.  .o&;:;;;;-;;-&+X.XOO#%@OoXX.....  *:;;;&",
"*:;>:*...oOXOO..oXOOX.. .X&;;;;:>;;;-%OoXoOoO@+OoXXXXooX. *:;>;&",
"*;>*:*.X.Xoo+@ooOoo+o.....&-;;:>*:;:-&XXoO+oXoOoXXoXXOOX. *;>=:&",
"*;;;:&XoXo++OOO@#+O#+oX...&;;;:;::;:;&.XoO+OOOOoXXoooOOX..*:;::&",
"*;--;&oOO+@@O.o#%++#+ooX..&;-;-;;;;:;&.XoO+++OXXXoOoO+OX..&;--;&",
"*;--;&oO++@#+oO$$++$@ooX..&-;:;;;;;;;&XXo++@@o..XXoXo@OX..*;-;;&",
"*;;;;&XO+O+#$@@##++$@oOX..&--;;;;:;;-&ooO++@#+oXXoXXX+O...&;-;;&",
"&--;-&XXOOO@#@#$#++#@ooX..&-:;-;;:;;-&ooO+O+$$@+O++XXoo.. *---;&",
"&;-;;&XXo+++OO#$$++#@oXX..&-;;;-;;;;-&oXoOOO@#@+@@@X.XX.  &;;;;&",
"&;;;;*oXo+@+oXO@#+O#+XX...&-;;;;;;;;-&XXXO+@+OO+@#@. ...  *;;;;&",
"&:;-;&ooo+@@o.X@$+O#+XX...&-;;;;-;;;;&XXoO@@+OOO@#@X.XX.  *;;;;&",
"*;;-;&XXX+#@oo+$$+O#+XXX..&-;;;;:;;;;&XXoOO++OooO@@o.oOX  &;;;;&",
"*;;-;&.XXO@+O+@%$+O@+XXX..&-::;;;::;:&.XXo++++oX.o+O..... *;;;;&",
"&;--;&XXXXOOOO+$$Oo@OXXX. *-;:-;:>;;;&...X+@#@O. .Oo  ... *;;;;&",
"&:-;;&OOXXoOOO+$$Oo@+XXX. *-;:-;;:;;;&X...O@@@o. .oX  ... &;;;;&",
"*;-;;&O+OooO++@$$+O@+ooX..*-;:-;;:;;-*o...XXOOX. ...   .  &;;;;&",
"*;--:&XOoXooOOO@$+O@+OX...&-;:-;-:;;;*X.  ..XOX   .       &;-:;&",
"*;;-;*X..XXXXX.o@Oo@@OX...*-;:;;-;;;;&.   ..X..  ...   .  &:;;:&",
"*;;-;*X..XX.....OXX++ooOX.*-;:;:;:;;;&..   ..    .oX  ... &;;;;&",
"*;;;;*X...X.....XoXooO@@o.*--:;;-:;;;&OX..      .XOo. .X. &;;;;&",
"*-:;-&X..........XXooO#@X.&-;;;;-;;;;&OoX.... ..XoOX..... &;;;;&",
"*-;:-&O.        ..XOoo@@X.&;;;:;-;:;-&XXX.o@+. o@+o...... *;;;;&",
"*-;;-&O.       ...oOX.O+X.&-::;:-;;;-&.XoX+&$. X@+X.....  *:-;;&",
"*-;:;&o. ..   ...Xoo..XOX.&;;;;:;;-;-&.XooO#+. .oo.....   *;-;;&",
"*;;:-&..  .    ...XX...o..&-;;;;;;;-=&..oXXOo. .oX.....   *;;:;&",
"*;;:-&.         .......X..&-;:;;-;:;-&..X..oo. .X....     &::;;&",
"*;;:-&X.          ... .X. &-;;-;-;;;=& ....XX.  ....      *;;;;&",
"*;;;;&X.           .  ....&-:;;;-;;;-&... .XX. ....       &:--;&",
"*;;;-&..              ....*;:::;;:;:-&... .X.  .X..     ..*;;;-&",
"*-;;;;<3333333332122322221;:::;:;;;;;;<3333333333333333321::;;-*",
"*-;;;;;;;;;-;--;;;:;:::;;:;;;;;;-;-;-;:::;;;;;;;;::;;;;;;:;;;;-&",
"*-:>:;;;::::;::;:;:;;;;;::;--;;:>----;::::;;;:;:;:::::::;;;;>:-*",
"&->*;-;::;::;:;;:;;;;;;-;;--;;;,=:;;--;:;;;:;;::;-;;;;;:;:;:-:-&",
"&--:;;:;;;;:;;;;--;;--;;-;;;;:::::;-;;;;-----;-;--------;;:;:--&",
"*=-=----;;;:;;;;------------;--=-=-------;;;;;;;-;;;;;-;--;--;=&",
"*%%%%%%%%$%%%$%%%%%%%%%%%%%%%%$$$$$%&%%%%%%%$%%%%%%%%%%%%%%%%%%*"
};
