/* XPM */
static char * AnyConv_com__ducky_idle2_xpm[] = {
"48 48 10 1",
" 	c None",
".	c #FFFFFF",
"+	c #70581B",
"@	c #FFF1CD",
"#	c #FFCC4B",
"$	c #000000",
"%	c #DF7126",
"&	c #6C330D",
"*	c #40310C",
"=	c #D3A635",
"                                                ",
"                                                ",
"                                                ",
"                                                ",
"                                                ",
"                                                ",
"                                                ",
"                                                ",
"                                                ",
"                                                ",
"                                                ",
"                                                ",
"                                                ",
"                                                ",
"                                                ",
"                                                ",
"                                                ",
"                                                ",
"                                                ",
"                                                ",
"                                                ",
"                                                ",
"                                                ",
"                                                ",
"                       ....                     ",
"                     ..++++..                   ",
"                    .++@@@@++.                  ",
"                   .+@@####@@+.                 ",
"                  .+@########@+.                ",
"                  .+##$.######+.                ",
"                  .+##$$######+.                ",
"                  .+##$$####%%&.                ",
"                  .+#######%%%%&.               ",
"                  .*=######===*.                ",
"                 ...*=######=*.                 ",
"                .**..*======*.                  ",
"               .*==**========*.                 ",
"               .+=######======*.                ",
"               .+##########===*.                ",
"               .+#############+.                ",
"               .+#######=#####+.                ",
"               .**=####==####=*.                ",
"                .**==========**.                ",
"                 .************.                 ",
"                  .**********.                  ",
"                   .&&....&&.                   ",
"                   .%%%. .&&&.                  ",
"                    ...   ...                   "};
