/* XPM */
static char *_f16abea6f434863b7483633dd7841bbXMKGbDC04JQhCZEo[] = {
/* columns rows colors chars-per-pixel */
"64 64 167 2 ",
"   c #45849E",
".  c #4687A1",
"X  c #4789A3",
"o  c #498BA5",
"O  c #4A8EA9",
"+  c #4D92AD",
"@  c #4F95B1",
"#  c #5097B2",
"$  c #529AB5",
"%  c #549EBA",
"&  c #57A1BD",
"*  c #58A3BF",
"=  c #5AA6C2",
"-  c #5CA9C5",
";  c #5EADC9",
":  c #60AFCB",
">  c #61B2CD",
",  c #64B6D1",
"<  c #66B9D5",
"1  c #67BCD8",
"2  c #69BEDA",
"3  c #7EB5D5",
"4  c #7FB8D7",
"5  c #7EBBDA",
"6  c #6BC2DE",
"7  c #7FC0DF",
"8  c #6DC6E1",
"9  c #6FC8E4",
"0  c #7EC5E3",
"q  c #70CBE6",
"w  c #7FC8E6",
"e  c #73CEEA",
"r  c #7ECDEB",
"t  c #75D3ED",
"y  c #7AD6EE",
"u  c #7ADAED",
"i  c #76D5F1",
"p  c #78D7F3",
"a  c #7BDBF3",
"s  c #7CDEF9",
"d  c #7EE1F5",
"f  c #7EE2FB",
"g  c #84AED1",
"h  c #8BAED4",
"j  c #90AFD7",
"k  c #92AFD8",
"l  c #82B3D4",
"z  c #8BB1D6",
"x  c #80B8D7",
"c  c #84B7D9",
"v  c #8DB3D9",
"b  c #81BCDB",
"n  c #89BADC",
"m  c #91B0D7",
"M  c #94B1DA",
"N  c #9AB3DE",
"B  c #9DB5E1",
"V  c #9DB8E2",
"C  c #A1B7E4",
"Z  c #A4B9E6",
"A  c #A9BCE6",
"S  c #A6B9E8",
"D  c #ABBCEC",
"F  c #B1BFEE",
"G  c #AFBEF0",
"H  c #B1BFF1",
"J  c #80C0DF",
"K  c #81C4E3",
"L  c #89C5E5",
"P  c #82C9E6",
"I  c #8BC6E8",
"U  c #82CCEA",
"Y  c #8FCCEB",
"T  c #84D2EE",
"R  c #87D9EF",
"E  c #88DCEF",
"W  c #84D4F2",
"Q  c #86DAF4",
"!  c #88DEF4",
"~  c #87DCF9",
"^  c #88DEFA",
"/  c #B3C1ED",
"(  c #B9C3EE",
")  c #B5C1F3",
"_  c #BBC5F5",
"`  c #B7C3F8",
"'  c #BCC6F9",
"]  c #BFC8FD",
"[  c #83E4F6",
"{  c #89E3F6",
"}  c #82E7F9",
"|  c #81E6FB",
" . c #89E4FC",
".. c #83EAFB",
"X. c #85EAF9",
"o. c #86ECFB",
"O. c #82E8FF",
"+. c #83E9FE",
"@. c #84ECFD",
"#. c #87EDFC",
"$. c #85ECFD",
"%. c #89E9FA",
"&. c #8BE9FB",
"*. c #8BEBFB",
"=. c #88ECFA",
"-. c #8CECFB",
";. c #8AE8FC",
":. c #8CEBFC",
">. c #88EFFD",
",. c #8BECFD",
"<. c #87F0FF",
"1. c #89F0FD",
"2. c #8AF0FD",
"3. c #8BF0FD",
"4. c #8AF1FD",
"5. c #8AF2FD",
"6. c #88F2FF",
"7. c #8BF3FE",
"8. c #8AF0FE",
"9. c #8CF0FD",
"0. c #8DF1FD",
"q. c #8DF1FE",
"w. c #8CF0FF",
"e. c #8DF2FE",
"r. c #8CF3FE",
"t. c #8EF2FF",
"y. c #8BF4FE",
"u. c #8BF4FF",
"i. c #8BF6FF",
"p. c #8EF5FF",
"a. c #8CF4FF",
"s. c #8EF8FF",
"d. c #8FF8FF",
"f. c #8EF9FF",
"g. c #8FF9FF",
"h. c #8DFAFF",
"j. c #8EFBFF",
"k. c #8FFBFF",
"l. c #8EF9FF",
"z. c #90F7FF",
"x. c #90FAFF",
"c. c #90FAFF",
"v. c #C0C7F6",
"b. c #C2C8F7",
"n. c #C0C7F9",
"m. c #C3C9F8",
"M. c #C5CAFA",
"N. c #C6CBFB",
"B. c #C7CCFB",
"V. c #C7CCFC",
"C. c #C4CAFB",
"Z. c #CACEFC",
"A. c #CBCEFC",
"S. c #CBCEFE",
"D. c #CCCFFE",
"F. c #CDCFFE",
"G. c #CDCFFF",
"H. c #CACEFD",
"J. c #CDD0FE",
"K. c #CED0FE",
"L. c #CFD0FE",
"P. c #CED0FE",
"I. c #D0D1FE",
"U. c #D1D1FF",
"Y. c #D2D2FE",
"T. c #D3D2FF",
"R. c #D3D2FF",
/* pixels */
"l l h h M k g x M F M.V.` S _ F.F.U.L.) N k M S v ! @.t q t X.%.! ;.t.g.g.g...t > * % & = ; > > & # $ % % * 6 e 2 q o.-.{ ,.i.6.",
"/ z x x l g z D Z.L.L.U.U.F.U.Z.M.) C k h h h z T 6.e t p 6 , 6 q y a a f q ; # X . X . o O + @ % > 6 8 > ; 2 6 } =.P x 3 J ! g.",
"U._ / D D ( B.B.F N N S _ U.F.S N k h g g l b Q 6.t 8 p +.f e > & % & = , * o X @ & = = = = ; 6 d 6.t.i.y , 6 6.Q x g h g x W t.",
"m._ _ _ _ ( A M l x x l z C F M g g g l b W 6.i.f 2 1 q s +.f p 2 - # O $ + . % , q p a d d } 6.%.U P ! 6.6 d { x g h g l P %.c.",
"M h g l x x x x J P U K b x l l l x J Q t.,.a e 9 1 - ; 1 q p p e 1 * + . o o - e @.g.g.g.g.g.p.W 5 3 P t.p d %.J x x b W t.t.{ ",
"h l 3 3 3 K U P P W ~ ^  .&.! T P Q ,.i.a 8 1 > 1 2 , = $ & > 6 2 , - $ o   o = e <.i.i.6.@.@.p.=.U K U t.} @.i.%.W { ,.t.T 5 l ",
"N l 3 3 4 P Q P K K W ;.p.c.g.g.p.g.6.t 1 , : - > ; & % $ O + % & = = = $ O X # > 6 q 9 2 1 1 6 d p. . .p.6.p.6.g.c.t.! x g g h ",
"S l K J K ~ Q J 5 K U ;.c.g.6.g.p.<.p 1 ; ; - & & = , 1 ; # X   . O # % & $ + # $ & * - 1 q t [ u p i.p.p.g.p.U T T b z h g h A ",
"B x U W ^ ,.Q U &.t.p.6.p.6.} d t 9 2 > - = & $ % , t p 6 = +     . o + $ % $ $ ; 1 8 i p p p @.p.,.;.p.g.g.t.7 h M B C N N D F.",
"g b ~  .,.p.,.p.g.g.g.i.@.X.X.@.i.6.a 2 - % $ $ = 1 e p 8 > % + O o $ @ @ & = * = , 6 6 2 6 q p p.W T ,.p.p.! x h C S C B S m.T.",
"b W ;. .,.c.g.g.g.x.c.t.,.,.t.,.,.p.p.p , * % % = , 2 2 1 > - * & + % < % & 1 1 ; : , 2 e a | +.6.! l c K K 5 g M B N B N D Z.T.",
"^ t.,.;.;.g.g.@.+.6.g.t.;. . .;.,.g.6.e 1 = % % % & & & * = * = - $ & u 6 = 1 8 2 2 6 t | i.g.g.i.{ z D D B M B S C N M N D L.U.",
"c.c.c.p.p.g.6.f s t } p.g.p.p.p.@.d q , - $ @ + o o o o o O # % * % ; o.6.q , 2 2 9 e p f @.g.g.t.P h _ U.U.F.Z.Z.D M N N M ) U.",
"c.x.g.i.6.@.s p | t 2 t d d y 6 > = $ + O X     . O $ - > > - * & = q 6.Q ;.} a X.,.6.6.,.t.%.Q b z S Z.T.m.) m.L._ S ) ) F M.B.",
"c.z.g.g.6.s p p <.a , ; ; - & % & & % $ @ + @ $ - 8 a +.6.g.;.} a [ 6.&.5 x U T P K K b b c M Z _ M.U.U.U._ M z Z m.U.U.L._ Z L ",
";.p.p.p.p.p.i.i.g.d 1 = * = , e a p t e 8 6 8 y o.@.p 9 t 6.,.P T Q Q 0 l M S / ( _ _ _ b.B.U.M.( / / _ ` S h b x v S F B c Q ,.",
"p.g.g.g.g.g.g.p...9 , ; , q ....t q e p +.g.g.c.g.+.t 8 t @.,.b g z z h h C ] U.T.T.U.C._ D N M j g l h h h l U &.P c x P &.} d ",
"c.g.6.<.@.;.d t 1 ; - , t i.<.q 1 , 6 p @.g.p.t.p.p.6.@.6.g.! x h D m.b.M.Z.U.T.T.T.Z.G N h g g g x P 3 l l 3 ! c.%.U W ,...{ P ",
"t.c.g.@.p q , = & & ; e 6.g.p 1 , 6 t @.g.;.Q U U T Q ! ! U x g h D L.T.T.M.M.C.C._ S M h g b K P { Q K 3 3 K ;.o.d @.o.@.{ v C ",
"Q &.t.g.f 6 - % $ = 8 ,.,.6.e 2 q } p.-.T b x g h M B V B N N B Z ) V.T.U.` M v M h l x K T  .p.p.c.,.W J K Q p.t ; > t t.b N ) ",
"x b r %.p.t , = = 2 X.&.t.<.p a 6.%.U c z M C D ) ` ] Z.U.U.U.U.Z.L.F.T.T.] h x K J U ! t.c.c.g.g.g.p.~ K J W 6.q ; , p t.P z B ",
"g l 3 b ! 6.d 9 t =.Q Q g.p.6.,.U c h N S ) Z.F.V.) S D V.U.) _ F.T.T.T.T.m.z K  .t.p.g.i.6.g.g.<.g.c.;.~ ^  .t.6.q ; ; e 6.{ T ",
"g 5 5 3 x U %.6.%.P U t.c.c.%.b N B N C _ U.T.T.U.m.S B ) U.) g N m.U.T.U.F z Q g.g.g.i.f s +.@.;.g.p. . .,.z.c.g.@.u , 1 ..g.z.",
"g 5 K b 3 g x x x b  .c.c.-.b C _ S S _ U.U.C._ M.U.m.) n.U.D x x N _ Z._ M x %.p.p.t.,.p.6.p.p.t.t.t.,.;.t.t.c.t.W T { } i.t.~ ",
"M g 4 5 3 l g g g K ;.p.,.P z M.U.F.L.U.m.G ` D m S M.U.U.M.M P K g C G B z K  .^ Q T r r W ~ Q ~ t.t.p.c.g.6.p.T v M z x K T K ",
"S h g l l g h h h x P W U x B U.V.Z.M.D M S ' m.N l z Z D B l T b h S G N x ! ,.Q P b 3 3 l x x x J Q &.p.<.;.T B M.U.m.N h g h ",
"` C M M N C D _ ) B z x l h ) U.D N N h h S Z.U.M.N x l h g x K l N ) ` B l Q ;.~ P K 5 5 K K x l l K ~ ,.,.Q z m.T.U.m.C M h h ",
"Z.M.M.M.Z.U.U.T.U.U._ B M N M.U.) h h h h S L.T.T.M.M l x l 5 5 h D C.' C g P  . .~ T P K U ~  .{ { ,.;.W w z S B.U.M.S N j h g ",
"T.T.T.T.T.T.T.T.U.L.U.Z.H D C.T.M.N B C M N m.T.T.U._ z l 3 3 g N ] F.C.C g 5 W W T K x l l K { t.p.p.Q x g B L.T.T.U.M.) Z M h ",
"T.T.U.L.L.U.T.T.T.U.T.T.C.` C.T.F.S Z.L.m.S S U.T.T.F.S h g l g C ] Z.] B g 3 5 5 3 3 l 4 x 3 3 c c J P x g N ) C.F.U.T.U.V.) S ",
"T.F.) D H C.T.T.T.T.T.T.L.Z.U.T.V.Z.U.Z.Z.L./ / U.T.L.D h g g g B ` ] D M g 3 3 l g g g g g 3 l M S N g g N ` Z.m.] F.T.T.T.U.U.",
"Z.S M M C ] U.T.T.T.T.T.U.T.T.T.Z.U.F M M / U.F _ Z.m.C h m M h M S S N h g l x g h l x b l g g M H ) _ v.F.L.L.Z.C.V.T.T.U.L.U.",
"C h h j S L.U.F.U.U.U.L.L.T.T.T.U.) h l l h M.Z.D ` D C F m.M.D h k j h h A / / S _ _ / / D N M N ) L.U._ F / / _ U.U.T.M.S N C ",
"h g g k ) L._ D ` C.] ` C.U.T.T.F.B g 3 3 h ) U.B._ m.L.U.L.U.U._ C B S _ L./ Z ) Z.] D F m.U.] G ` U.M.B g l l z N B / D h l l ",
"g g h N _ ) S C H ) H G H m.U.T.Z.C h g g h ) U.T.U.U.v.S B S M.U.U.L.U.U.Z.B h h B S N B ) U.T.F.m.M.M l g N v.L.B.B g h l 5 5 ",
"g h M C C N N S ` ' ) S S S ] U.U.) N h M Z m.T.T.V.S h h M M C M.Z.M._ _ Z.U.L.m._ S C D V.T.T.T.U.C M N A M.U.F.T.M.h 3 5 K P ",
"g h z g g h M D D ) ` S N M B ` U.Z.` ` v.Z.U.T.L.S h N _ Z.] S ) S M h j N S ) M.U.L.C.C.U.U.Z.U.) S M.U.U.U.L.C.U.V.M x K P W ",
"g l J P K l h M h k S Z j h h N m.U.U.U.U.U.U.T.Z.M B F.T.T.U.` Z.F.F M h h h N G U.L.V.V.Z.C.) S M S Z.T.T.U.U.U.B.Z c K P U ~ ",
"l U ,.p.;.P g h g g M B h g g j D ] ` ) S S _ L._ M M.T.T.F.S M m.T.F.S M C ) _ ` ' C.V.C.C.` C h N H L.U.M.F Z B v b K 0 P P W ",
"K ,.i.@.p.%.b g g g j j g g g M D H D N j h N ] ) D U.U.T.M.N h D _ U.U.Z.L.V.) ] Z.Z.C.` ) S N k S H F B z l 3 4 5 5 K W ! T K ",
"U p.| @.i.g.%.K x z l g g g j M h h C Z j h M ` S M.T.U.U./ c K x M F b.Z.] C.Z.U.U.) B z h k k M g g g l g l x x K W  .t.p.;.U ",
"T p.@.g.,.%.,.,.^ Q U K 3 g h g l g h N B N S D S F.U.Z.U.S b y x g h N C C D ) L.S z l g g g h C h g h k l K U Q  .;.t.c.c.;.P ",
"W t.g.g.Q 0 b x x x b b 5 3 g g g g h h M N F B.U.M.C.Z.U.B.B B B / _ F.Z._ N h B M x l N h h k ) C B S z K P K W  .t.c.x.p.W x ",
"Q  .p.c.~ 5 g N S S B M g l g g g h h j k C M.T.L._ ` U.U.M.F.U.U.U.L.Z.L.U.) c x b b g N j j C C.) ) D z W W K W ,.g.x.p.! 5 g ",
"t.,. . . .K h G L.U.F.H M g g g h M B C N B ) Z.U.U.U.T.Z.Z.U.T.F.) S D H Z.U.C x P P l N N S ) U.' C._ z P ,.,.p.c.c.,.Q 5 g h ",
"c.=.T U T U x C C.L.C.D M h h M N B ) L.Z.C.U.U.T.U.F.m.Z.L.Z.U.U._ ) ) D Z.T._ h l v C m.Z.C.U.U.C.' U.D z T &.{ ! T K c g N h ",
",.b v B M c K c M B N h h C _ m.H ) Z.T.U.U.U.T.U.V.m.U.L.L.) D L.F.H D B F U.U.D A Z.U.T.T.T.T.U.] ) C.U./ M z z z z h h N D N ",
"^ l S Z.M.N K x z g g h D m.L.U.U.U.T.U.) S / _ m.U.F.Z.U.T.M.N _ U.D N h B Z.T.U.U.T.L.T.T.T.T.T.C.D H Z.U.F.b.M.C.M._ D S D ) ",
"U x B C.Z.S g M C M M S C N B _ U.L.L.U.L.D M h F U._ H Z.T.L.S M F.m.M h B Z.U.) C.m.] U.T.T.U.T.Z.D C D m.L.L.Z.Z.U.U.) B M B ",
"x J l N B h g D Z.M._ ) C h j S Z.U./ N Z C N C m.L.] C.F.T.Z.C h ) U.D M B C.U.) S S ` U.T.T.Z.U.M.B h h M C C B D Z.U.D h l l ",
"N M z z z N ) U.U.F.L.U.Z._ S ) V.T.F.N x l j _ U.] D m.U.U.) h g C U.Z.S C m.T.C.H D ` C.L.Z.` U._ h l x l g h h C Z.U.S l K U ",
"m.L.F.Z.Z.L.U.L.` S C F M.U.L.L.T.Z.) h K K h _ T.L.Z.U.U./ z l l z m.T.V.` Z.T.Z.H S D H ) D D U._ h x K b l g h D U.U.B x U  .",
"T.T.T.T.U.U.T.U.m.N g g v D B.U.U.Z.) S v b z ) L.U.U.Z.S z x 5 3 g S F.T.U.T.U._ B N N B B M S U.) g K P K l h S F.U.L.C l K W ",
"T.R.L.Z.L.T.U.D M x b P U K n M Z _ U.U.U.F M ) ] _ D M c K K 4 5 x h S Z.U.U.M.N h g h h h h N Z.v.h 5 K x h / L.F.F.L.C h l x ",
"m.U.L.] L.U.D z U  .t.p.g.p.p.Q x M M.T.T.F.v c z z l b W W b 5 P P b l M S S M l l l l g h g h ) F.M l l g S U.L.Z.U._ B j h g ",
"N M.U.] M.F.S b ! 6.g.g.x.g.g.@.t.K B Z.U._ c ;.R P T  .,.Q P T ~ U T K x g g x 5 l g 3 l g h g C U.S g g h _ T.U.B.D M j M C Z ",
"x N _ L.Z.U._ g l P t.@.i.g.x.i.;.&.x M N h b ,.g.t.t.p.c.,.,.;.W K P Q W J b K 4 g g 3 g N S S N U.D g l g D U.m.N g g g M B k ",
"W P S Z._ Z v x x ! X.p @.c.x.g.d 6.U l h g x ^ c.c.c.c.t.t.p.c. .W Q  .W b 3 J 3 g g z / Z.U.L.B.L.D g 3 l N ] N x K K l h g l ",
"W t.E Y I E ,.%.;.@.t } t.p.z.g.p } &.b l l J Q ,.t.,. . . . .t.t.;.^ P x z h z g g B m.F./ B N ) U.S l K b g N x W  .~ K l g l ",
"U t.6.+.| } d u q , t t.W W p.6.q t p.T K P W ^ ~ W w b x x K P T 0 c M S _ M.v.) _ L.M.B c b b z F N J Q Q K l P ,.g.p. .K l l ",
"5 b K ! ,.p 1 ; & > d p. .&.g.f 1 t i.p.,. . .~ K x h M M M z h h N F M.U.U.U.U.U.U._ M x T &. .K z c { g.g.&.b ! g.g.g.p.Q K x ",
"U K b K &.p.d > = e p. .W  .g.@.p X.p.c.z.,.,.Q x h D M.Z.M.` D ) Z.U.U.M.) H ) ] D m x U  .p.,.T l R 6.p a 6.! ;.p.<.@.g.p.Q P ",
"6. .W P W t...1 t p. .b x K ,.g.p. .W Q ,.t. .U l S L.T.T.T.U.L.U.T.L.) B M M N B k g b W ;.z.,.W T X.2 ; , a t.t.g.+.| i.c.,.~ ",
"; u ;.U U ,.g...6.W b h h l U p.,.U K P Q K x x z _ T.T.T.T.T.T.T.T.C.S N h h M N h g b W  .,. .! X., $ + % 8 p.p.6.f f 6.g. .W "
};
