/* XPM */
static char *_f625cc1a4a44bf0fbed66abb4228c7aqv07eeUJel7FcAx5[] = {
/* columns rows colors chars-per-pixel */
"64 64 107 2 ",
"   c #16030B",
".  c #19060C",
"X  c #1D0B0D",
"o  c #1F0F10",
"O  c #200F0D",
"+  c #24130D",
"@  c #28170D",
"#  c #2B1A0E",
"$  c #301F0E",
"%  c #241411",
"&  c #281711",
"*  c #271814",
"=  c #2C1B12",
"-  c #301F12",
";  c #33220F",
":  c #3A280F",
">  c #2F2017",
",  c #2F2018",
"<  c #352313",
"1  c #392613",
"2  c #3C2A13",
"3  c #342519",
"4  c #382719",
"5  c #3B2B1C",
"6  c #3F2E20",
"7  c #412E15",
"8  c #412E1A",
"9  c #453116",
"0  c #45311A",
"q  c #4A351A",
"w  c #4E391C",
"e  c #533C1E",
"r  c #402F21",
"t  c #443324",
"y  c #493725",
"u  c #4C3924",
"i  c #4C3A28",
"p  c #533E21",
"a  c #583F21",
"s  c #523F2A",
"d  c #57401F",
"f  c #58401F",
"g  c #564023",
"h  c #5C4423",
"j  c #55422B",
"k  c #5A452B",
"l  c #5E492C",
"z  c #5A4630",
"x  c #5E4A31",
"c  c #604725",
"v  c #644A26",
"b  c #604728",
"n  c #654C2A",
"m  c #6A4E2A",
"M  c #67502F",
"N  c #6D512B",
"B  c #70542F",
"V  c #624D32",
"C  c #665134",
"Z  c #6C5433",
"A  c #675238",
"S  c #6B5539",
"D  c #6F593B",
"F  c #725631",
"G  c #755934",
"H  c #785D37",
"J  c #745C3C",
"K  c #795E3A",
"L  c #7C5F39",
"P  c #77603E",
"I  c #7C603A",
"U  c #7A603C",
"Y  c #7A613E",
"T  c #7E623C",
"R  c #7F643F",
"E  c #765F40",
"W  c #7B6342",
"Q  c #7C6341",
"!  c #7D6441",
"~  c #7F6645",
"^  c #80643D",
"/  c #81653F",
"(  c #806743",
")  c #846842",
"_  c #846A45",
"`  c #876B44",
"'  c #876D47",
"]  c #886B44",
"[  c #8A6E46",
"{  c #856C48",
"}  c #886E49",
"|  c #8B6F48",
" . c #8C714A",
".. c #8D724C",
"X. c #90734B",
"o. c #93764E",
"O. c #95784F",
"+. c #937850",
"@. c #987B53",
"#. c #997D53",
"$. c #9A7E54",
"%. c #9D7F56",
"&. c #9D8056",
"*. c #9F8258",
"=. c #A08258",
"-. c #A18459",
";. c #A4865B",
/* pixels */
";.-.&.*.-.-.&.%.%.%.$.$.$.$.S h 2 O     S &.&.=.-.+.C @ C $.%.~ * & g m N N +.%.w 2 + . - g @.%.$.#.Y 4 + x +.$.$.$.%.&.-.{ 5 . ",
"*.[ N T o.X.H N N n h h h n n c v 2 . 5 W #.G ^ o.! l 1 l ' S 8 + # e N N N [ } l Z 1 < n ^ ..n w a w h h e g w h g m Z ' +.k X ",
"] B N N F N N N N N N N G ` ) m h < # l R I N N F T } n N Y } p # 1 h N N N B ` } M 2 < F I M l n v c N B N m h N m F L Z R h + ",
"N N N N N N N N N N N G } ( m h w < 0 F F N N N m n R H N ^ [ h = w N N N N N N H n < + h N N T G N N B G N N N N N G L N n q X ",
"N N N N N N N N N N N T ( n h e h < 8 c N N N N N N N n m N n h - p N N N N N B N Z 2 @ h N N H L N N N N N N N N N N N N h < . ",
"N N N L L N N N N N N F M n h h c - 2 c N N N N N N m v m m e h - p G T F N N L N m 7 + 0 v N N N N N N N N N B F N N m h 9 $ . ",
"N N N F G N N N F N N N N N m N n 5 8 n N N N N N N N m B T p 9 = w N G B N N F N n 7   2 c N N m N N N N N N N F N N N v c 2 . ",
"[ Z n N N N N G ) N N N N N N N c 4 k F G B N T N N N N ^ Y g 2 @ < e N N N c v N n 7 + e m N F F N N N N c m n N N N N N N 9 X ",
" .} G m N N N F G N N N N m n e q 4 D  .R B N L m N N N G n q 2 + # 7 c m l G n m h < + w n N H ` n c m N F M m N F ^ L m h 7 X ",
"q Y ( C e h h h h h v m v a 7 2 ; * x ..X.H h h q g h h h e < # . X # k ! ! l w 2 < # O ; e c c T Y J c n F Z n h n n w 2 2 ; . ",
"$ 8 J W 0 1 < ; ; < 2 7 2 ; ; # O   X j ` S 2 ; 2 $ $ $ # X         . < 4 + . + + X .   + ; 2 < 0 s u 2 1 1 2 2 ; 0 e 0 $ #     ",
"y y y y 4 .       % 4 5 y y 4 4 .     o 6 y y y 4 t y 4   4 +       + 5 4 + + + X X X X X X X = = 6 y 4     4 t 5 - - - r y y y ",
" .! !  .{ V < . + 4 C { ` K n A 5 . o 8 J  .o. .` ` H n q J J x * 8 S Q C 2 2 7 w e w q 0 q 0 w h C ` S - 5 ~  .Y c h n H K { { ",
"^ G G ..=...C = w D V +.) F N M 0 < A ' I ^ o.] T ^ L N F +.*.` t u R G h e h h m m m m c c n m Y G T L 8 5 A %.#.G N B H L I Y ",
"N N N F ..%...5 h W } ` F N N m 0 4 A ! F N F B L G B N T $. .n 5 1 M m L H M m N H G N N N N N G Z N m 7 2 h ( ..B N N B F N N ",
"N N N N B I ..5 9 M T B N N N N c 2 4 h N N N N N N N N N ^ F h < 2 n N F L B N N N N N N N N N N N n 0 + @ 7 m B N N N N N N N ",
"B N N N N N G 4 p G N N N N N N m 0 # e N N N N N N N N N N c 7 @ < h N N N N N N N N N N N n N N m e 2 X + 2 v N N N N B N N N ",
"( G N N N N v < h B F G N N G G m 0 # e N N N N N I B N N N c q + O q N N m N N N N N N m I F N N h e q # + g m N N N F ) H N N ",
"H N N N B N h < h N F G N N I H m 0 4 c N N N N B [ G N N N N h + # a N N Z N m N N N m M N N N B N N h # . h N N N N F H B N N ",
"N N n T ^ N q = h N N m m N N m e 4 2 c N N N N N N N N N N N h + < h N G  .G n c N Z S F Z N G T m v w $ + a N N N N v h n N N ",
"h n Y } F e 1 # e N N N m v m h 2 # < e h m N N v e h N N N N e + # q c n ( ! ` h N G H F n v B F w q 2 # + 0 h n N N h 7 e m N ",
"k ` ( l 9 2 + + 2 q e l J ` Z 7 ; X + < 9 h c c q 2 q c v d w 2 + X # 7 7 q g V 0 0 8 q w 0 7 w e ; ; + . X + 2 0 q q 2 ; 1 0 q ",
"y S s # # + . . + + # - 5 k t & X   . + # - < < # # = < 4 = # X . . . X X X X X X .   . X X X + & X X . . . . X X X X X X X X X ",
"= t t t t t 6 * X 3 t t t t t 5 - % . . . 3 6 t t t t t r 4 * X * t t 5 & 3 4 X * 5 t t t t 4 % O 4 t t t t t 4 = %   . 4 t t t ",
"b ` *.%.%.o.o.g 0 Z +.&.*.&.o.o.T n 3 X # l P o.$.%.%.o.! J q q l *.*.{ p Q J 3 l } &.$.&. .} g u K &.&.*.&.o.[ G V % X W $.&.@.",
"I ! o.Z D S Z m N L L ' ..! Z G G L S + 2 2 2 p n G H F m c e ! ' o.o.J q h 5 & L [ [ V J Z Z N F H T ` o.H M G G Y z + u n ..[ ",
"o.o.G n S S n m v h h d h m N N n L A < p u q e v N N N N N n v c c N m c n 5 < ..[ N n H Z h m v h h f h N N m F G j < e c m N ",
"} I N N m m N N h h v m N N F N Z m 4 0 L ` M m N N N G G N N N N N ` ) c Z u = ` T N m m m N N c h m N N N F N Z h & 2 h c m N ",
"[ F N N N N N N N N N m v n ` n Z v - q L ..M N N N m L } Z N N N M L G m w < = ` G N N N N N N N N N n c n ) n Z h + 5 h n N N ",
"h h n N N N N N N N h q 9 p H m h n 8 < h F N N N N m N [ Y N N N N m N m q # + g c m N N N N N N Z w q 9 p H v c c < < w n m N ",
"= a q h m N N N F ( W J g h N N m v < . 7 v N N N N N N T } G N N N N N m q + . & q q h m N N N H ! ! S e c N N m h # + 9 v N N ",
"0 c 2 2 h N N B [ ! p n N N N N m e # . 7 v N N N N N N ^ G N N h c N N m q + X 8 h 2 7 h N N N ` S h m m N N N m 9 + + 7 v N N ",
"q n h e h N G Z n e h N N N N N m e # X w m N N N N N N N N N N } H m N c 9 ; O q v h e c N F M V a c N N N N N m 7 + + 2 h N H ",
"7 h m m m m n c v m N N N N N N m w # 8 c m N N N N N N N N N N G N N F h 2 ; X 2 h m m m m h c v m N N N N N N n 7 + + 7 h m m ",
"2 2 e m N m c N N N N N N N N N v 9 # 1 e v N v v N N N N N N N N N G T k : ; X 1 2 h N N v v N N N N N N N N N h 2 + + < 2 e e ",
"; 2 9 h c m N m m m m m N m m N n 1 + + ; h F F e h c N N N N N N B T Z 2 < ; X ; 2 q h c m N m m m m m N m m N h ; O + ; 2 q 2 ",
"+ ; 2 2 7 w e e e e e l Z H L [ ( # . X @ w m F q 2 9 h c h h c c n l 7 2 # + . + ; 2 7 9 w e e e e e n G L L ..S + . X # 1 2 2 ",
"  X @ + + + + @ @ + + 5 i k x C x X     . = < < # + @ - < - = < 1 < # # @ X       + # # @ + + + + + + 5 j k x S s X .     + @ @ ",
"* A J J J J S 4 % j J J s X 5 J E S =   O j 0 & k J S x J J J V % . . + k J J J J y   * V J J J J J J D y % % * 5 l # t S J A J ",
"5 ..$.} +.+.J 4 < A  .J i X 8 J ! Y x 4 D o.Z h G [ o.+.=.&.&.Y 8 * & q )  .Y J Y s < 2 V J J J ! )  .$.J < . S ` } g n ^ o.+.&.",
"J O.[ G G [ ..g q G ..J 8 + 0 h N n V k ..*.) N N G T H [ ^ G G ..D j ) ) Z e e e c m m c n h n c F J ! T p 4 ` *.+.F N G I G ^ ",
"( F N N N v H Y m B ` ` p # n N N m q 2 Z +...B N N G L N N N F J A 0 F N n n c m m B B N N m N N ( T N F q & a } #.I N N N G N ",
"N N N N N n N Z G N G F 0 + ( I N m e 1 h H F N N N N N N N N N q # 5 m N H } N N N G G N N N N N N N m h 4 + e N I N N N N N N ",
"N N N N N N N n h N m v q # Z N N N e + q n N N N N N N N N N N q # 1 v N N H N N N N N N N N n N N m h 9 + X 2 c N N N N N N N ",
"N N N N N N N n c N M e 0 + e N ] L q = g m N N N G ( B N N N N e + @ e m N N N N N N N N N H N N N c e 9 # X e v N N N B ) G N ",
"N N N N N N N N N T ! 7 2 X a N ( Z 1 = h N N N N G ^ N N N N N c # + a N N n m N N N N m n F N N N m n h < X h N N N N B ^ F N ",
"R G N F G N N N N L Z 9 1 # h N N n 2 - h N N N N m n N N N N v h # < c N N ' Z n v N F n G M N G ^ N N d < O h N N N N m c m N ",
"..F N N n c m N N N h 2 $ @ w h m n 8 = h m N N m e q c N N m w 9 # # e m m [ } Z M N G H L m m G Y h e 9 ; + e m N N N h 9 c N ",
"+.o.D 7 q 9 9 9 9 7 - X . + < 2 9 7 X + 2 9 h c h 7 2 w c h 0 2 ; X + < w q h Z ( V h h n n a w c c 2 2 # X X < 9 w c c w 2 7 h ",
"l S s 4 = @ + + @ & * , , * < # = =   % 3 4 5 4 < 5 4 # - = @ + X . * < = # = # # # X . O @ # = 2 u 4 & X o = > = = - < 4 5 5 5 ",
"W J W J s & . . X y C W J C V 4 .     j W W W E V J C 4 j j 5 X X 5 l S 0 # 2 < < < < < < < 2 w j E S 0   i E J p p p l J J W J ",
"X.] O.*...s X & i j ` %.[ I H k @ , k J o.&.=.+.} o.T h T ..{ j < S ^ ! g w e e h h h h e g h m G  .[ n X A $.&.H N N I ) ) O.[ ",
"F N G o.-. .i 0 H A } [ N N m h < y ..T F R ^ H I H N B ..=. .x < Z G M n h c n N B N m m m m F Y m G n + h K %.( N N B H F F N ",
"N N N H [ &.V 0 M ` [ B N N N c 2 4 J Z N N N N G N N B ....M e & a N B ( F m N N F N N N N N B G m c 0 O 0 c ( G N N N F B N N ",
"N N N N B ] k 2 p F F N N N N N h + q v N N N N N N N N F F h 2 @ g N N F N N N N N N N N N N N N m e @ . < q N N N N N N N N N ",
"I N N N N B 0 0 L N N N N N N N h + 9 v N N N N N N N N N n q ; O 7 c N N N N N N N N N G N N N n w 7 ; X 2 e m N N N G G N N N ",
"G N N N N N 8 q N F I N N B ^ B h O 0 n N N N N ^ L N N N N v < . 4 v N N N N N N N N N N N N N m v h 2 . 8 n N N N B ) ^ N N N ",
"N N N G B v 1 q N N N N N G G m h & h N N N N N L T N N N N N = + q m N L F m n N N n M Z m N G F N c 7 + 8 n N N N N m m N N N ",
"m n Y  .F e = 0 m N N m m m m e 1 + e n m N N N n v N N N N m < + 9 c m ) [ S h N F T Z N m N [ H c e < + 7 v m N N m e e m N N ",
"n J ..S q 2 + 2 h v n Z H G h 7 $ O 2 w h N N v q q n N m v h < X ; q h n L Y Z c c n S n e c N e 2 < # X # q d c v h 2 7 h c h ",
"! ` g 2 ; # . # 1 0 w k C Z 0 # O . # < 9 e e 0 < 2 q a w 9 < + . X # - < 1 i 5 4 < < 1 < = 1 q 2 # + .   X + # 1 2 < # # < 1 < ",
"j i + + + X X X + + + + * 4 & .     . + + + + + + + + + + + + .   . . . . . . .           . . X X X .     . X X . . X X X .     ",
"+.o.o.+.+.+.o.o.o.o.o.o.+.+.+.D %     5 ~ +.+.+.o.W # 5 ! +. .4 . t J h c H  .Z 4 &   . # J ....o.{ q   = ! ......o.o.+.} s .   ",
"$.T I O.#.} H G G G G G ..-.+.H < . X k +.X.T o...A # 5 ` ) k & O 7 n N N T +.V C n + u Z o.( k h h e w w g l l l N F ` +.W 5 . "
};
