/* XPM */
static char *_ed5811e1ae3454dccd87a54298199e6WLQhG8Ovq4ygP4Ef[] = {
/* columns rows colors chars-per-pixel */
"64 64 53 1 ",
"  c #17040C",
". c #18050D",
"X c #18080F",
"o c #190810",
"O c #1B0D13",
"+ c #1C0F14",
"@ c #1E1317",
"# c #1D1417",
"$ c #1D1518",
"% c #21161A",
"& c #211B1D",
"* c #241A1E",
"= c #211C1E",
"- c #241F21",
"; c #252022",
": c #252324",
"> c #272627",
", c #282023",
"< c #282727",
"1 c #282728",
"2 c gray17",
"3 c #2D2A2B",
"4 c #2D2D2D",
"5 c #302F2F",
"6 c #302F30",
"7 c gray19",
"8 c gray20",
"9 c #363334",
"0 c #373536",
"q c #383536",
"w c gray23",
"e c #3C3C3C",
"r c gray24",
"t c #403E3F",
"y c #434343",
"u c gray28",
"i c #484747",
"p c #484748",
"a c #484848",
"s c gray29",
"d c gray30",
"f c #514F50",
"g c #505050",
"h c #545253",
"j c gray34",
"k c #585858",
"l c #5B5B5B",
"z c #5F5F5F",
"x c #606060",
"c c gray40",
"v c #6A6A6A",
"b c #6F6F6F",
"n c #727272",
/* pixels */
"nnnnnnnnnnnnnnnnnnnnnnnnn42uO      %nnnnnnnnnj2=.4nnnnn%  .4jwss",
"nnnxxxnnnnnxxxxxzjjjjjjjj42u09o    %nnvzcnncju:#=4znkjj@ .=4syss",
"nnxssszxnxzsssssywwwwwwwwwrsswo .&;hnnxygxvcju:$24znj42=..22ysss",
"nxsssssszssssssssssssssjxzrsswo .24bxxjsssjxvcu>wrzjjj42..22ssss",
"zsssssssssssssssssssssjvkzrsrwo.=rjzsssssssysccusssjkbr2..2wssss",
"sssssssssssssssssssssjvn7sss2=..2szssssssssw7zcjsssxnxr2.owsssss",
"ssssssssssssssssssssjvcjrsrww9oowssssssssssyyjgdsssszsw2.Opsssss",
"ssssssssssssssssssssxnj4su24suOOuusssssssssssssssssssss2.Opsssss",
"sssssssssssssssssssszj4rs42us@  24sssssssssssssr4sssu4u2.Opsssss",
"ssssssbdsssssssssssssrwss44ss@  2usssssssssssssrusssu4u2.Opszzss",
"ssssssdbsssssssssssssssssssssuO.2ssssssssssssssrssss42u2.Opsszzs",
"sssssssssssssssssssssssssssssuO.4sssssssssssssssssdb4222.Ousssss",
"sssssssssssssszzsssssssssssss4.Ossssssssssssssssssbb4222..24ssss",
"nb74ssssssssszxssssssssssssss2.%b77bsssszzssssssssb02u22..22rsss",
"xnkjrusssssssjjssssssssssurww2.%bkjzssssjjsssssssszr2w22..227ysy",
"rjnn7wwrssssssssssssssssrw222=.%nnnssssssywyssssssss222=..=227gk",
"24jzjj42wrsrwwwwwyssssyw22222. @jknxxgwwww77wwwwwww9==&.  .&:2jc",
"222rnnj422w2222227wwww72222=&. .=4znnj222772222222=.        @=tt",
"===;ghg;==================&.    .=0ght===========&.             ",
"                                                                ",
"%%%%%%%%X.       +@@%%%%%X%X       %%%%%%%++%%%@ .X%X.     .O@%@",
"nnbbbnnb74o.  ...fjjnbbbb0v7o     &bnnnnnnhhbbbj@26b74%   +4szbj",
"nbdsdbnnnb4<..=;;4jnnxsssu0v4o  %*udbnnnnnnnxdsssssnnnb, Oibxnjr",
"sssssdbnnn04X&2jj24knzssssu72<.%bbdsssxnxssszzssssdnnnnb%.6bdsr2",
"ssssssdbnnnb%=wzj4jnxssssssu22.%bbbsssssssssssssssbnnb05X.2ssssr",
"sssssssdbnnn%=wrjbnxssssssss42.%v0sssssssszzssssssbnb04uO @ssssz",
"sssssssssdbn%=2wsxxsssssssssu4.X42ssssssssssssssssdbdsuuO.2sssss",
"ssssssssssdb%=22rssssssssssssuO.22ssssssssssssssssssss42..2sssss",
"sssssssssssz@@5sgsssssssssssspO.22sssssssssssssssssssw22..2wusss",
"szssssssssspO@wjjsssssssssssspO.22sssssssssssssssssss222..=2ysss",
"xzssssssssspO=wsssjjsssssszsspO.=2ussssssssjjssssssssww2. .=ysss",
"zsssssssssspO=wsssjjssssszzsspO.=wussssssssxvjsssssssss-. .=usss",
"ssssssssssswo=wsssssssssszssspO.2ssssssssssjxjsssssssspO .=wssss",
"ssssrrzzsss2.=wsssssssssssssrwo.2ssssssssssssssssssssspO .2wssss",
"sssu77nbssu2.=wssssssssssssu22..2usssssssssussssssssssu+ .22ssss",
"ssu7bnbdu421.=wssssr4rssssu222..24u4ssssssuw2wssssssssu2..<2wsss",
"2270bb72222o =2wsssszj77su422<..>222usssssw222wssssssu42. o<2ww2",
"27bbs72222<. &2222wwrzbbb722<o  X>222wsssw2222wussu4222<.  o<222",
"4bnb52222<o  .===222=;47b4<o.    o<222222222<>2222222<o.    ....",
"X%%%X.....    .........X%X.       ......... .    .....          ",
"                                                                ",
"o0ghhhhhhhhg;@ @thhhhhhhhhgq9=&.    @rghgghhhhhhhhhg;==&@ghhhht=",
"0sknnnnnnnknu53:ucnnnnnnnxnxzrj@ .&.;ujjcnnnnnnnkjjj4222<nnnncu2",
"ss7nnkjjjz7zgyyssgvvvnncjszxzszg+.2=2222ujjzxxxzrwww24jjknnnnj22",
"zsknxr4jjzrsyssjjsjjgjkgrssssssb%.222222227yssssssssw4jzjjjxxs27",
"nxnxss4jjjrursssywww77ysssssrzsb%.22722227ysssssssssirrsrwrsywwy",
"knxsssrwwwrsysyw77wwwyssssss4zsj@owwsu7wwysssssssssssssssssskgyy",
"0bssssssssssssr22rssssssssss7ss2.Opskkrssssssssssssssssssssdnxwr",
"nbssssssssssssuuuussssssssssbss2.Opsbnjrssssssrjb0ussssssu7bnzss",
"bdssssssssssssssssssssurbbs4sss2.Opsxnjrssssssuybb0ussssssu0jrss",
"ssssssssssssssssssswww220bs44ss4 Oussssssssssssrdbb7ssssssssssss",
"@u7usssssssssssssr222224ussu4ssuO.24sssssssssssruwb0ssssssssssss",
" @u44usssssssssszj44422rsssssss4. o1rssssssssssssbnbssssssssssss",
" @u2224usssssssxjjbbzwwsssssssu2.  Owsssssssssssssdbssssssssssss",
"ous22224ssssssznj44rssssssssss42. .<wsssssssssssssb0ssss44usssss",
"-ssw2222sssssjzju27yssssssssss2>. .=yssssssssssssszrssssjjrsssss",
"2wssrww4ssszrsu27wyssssssssssu2>. .-ssssssssssssssssssssbxrssssy",
"22sssssrsssj0wwwysssssssssssss2>.o9rsssssssssssssssssssszssssssw",
"22wrsssssuw2yssssssssssssssssw22.Opsyssssssssssssssssssssssssjg7",
"2222wussssrrsssssssssssssssssw22.owwrssssssssssssssssssssssssxj2",
"22222ssssssssssssssssssssssssw22..227yssywwysssssssssssssssszzu2",
">2222uuusssssssssssssssssssss22<..222wssr42wsssssssssssssssdbj22",
"X>2222224ussssuussssuusuuusss2o. .>O2wszbzw222wssssssssssssb7422",
" X>222222222222222222rsr24sbb4.   . =wsssr22222rsssssssssss72222"
};
