/* XPM */
static char *_b8c6b8950bd4262af78651196500e1aBbZ19kGZBYMv0Y98[] = {
/* columns rows colors chars-per-pixel */
"64 64 81 1 ",
"  c #17040C",
". c #18050E",
"X c #170711",
"o c #180610",
"O c #180813",
"+ c #190B17",
"@ c #180E19",
"# c #1D111A",
"$ c #1E121C",
"% c #1A1521",
"& c #1A1724",
"* c #1B1A28",
"= c #1B1D2B",
"- c #1F1C29",
"; c #1E1B2C",
": c #1D1F2F",
"> c #221923",
", c #221A24",
"< c #201D29",
"1 c #1D202F",
"2 c #1D2131",
"3 c #1F2336",
"4 c #242330",
"5 c #212433",
"6 c #222136",
"7 c #222534",
"8 c #252736",
"9 c #2A2430",
"0 c #252836",
"q c #222439",
"w c #252538",
"e c #23273D",
"r c #262939",
"t c #23283D",
"y c #24283E",
"u c #2C2F3E",
"i c #2D303F",
"p c #262B43",
"a c #272C41",
"s c #262C44",
"d c #282C41",
"f c #282E47",
"g c #292F49",
"h c #2D3141",
"j c #2B3045",
"k c #2A3049",
"l c #2C324B",
"z c #2D324C",
"x c #2F354E",
"c c #343748",
"v c #30354F",
"b c #333851",
"n c #353A53",
"m c #3A4058",
"M c #434455",
"N c #44475C",
"B c #44485A",
"V c #464A5E",
"C c #454A60",
"Z c #474C62",
"A c #494E66",
"S c #57596D",
"D c #595B6F",
"F c #5A5E73",
"G c #5B5F75",
"H c #5A5F78",
"J c #5D6177",
"K c #5B6078",
"L c #5D627B",
"P c #5F637C",
"I c #60657E",
"U c #6D718A",
"Y c #6D728C",
"T c #727790",
"R c #737892",
"E c #747993",
"W c #777B96",
"Q c #777C96",
"! c #787C97",
"~ c #7A7F9A",
"^ c #7B809B",
/* pixels */
"^^^^^^^^^^^^^^^^^^^^^^^^~r1fO      >~^^^^^^^^G:% 0~^^^~>   0Ftgg",
"^^~PLP~^^^~PLLLLLGGGGGGGF51f66o    >~^YLU^^UGB*@%7L~JGF#  %5Nagg",
"^~LzgzLP~PLzggggattttttttttggeo  %-F~^LaZLYUGB*@:7L~G5:%  ::pggg",
"~LzggggzHzgggggggggggggALLdggeo  :r!PLAgggALYUB*edLGGF5:X :1gggg",
"LzggggggggggggggggggggAUJLdgteo %pFLzggggggaVUUBgglFJ!f:  :tgggg",
"gggggggggggggggggggggAY~rggg:%  :lHzgggggggt7LUFlgzL~La: oeggggg",
"ggggggggggggggggggggAYUFdgttt6ooeggggggggggaaAZCzggzHlt: Ogggggg",
"ggggggggggggggggggggL~F2gf12gfOOfgggggggggggggggggggggg: Ogggggg",
"ggggggxgggggggggggggLG7tg21fg+  :2gggggggggggggt2gggg2f: Oggzzgg",
"gggggxRnggggggggggggzdtgg22gg+  :fgggggggggggggyfgggf2f: OggHLzg",
"ggggggnRxggggggggggggggggggggfO :ggggggggggggggygggx21f: OggzLHg",
"gggggggxggggggzzgggggggggggggfO 2gggggggggggggggggnWr:1: Ofggzzg",
"vvgggggggggggzLHggggggggggggg2 OxggxggggzzgggggggvQWr1::  22gggg",
"~Qr2gggggggggLLzggggggggggggg: >ErrWvgggLLgggggggvQh2f1:  ::tggg",
"P~JFdggggggggAAgggggggggggttt: >!JGLzgggAAgggggggzGa1e::  ::7aga",
"aG~~rtttggggggggggggggggtt:::% >~^~vgggggatagggggggg1::%  %::7ZL",
":5FLGF5:ttgttttttaggggat:::::  #FJ~PLZtttt77ttttttt6%%%    %*:GU",
":::f~~G5::e::::::7tttt7::::%%   %7L~^G:::77:::::::%         @%MM",
"%%%-DFD-%%%%%%%%%%%%%%%%%%%      %wDFM%%%%%%%%%%%%              ",
"                                                                ",
">>>>>>>>o        ###>>>>>O>o      .>>>>>>>##>>>#  o>o       O$>#",
"~~WWW~~Wi0O      SFG~!WWEhTuO     ,E~~~~~~FF!WWF+:rEi0,.  +0lL!F",
"~QnvnQ^^~W0:  %--5F~^PvvvghT8X .>,fnQ~~^~~!!Pbvlggv~~~W9.olWL!Gp",
"vvgggnQ^^~h0o%:FF:rL~Lgggggr:: >WWnkvvL~LvvvLHggggn~^^~E> rWbvd1",
"ggggggnQ^^~W>%tLGrG~Lzgggggf1: >~~WxggzvzgzzzzgggvQ^^Qhro :xggga",
"gggggggnQ~^~>%tdF!~Lzggggggg2: >EhxgggggggHHgggggvQ^Qh2fO +ggggG",
"ggggggggvnQ~>%:tlLLzggggggggf2 o02ggggggggzzggggggnWngffO :ggggz",
"ggggggggggnW>%::tzzggggggggggfO :1gggggggggggggggggxgg2:  :ggggg",
"ggggggggggzG$@2VZgggggggggggggO :1gggggggggggggggggggt::  :tgggg",
"zHzgggggggggO@qAAgggggggggggggO :1ggggggggggggggggggg1::  %:pggg",
"LLzgggggggggO%tgggAAgggggzHzggO %:gggggggggAAggggggggtt:   %pggg",
"LzggggggggggO%tgggAAggggzLLzggO %tgggggggggLYAggggggggg%   %gggg",
"gggggggggggeo%tgggggggggzHzgggOX:ggggggggggALAgggggggggO  %tgggg",
"ggggtdLLzgg: %tgggggggggggggteoX:ggggggggggggggggggggggO  :tgggg",
"ggggrh~Qvgf: %tggggggggggggf1:  :fggggggggggggggggggggg+  :1gggg",
"ggfrW~Qng21: %tggggy7dggggf2::  :2f2gggggggt1tggggggggf:  ::tggg",
"12rhQWh21::X %:tggggGFrrxg2:::  ::11fgggggt:::tggggggf2:  X::tt1",
":hWQnr:::::  %:::1ttaKWWWr:::X  X:::1tgggt::::tgggf211::   X::::",
"0E~Wr:::::X   %%%:::%<0iE0:X     X::::::::::::::::::::X         ",
"o>>>o                  o>o                                      ",
"                                                                ",
"owDFFFFFFFFD-@ @MFFFFFFFFFDw6%%     @MFFFFFFFFFFFFFD-%%%#DFFFFM%",
"6lG~^^^^^~L~V2;*BU^^^^^^~I~PLjF#  % *BGGU^^^^^^~JGGF5:::4~^^^UB:",
"ggr~~JGGGKrLZaaVVZYYY^^UFvLLLvLD# :%::::BGGLLLLLdttt:5FGJ~^^^G::",
"LvG~La7FGLdgsggAAgAAZGLZtgggggvW> ::::::::7aggggggggt7FLGGGLLV:7",
"~I~Lzg7FGFdgygggattt77agggggdGbW> ::3::::7aggggggggggttgtttgatta",
"J~Lzggtttttgsgat77tttagggggg7GvF#oetVB7ttagggggggggggggggggzGZaa",
"hQvgggggggggggt11tggggggggggrgg: OggJJagggggggglvggggggggggn~Ltt",
"~QvgggggggggggggggggggggvvgxTxg: OgxQ~FtggggggyFQhggggggggrE~Lgg",
"QngggggggggggggggggggggfEQx2xgg: OggL~FtggggggglQWhgggggggghFdgg",
"xggggggggggggggggggttt11hWx22gg2 OfgzvlggggggggynQWrgggggggglggg",
"+s2fggggggggggggzd1::::2gxgf2ggfO :2gggggggggggygcQhgggggggggggg",
" +f22fgggggggggzLFrr7::tggggggg2  X:tgggggggggggxW~Qvggggggggggg",
" +f1:12fggggggzLGFWWGttgggggggf:   OeggggggggggggvmWvggggggggggg",
"Ofg1:::2ggggggL~G5rjzggggggggg2:   :tggggggggggggvWhgggg22gggggg",
"&ggt:::1gggggALGB:7agggggggggg1:   %pggggggggggggzGdggglFFdggggg",
":tggttt2ggzGdVB:7taggggggggggg1:   %gggggggggggggggggggv!Ldgggga",
":1gggggygglFrtttaggggggggggggg1: o6tgggggggggggggggggggzHzgggggt",
"::ttggggggt1pggggggggggggggggt:: OggsggggggggggggggggggggggggAZ7",
"::::tgggggttgggggggggggggggggt::XoettggggggggggggggggggggggggLG:",
"::::1ggggggggggggggggggggggggt::  ::7sggattagggggggggggggggzLLB:",
"::::1fggggggggggggggggggggggg1::  :::tgzj7:tgggggggggggggggnQF::",
"X::::1112fgggggggggggggggggvx1X   =O:tgHQGe:11tgggggggggggxTh5::",
" X:::::::111111111111tgt12xQQ0      %tgzvd:::::tgggggggggggr::::"
};
