/* XPM */
static char *result[] = {
/* columns rows colors chars-per-pixel */
"64 64 153 2 ",
"   c #4F3C61",
".  c #593B65",
"X  c #5C2E72",
"o  c #64366A",
"O  c #6F326F",
"+  c #633C6A",
"@  c #6B396E",
"#  c #652E76",
"$  c #662D7D",
"%  c #7C2F76",
"&  c #6E3C71",
"*  c #743472",
"=  c #4D4462",
"-  c #574065",
";  c #852D7D",
":  c #892E7D",
">  c #83327A",
",  c #4B1D96",
"<  c #4D1D9A",
"1  c #541E95",
"2  c #591F95",
"3  c #521E9B",
"4  c #5C1F9B",
"5  c #631F96",
"6  c #681F95",
"7  c #621F9B",
"8  c #5C2F87",
"9  c #52228C",
"0  c #5B2394",
"q  c #5F2D94",
"w  c #5F229B",
"e  c #6A2A82",
"r  c #622F8C",
"t  c #702C82",
"y  c #7A2A82",
"u  c #71268D",
"i  c #7D298E",
"p  c #632195",
"a  c #6C2195",
"s  c #662A96",
"d  c #6D2C96",
"f  c #64209C",
"g  c #6C219C",
"h  c #612B9A",
"j  c #6C2B9D",
"k  c #732394",
"l  c #7C2395",
"z  c #752992",
"x  c #7F2A94",
"c  c #74229B",
"v  c #7B239B",
"b  c #74299E",
"n  c #673297",
"m  c #4F1EA0",
"M  c #511EA3",
"N  c #5B1FA2",
"B  c #541FAA",
"V  c #581FA8",
"C  c #5C20A4",
"Z  c #5620AD",
"A  c #5B20AD",
"S  c #5720B0",
"D  c #5A21B4",
"F  c #5D22BB",
"G  c #6421A4",
"H  c #6C22A4",
"J  c #6F2CA1",
"K  c #6321AC",
"L  c #6C23AB",
"P  c #6B28A9",
"I  c #7323A3",
"U  c #7C23A4",
"Y  c #7029A4",
"T  c #7323AC",
"R  c #7B24AB",
"E  c #6422B4",
"W  c #6B23B3",
"Q  c #6423BC",
"!  c #6924BB",
"~  c #7324B2",
"^  c #7B24B3",
"/  c #7325B9",
"(  c #7B25BA",
")  c #5F23C0",
"_  c #6324C3",
"`  c #6A25C2",
"'  c #6525C9",
"]  c #7625C0",
"[  c #832C84",
"{  c #8B2B85",
"}  c #83268D",
"|  c #8F278F",
" . c #872A8B",
".. c #8B298C",
"X. c #942D85",
"o. c #942A8B",
"O. c #9C2B8B",
"+. c #8C3281",
"@. c #923183",
"#. c #842395",
"$. c #8C2595",
"%. c #852994",
"&. c #8D2892",
"*. c #84239B",
"=. c #8C249B",
"-. c #86289B",
";. c #892998",
":. c #932695",
">. c #9C2695",
",. c #942893",
"<. c #9C2893",
"1. c #94259B",
"2. c #9C269B",
"3. c #9A289C",
"4. c #A22B8D",
"5. c #A12797",
"6. c #A92797",
"7. c #A32993",
"8. c #AD2B94",
"9. c #A4269B",
"0. c #AB279C",
"q. c #A52899",
"w. c #AC2899",
"e. c #B32B96",
"r. c #B3279E",
"t. c #B42A9A",
"y. c #BA299D",
"u. c #8424A4",
"i. c #8B25A3",
"p. c #8E28A4",
"a. c #8325AB",
"s. c #8B25AB",
"d. c #8628A8",
"f. c #8A28AA",
"g. c #9325A3",
"h. c #9D26A4",
"j. c #9C29A3",
"k. c #9326AA",
"l. c #9A26AA",
"z. c #8225B4",
"x. c #8B26B3",
"c. c #8225B9",
"v. c #9527B2",
"b. c #A326A2",
"n. c #AB26A1",
"m. c #AB28A5",
"M. c #A326AA",
"N. c #AB28AA",
"B. c #B627A1",
"V. c #BB27A1",
"C. c #A227B3",
"Z. c #C02B9E",
"A. c #C329A2",
/* pixels */
"m B F Q T x.x.h h r J ^ W T U k U $.:.{ 4.0.9.g j c N V m < < , < , < m m B N v v.T v o.O > 1.L _ _ W L C G E u.s.W ` F D D S m ",
"M F _ Q ~ u.c s u.1.u.! L L L K ! u.;.o.t.1.a.R 6 4 M M , , < , , , , < , < B c p.g.g.4.o X.#.! _ Q K I L L L :.k.c I W Q _ F m ",
"B Q L H =.>.} #.c ;.=.U ;.l.k.u.U g.z 3.9.a.~ V M M M 3 , , , , , , , , , < 3 G #.l z 5.7.,.W _ K E v v R R ( 2.*.#.2.U L Q D B ",
"M E c =.6.t.2.v H i.$.N.e j.1.$ y } $ h.R W K V M < < < , , < < , < , , , , 3 V 1.g.g.1.u.R Q K H ( c.~ ^ c.c.#.z.*.t.5.g.T E M ",
"4 L k.0.8.0.U Q _ T h.h.3.c #...# X y v _ S 3 < < , , , , , , , , , , , , , , B H K E ! A E M 3 7 K N K K / / ( ] U 6.{ 2.R E N ",
"6 s.h.n.>.R Q B F Q L g H G G v 1.>.<.H F m < , , , , , , < , , , , , , , , , < F F D B m 3 < < 1 < < < 3 B Q Q Q W 9.5.1.a.^ f ",
"s.i.h.=.R W M < < B ) F _ ) Q _ K I L Q S < , , , , , , , < < , , , , , , , , , M < < < < < , , < < , , < < M B D Q g.h.*.u.a.a.",
"f.l 1.I ! C 3 , , < M < M < B B F _ F _ D < , , , , , , , B F < , , < , < , , , , , , , , , , , , < , , , < < < M E l u.l *.c z.",
"z :.*.E N 3 , , , , , , , , , , < M < ) F , , , , , , , < _ W Q B < m , m B , , , , , , , , , , < , , , , , , , < D g 6 U *.#.v ",
"v.#.^ C M 3 , , , , , , , , , , , , , m m , , , , , , < Z ' K Q D M M , m B , , , , , , , , , , , , < , , , < < , B K K I i.#.s.",
"U L z.N M 3 , , , , , , , , , , , , , , , , , , , , , M _ ' H ! B M Z , , m < , , , , , , , , , , , , , , < , , , V ) F 6 l.T U ",
"g E ( G M m , , , , , , , , , , , , , , , , , , , , M F ` H #.T F ) _ < , < < < , , , , , < , , , , , , , , , < < B ) E u.k.W g ",
"v K ^ T 3 M 3 , , , , , , , , , , , , , , , , , < S _ L v 9.8.b.T H L F , , , , , , < < < B < m , , , , , , , < < D Q c M.a.C v ",
"v G U G 4 3 , , , , < , , , , , , , , , , , , , < _ H 1.V.e.O.0.w.,.k E < , , , < m D D B _ D B m , , , < , , , < S 6 1.} U K k ",
"l H R C 7 2 < , , < , , , < m , , , < < , , < , m E a 1.y.0.L W *.0.$.L B , , m F _ W Q _ L ' F M < , , , , < < M F 1. .e u.g l ",
"#.g W g 4 1 < < , , , , , < < < , Z S F D m < < m _ _ v i.Q _ _ Q 1.6.L D 3 F _ _ L 3.1.L =.W ) m , , , , , , < F Q 1...=.T 7 v ",
"v g W 4 7 2 < < , , , , , < , M B Q I H _ F B , , M F E Q B M < F T 0.U F E Q W W >.X.4.q.9.L _ B , < , , , , < F Q 1.>.v W G c ",
"U I W 4 7 3 < < , , , , , , m F _ i.9.$.c R Q B < < S ' B , , , < Q 9.g.F W k l k >.O.e.y.o.H ' D < , < < < , < M F H 1.g L I U ",
"0.#.W N 3 M < , , , , , , < S ' ~ A.V.V.y.4.o.s.E S Q E < , , , , B M.9.! 1.9.W ! L 2.9.w.6.L ' B , < < , , , , M F Q K 6 v =.>.",
"O.v ! D B B , , , , , , , , S _ b.0.v I *.,.; & :./ g.k.< < , < < M C.>.;.: ^ S F _ H k 0.r.! F M , , , , , , , M < B S _ W *.{ ",
"v L Q F F D < , , , , , , , S W q.a.' _ _ _ U O.o.O.,.&.M , < < , M M.6.8.i.A < M _ Q H 9.0.Q M < , , , , , , , , , < M V F L v ",
"_ Q K F _ ) < , , , , , , , S L #.E F _ S B F W R O.e.o.A , , , , Z 9.O.u.E < < < F _ I O.,.D < , , , , , , , , , , m M B B ) ` ",
"V F E ) K E B , , , , , , , S H a W F _ F < < M D W =.t.K , , < , S &.%.D M , , < < F T 4.:.B , , , , , , , , , , < < 3 B B V K ",
"H D S S K E S < , , , , , , V Q L g Q ' F , , , < B D h.L 3 < , , A *.T < , , < < < F a.t.a.3 , , , , , , , , , , < < 3 m V B 6 ",
"G M m M S m , , , , , , , , m ) ' W u.L _ < , , , , < A Q M , < , Z L Z , < , , < B ) v L ) < < , < 3 < , , , , , , < < < < < 6 ",
"V , , < , , , , < , , < , , < B Z Q n.9.! M , < , , , < F S , , , Z A , , , , , < _ _ Q ) _ F V F F F F m , , , , , , < < < < B ",
"m , , , , , , , , , , < , , , < < M s.O.i.D < , , , < , 3 Z , < < Z < , , < , , V ' ) Q L I W U U T H _ B , , , , , , , , , < M ",
", , , , , , , , , , , , , < < F D V Q 1.7.a.D < , , , , , < , , , , , , , , , Z ) F S F E W W 2.8.e.9.Q ) m < < , , , , , , , < ",
", , , , , , , , , < M F D D Q I R u.3.O.4.r.g.K < , , , , , , , < , < , , < Z Z < , , < m D S W 2.e.y.L _ B < , , , , , , , , < ",
", , , , , , , , < D _ Q ! ! g 0.A.b.b.9.g.T ~ E F Z , , , , , Z < M < , < < , < , , , , , < M _ I r.Z.0.! V < < , , , , , , , , ",
", , , , , , , < D _ L $.:.l $.r.#.W _ _ Q D B < < < , , , , < f Z M , , < < < , , , , , , < B ) L >.A.4.~ B < , , , , , , , , , ",
", , , , , , , < F _ $.A.e.0.k 6 L _ S S m < < , , , , < , , < C < < < < , , , < , , , , B B B _ T y.e.y.W B m < , , , , , , , < ",
", , , , , , < < F _ :.A.: 0.H 6 ' ) m < , , , , , , , , , < < C Z < , < , , < , , < < D _ ! ) ! 2.; % 0._ Z , < , , , < , , , , ",
", , , , < , < m F ` c 9.8.9.c L F ) Z m < , , , , , , , , < S < Z < m , < m < < V D Q ! U 9.U 1.X.O O.R ) < , , , < < < , , , , ",
", , , , , , , M S _ ' W 1.$.:.W _ ' D < S Z < , , M M < , M m < m , Z , < < m F R b.9.9.O.@ e.e.r.0.R D < < , , , < < < , , , < ",
", , , , , , < m B ) S _ ) W *.I _ L Q D _ Q Q E Q D < , , < , , < , , , , < < < V i.A.b.&...;.U I E S < , , , , , , , < , , , , ",
", , , , , , , , < M M < M D Q L H 3.c L b.0.0.L Z , < , , , < , , , < , , , < , , V T 9.9.^ ) ) D < , , , , , , , , , , , , , , ",
"< , , , , , , , , < < < , , M F Q W ! ! v 5.g.A , < , , , C Z , , , Z < , , , , , < D u.> >.! D < , , , , < , , , , , , , , , , ",
"M < , , , < , , , , , , , , , , < D S ! 5.0.! < , , , , , K S , , , < F < , , , , < M W 7.4.U _ C , , < , , , , < < < , < < m Z ",
"F V M m m < < , < , < < < < < < , < Q n.y.u.) < , , , , Z L Z , , , , D Z < , , < , , F T >.$.L S , , , , , , < D F F Z S S S D ",
") V 2 3 < 3 < , , < < , , , , , , S i.A.=.Q S < , , , m ! T < , , , , D W W C , , , < F ' g $.U F < , , , , , , Z E f G G G A ' ",
"E V 4 5 1 < < < < , , , , , , , < Q 5.O.L _ B < < , C E 9.~ Z < , , < F L >.g.E M Z F ' ! H 0.h._ < , , , , , , C F G f v a Q G ",
"T E K K V m , , , , < , , , , < Z ! o.o.g ) M < Z Z E &.4.R F < , , < ' L u.t.2.R u.U v l >.X.,.` F M , , , < , , m D E k g E T ",
"U L L ! _ A < < < B < < , , , M D E 9.e.g.) D Z _ T >.O.X.7.W < , , < ' L ! ~ B.A.q.r.e.X.+ - O.W ' D , , , , , , , m D L I H b ",
":.l g.H G H E F m M < , , , , < D Q $.y.v ` ' _ ~ O.{ i...> T m , , < Q K Q S ! B.t.> +   . @ 1.W ' D < , , < < < < 1 3 W v #.$.",
"g.v M.=.6 6 E ) M < , , < , < < B ) c #.H H T v w.> g.` +.+ g.A , , , E P ' F Q I 2.+.& +.7.9.! _ B m , , , , , < , 1 1 H z.u.2.",
"a.! H 6 a E _ ) M , , , , , , < m F W k a 2.w.>.0.2.W Q o.- 3.F < , < A 3.T _ F ) E U 2.1.W Q D V M < < , < , , , < 3 1 1 G ! k.",
"v F G 6 f F S F < , , < , , , , < B Q g H 2.w.L ! Q S F 1.+.>._ < , C u.O.=.Q m M Z F Q _ _ F M < < < , , , , , , < M 1 1 M D u.",
"6 F 6 *.K D m < < , , , , , , , , S ' _ ` L v Q S S < D v O.; T D M E { % q.Q m , , < < B S m , , , , < , , , , , , < 3 5 N D 6 ",
"H E v b.K M < < , < < , , , , , < B ) ) ) Q _ S < < , S R t.8.h._ W 9.: 8.*.Q < , , , , , < , , , , , , , , , , , , < 1 6 7 F I ",
"L L 1.:.H V < < , , , , , , , , < m D B < < B < , , , M W c v *.c 0.O.t.1.L ' < , < , , , , , , , < , , , , , , , , , 1 5 g E I ",
"R L g.2.k D < , < , < , , , , , < < m m < , < , , , , < Q ! _ W v A.y.1.L _ S , , , , , , , , , , , , , , , , , , , < 2 6 U L a.",
"x.L u.g.#.N < < < , , , , , , , , , , , , , , , , , , , S ' ' ! k r.V.U ' F m , , , , , , , , , , , , < , , , , , , 3 2 ~ ~ L v.",
"a.T I U v W < < , , , , , < , , , , , , , , , , , , , , < F ' ! H *.l I ) m , , , , , , , , , , , , , , , , , , , , 3 C / T R s.",
"Y a.I *.v L M 3 , , , , < , , , , , , , , , , , , , , , , , D _ _ _ _ _ F , , , , , , , , < , , , , , , , , , < , < 4 E ~ L a.b ",
"c ( W s.g.u.) 3 , , , , , , < , , , , , , , , < , , , < , , , m V M B F m , , , , , < < B < , , , , , , < < < < M B ! ! / K a.k ",
"*.L ! i.N.*.Q M , < < , , , , , , , , < , , < < < , , , < , , , < < < M , , , , , , < B ) m < , < m , < M M M B D _ ~ ( W W U *.",
"6 L W g.&.1.E V B B m < < < , < < 1 1 < < < M m < < , < M < , , , , , , , , , , , < M ) _ F D B F Q M B F ) _ Q E L =.I ^ W L a ",
"N W T 2.[ 0.I Q ) F E V 4 < < 2 2 2 2 3 M B F S , , , , M M , , , , , , , , , , < m D _ Q g E E I H Q E a H H i.#.1.r.} *.W K N ",
"V A R 1.8.y.#.L _ ` ] W f 4 7 2 9 9 9 w Q Q K S m < m , , < , , , , , , , , , < 0 A Q W I u.K c } 1.c =.b.l.M.m.M.:.e.:.a./ D V ",
"M D T v q.t.6.l W ~ ~ ^ 4 T T 0 5 a 0 ^ T R v D D V B < , , < < , , , , , , , 3 g L / =.9.1.! L 1.h.M.x g.N.M.<.2.,.t.g.^ ! D M ",
"M F Q L *.<.[ :.c x U W T ( / W K ^ L *.6.h.u.G V D D M , , , , , , , , , , < 1 g H P >.{ o.T Q L L #.:.=.u.i.3.v $.3.T W Q D M ",
"M F _ Q ^ l.x r ;.:.u.! E W L H E U =.o.e.q.i.i.v 6 N B , , , , , , , < < 3 M H a.z.a.7.o @.*.E _ _ W I W E L *.x.I T ! F _ D M ",
"m B F E R x.s.q q 8 n a.T L *.u U #.:. .O.w.0.d j *.N D B M < < < , < M < M N k x.T u.{ * : 1.H ' ' E K N N E R z.W ` E D S Z M "
};
