/* XPM */
static char *_105b8361f2544778c979887b6a01e3cb5f7VI51xeCmuzm3[] = {
/* columns rows colors chars-per-pixel */
"64 64 48 1 ",
"  c #17040C",
". c #18040D",
"X c #19050E",
"o c #1E0712",
"O c #1F0813",
"+ c #1D0D14",
"@ c #230A16",
"# c #240B17",
"$ c #270F1A",
"% c #290D1B",
"& c #2D0F1D",
"* c #221319",
"= c #27101A",
"- c #23141A",
"; c #28121C",
": c #2E111E",
"> c #2A151E",
", c #2F1320",
"< c #2D1721",
"1 c #2A1C22",
"2 c #301320",
"3 c #321723",
"4 c #331924",
"5 c #351B27",
"6 c #351C27",
"7 c #371F2A",
"8 c #37212A",
"9 c #39212B",
"0 c #39222C",
"q c #3C252F",
"w c #3E2731",
"e c #402A34",
"r c #46353C",
"t c #4B373F",
"y c #4B3740",
"u c #4D3941",
"i c #57474E",
"p c #594850",
"a c #5E4B53",
"s c #5E4B54",
"d c #5F4C54",
"f c #614D56",
"g c #6E5B63",
"h c #735F68",
"j c #75616A",
"k c #77636C",
"l c #7A666F",
"z c #7B6770",
/* pixels */
"zzzzzzzzzzzzzzzzzzzzzzzzl5:3X      -lzzzzzzzza:#X4lzzzl-  X4p333",
"zzlfdflzzzlfddddsaaaaaaaa3:3$$X    -lzgsgzzgat%O#3dlfaa+ X#3t333",
"zld535aflfa533333333333333333,X X#;plzd3udggat%O:3dla3:#XX::3333",
"ld533335a53333333333333uda433,X X:5lfdu333udggt%24asaa3:XX::3333",
"a533333333333333333333ugfa433,XX#4aa53333333yggt335afl7:XX:33333",
"333333333333333333333ugl5333:#XX:5a533333333:sga535sld4:XX,33333",
"33333333333333333333ugga43333$XX,333333333333uut5335a53:XX333333",
"33333333333333333333dla:33::33XX33333333333333333333333:XX333333",
"33333373333333333333as333::33X X::33333333333333:3333:3:XX335533",
"333337hq33333333333354333::33X X:33333333333333333333:3:XX33aa53",
"333333qh7333333333333333333333XX:3333333333333333337::3:XX335aa3",
"333333373333335533333333333333XX:33333333333333333qj5:::XX333553",
"77333333333335aa3333333333333:XX733733335533333337kk5:::XX::3333",
"lk5:333333333ad53333333333333:X*j55j7333aa33333337k0:3::XX::3333",
"flfa433333333uu33333333333333:X-lfsa5333uu33333335a4:2::XX:::333",
"4sll5333333333333333333332:::#X-lzl73333333333333333:::#XX#:::us",
":3adsa3:3332333333333333:::::X +aflfdu3333::3333333$###X  X#%:ag",
":::7lla3::2&::::::3333:::::##X X#3dlza::::::::::::#X        o#rr",
"###;ppp;###################X    X#>ppr############X             ",
"                                                                ",
"-------*XX       +++----*X*X      X*------++---+ XX*XX     XX+-+",
"llkkkllk94XX  XXXiaallkkj9h8X     *jllllllpplkkpX:4j94*X  X45dlp",
"lkq7qkzzlk4&XX#;;3alzf77739h4X X*-3qkllzllllf075337lllk1XX7jdls4",
"77333qkzzl04X#:aa:5fla333335:&X*kkq477dld777aa3333qlzzlj*X4j074:",
"333333qkzzlk*#3aa5ald5333333::X-llj733575355553337kzzk04XX:73334",
"3333333qklzl-#34alld53333333::X*j073333333aa333337kzk0:3X X3333a",
"333333337qkl-#:35dd5333333333:XX4:3333333355333333qjq333XX:33335",
"3333333333qk-#::35533333333333XX::33333333333333333733::XX:33333",
"33333333335a+o;yu3333333333333XX::33333333333333333333::XX:33333",
"5a5333333333Xo:uu3333333333333XX::3333333333333333333:::XX#:3333",
"da5333333333X#3333uu333335a533XX#:333333333uu3333333333:X X#3333",
"a53333333333X#3333uu33335aa533XX#3333333333dgu333333333#X X#3333",
"33333333333,X#33333333335a5333XX:3333333333udu333333333X X#33333",
"333334aa533:X#333333333333333,XX:3333333333333333333333X X:33333",
"333350lk733:X#33333333333333::XX:3333333333333333333333X X::3333",
"3335klkq3::&X#3333333433333:::XX::3:33333333:3333333333:XX&:3333",
"::50kk9::::X #&33333aa5573:::&XX&:::3333333:::33333333::X X&:33:",
":9kkq5::::&X #&:::334akkk5::&X  X&:::33333::::33333::::&X  X&:::",
"4jlk4::::&X  X###:::#;49j4&XX    X&::::::::::::::::::&XX    XXXX",
"X*-*XXXXXX    XXXXXXXXXX*XX       XXXXXXXXXXXXXXXXXXXX          ",
"                                                                ",
"X>pppppppppp;o orpppppppppp>$##X    orpppppppppppppp;###+pppppr#",
"=5slzzzzzlflu;$%tgzzzzzzlflfa7p+ X@X%taagzzzzzzlfaaa3:::<lzzzgt&",
"335llfaasa5au33yyugggzzga7ada7ap+X&#::::taasddda4333:3aaflzzza&&",
"a7sld43asa43333uu3uuuasu3333337k-X:::::::::33333333333adsasddy::",
"lfld533aaa4333333333::3333334a0k-X::::::::3333333333333333333333",
"fld5333333333333::33333333333a7p+X,3yt:333333333333333333335au33",
"0k7333333333333::33333333333533:XX33ff433333333573333333333qld33",
"lk73333333333333333333337737h73:XX37kla33333333ak0333333335jla33",
"kq3333333333333333333336jk7:733:XX33dla333333339kk0333333330a433",
"7333333333333333333333::0j7::33:XX33575333333333qkk5333333335333",
"X3:333333333333354::::::3733:333XX::3333333333333wk0333333333333",
" X3::33333333335aa553::33333333:X X&3333333333337jlk733333333333",
" X3::::33333335dsakka3333333333:X  X,3333333333337ej733333333333",
"X33:::::333333ala3575333333333::X X&33333333333337j03333::333333",
"#333::::33333usat::33333333333::X X#33333333333335a43335aa433333",
":333333:335a4yt::3333333333333::X X#33333333333333333337ld433333",
"::333333335p333333333333333333::XX$333333333333333333335a5333333",
"::333333332&333333333333333333::XX333333333333333333333333333uu:",
"::::33333322333333333333333333::XX,33333333333333333333333333da:",
":::::3333333333333333333333333::XX:::33333333333333333333335ast:",
":::::333333333333333333333333::&XX:::33573:3333333333333333qka::",
"X&&::::::33333333333333333377:XX X&X&33aka2::&3333333333337h93::",
" X&::::::::::::::::::333::7kk4X   X #33574::::&2333333333335::::"
};
