/* XPM */
static char *_072021098534c01abfd6738faf89b90IfGEb6kNCNyZuLLW[] = {
/* columns rows colors chars-per-pixel */
"60 26 163 2 ",
"   c #86537A",
".  c #8A557A",
"X  c #915479",
"o  c #9A577A",
"O  c #9E597B",
"+  c #A35A7A",
"@  c #AB5C7B",
"#  c #B15D7B",
"$  c #BD5F7C",
"%  c #9B6C78",
"&  c #A96D77",
"*  c #A66778",
"=  c #AE607B",
"-  c #A66878",
";  c #B5617B",
":  c #BC637B",
">  c #AD7176",
",  c #AA7876",
"<  c #A47379",
"1  c #A97478",
"2  c #B67C77",
"3  c #B97F78",
"4  c #DB6A6E",
"5  c #DF7A6F",
"6  c #C2637B",
"7  c #CE657E",
"8  c #C66B79",
"9  c #CE697C",
"0  c #D66870",
"q  c #D1667E",
"w  c #D06A7B",
"e  c #DC6C7C",
"r  c #C27779",
"t  c #C67979",
"y  c #CB7B7A",
"u  c #D77479",
"i  c #DD717A",
"p  c #DF7D78",
"a  c #E2736F",
"s  c #E37D6E",
"d  c #E97D6F",
"f  c #E06F7B",
"g  c #E77D76",
"h  c #EA7D74",
"j  c #E3747A",
"k  c #E37A78",
"l  c #ED7D7D",
"z  c #B38077",
"x  c #B58877",
"c  c #C28676",
"v  c #CF9974",
"b  c #D29B74",
"n  c #E4806E",
"m  c #E9836F",
"M  c #ED8D6F",
"N  c #F08E6F",
"B  c #F4966F",
"V  c #F69C6F",
"C  c #F89E6F",
"Z  c #E68374",
"A  c #ED8474",
"S  c #ED8B71",
"D  c #EF837E",
"F  c #EF8C7D",
"G  c #F08674",
"H  c #F28D73",
"J  c #F1877A",
"K  c #F18C7A",
"L  c #EF977E",
"P  c #F49372",
"I  c #F69B72",
"U  c #F89E70",
"Y  c #F1927B",
"T  c #F19A7C",
"R  c #F9A26F",
"E  c #FAAC6F",
"W  c #FBB36F",
"Q  c #FDBD6F",
"!  c #E2AF73",
"~  c #EAAB71",
"^  c #F7A271",
"/  c #F8A471",
"(  c #F3AF70",
")  c #FBAB71",
"_  c #F4A57B",
"`  c #F5AC7A",
"'  c #EAB572",
"]  c #F3B373",
"[  c #FDB471",
"{  c #FDBB71",
"}  c #F6B379",
"|  c #F8B578",
" . c #F7B879",
".. c #FEC36F",
"X. c #FEC371",
"o. c #FECC71",
"O. c #FFD271",
"+. c #5577AF",
"@. c #557DAC",
"#. c #577AB0",
"$. c #597BB1",
"%. c #5B18ED",
"&. c #5C2CE8",
"*. c #722CE0",
"=. c #6059DD",
"-. c #6379CE",
";. c #626DD4",
":. c #6476D4",
">. c #BE5B9F",
",. c #BC5AA0",
"<. c #B654B1",
"1. c #BE60AB",
"2. c #CF429B",
"3. c #D1449B",
"4. c #D24C98",
"5. c #D45597",
"6. c #D75895",
"7. c #CD628F",
"8. c #D9678A",
"9. c #DE688C",
"0. c #CF6290",
"q. c #CE6C96",
"w. c #D76293",
"e. c #D96294",
"r. c #E06A8A",
"t. c #E47586",
"y. c #EC7782",
"u. c #E57E87",
"i. c #EC7A82",
"p. c #E2748E",
"a. c #E57A8A",
"s. c #8D3DCD",
"d. c #903FCE",
"f. c #8236D9",
"g. c #9E47C6",
"h. c #9240CE",
"j. c #A54AC1",
"k. c #5B87B2",
"l. c #5F8DB6",
"z. c #608EB7",
"x. c #6090B7",
"c. c #6995BB",
"v. c #6A99BF",
"b. c #6C9EC2",
"n. c #729EC2",
"m. c #6EA0C4",
"M. c #73A3C6",
"N. c #74A3C7",
"B. c #72A5C8",
"V. c #74A7CA",
"C. c #75A9CB",
"Z. c #79ABCD",
"A. c #7BAFD0",
"S. c #7FB2D3",
"D. c #EB8283",
"F. c #ED8B81",
"G. c #EF9080",
"H. c #F09980",
"J. c #80B3D3",
"K. c #80B3D4",
"L. c #84B6D5",
"P. c #86B9D7",
"I. c #8BBDDA",
/* pixels */
"S.J.K.S.S.b.c.%.%.%.<.4 h h ) ) ) b . . . 6 q q q q 7 7 7 q q q 7 7 7 O .   2 ) R U A A 4 0.%.%.%.-.v.Z.S.J.J.S.S.S.S.S.",
"M.N.M.N.M.:.;.%.%.%.<.4 S N ) ( b x . @ ; u p p p p p k p p p p p p p 8 :   < v ~ ) B S 4 7.%.%.%.=.:.b.M.M.M.M.M.M.M.M.",
"@.@.@.@.@.&.%.%.%.%.<.4 P B [ ~ . . . 9 e A H P P P P P P P P P P P H g j   . . b [ V P 4 0.%.%.%.%.%.+.@.@.@.@.@.@.@.@.",
"b.b.b.z.@.&.%.%.f.,.8.a / [ 1 < . @ 9 Z S P I ) ) ) ) ) ) ) ) ) ) / P H G w ; . % , ~ ) h e >.g.%.%.%.+.k.b.b.b.b.b.c.k.",
"M.B.B.z.@.&.%.%.d.4 a d ) {   . . ; e S P P U [ [ [ [ [ [ [ [ [ [ / P H H f 6 . . . ' ) d a 4 <.%.%.%.#.l.B.B.M.M.M.v.l.",
"B.A.K.c.@.&.%.%.d.4 M V [ {   O j g H H H [ { X.o.O.O.O.O.O.O.o.X.{ [ P H H A e # . ' [ I M 4 <.%.%.%.#.z.S.S.B.B.B.b.l.",
"B.A.K.c.@.&.%.%.h.4 M V ] ] O = j A H P P [ { X.o.o.o.o.o.o.o.o.X.{ [ U I H A j : O ! ] V M 4 <.%.%.%.$.x.L.S.B.B.B.b.l.",
"B.A.S.c.@.&.%.%.h.a M V -   e i H P H ) [ [ X.O. .i.i.i.i.i.i.` O.o.X.[ [ H P H k e o   ^ M 4 <.%.%.%.$.c.S.A.B.B.V.b.l.",
"V.S.L.v.@.&.%.j.1.m V E &   e i P P ^ [ { X.X. ._ y.D D D D y.L | X.o.{ { ^ U H j e O . ) V s q.j.*.%.$.c.P.S.C.C.C.b.l.",
"C.L.I.n.@.&.%.4 s P W { 1   e j P / [ { { o.X.i.i.i.K H H H y.y.y.` O.X.X.[ [ P k e O . { [ B m 4 s.%.$.c.I.P.C.C.C.m.z.",
"C.L.I.n.@.&.%.4 s I W { r # g A / ) [ X.o.} T i.D K t.r.9.t.K D i.F._ X.o.X.{ ) S h ; + X.W B M 4 s.%.$.c.I.P.C.C.C.m.x.",
"C.L.I.n.@.&.%.4 s U W X.y 6 G H [ { { o.O.H.i.i.D P 9.3.3.w.P K i.i.i.X.O.X.X.[ I G 6 @ X.W B M 4 s.%.$.c.I.P.C.C.C.m.x.",
"C.L.I.n.@.&.%.4 n V W X.y 6 G H [ Q o.` G.D.D.Y D.e.4.3.2.4.e.u.P K i.F F O.o.[ I G 6 @ X.W B M 4 s.%.$.c.I.P.C.C.C.m.z.",
"C.L.I.n.@.&.%.4 n C W X.y $ G H W Q o._ i.y.D U F.3.2.2.2.3.3.a./ Y y.i.y.O.o.{ U G : @ X.W B M 4 s.%.$.c.I.P.C.C.C.m.x.",
"C.L.I.n.@.&.%.4 n U W X.y : G H [ Q o._ i.P K 3.3.3.2.2.2.2.3.3.3.a.I D y.O.o.{ U G : @ X.W V M 4 s.%.$.c.I.P.C.C.C.m.z.",
"C.L.I.n.@.&.%.4 n U W X.y $ G H [ Q o._ i.I K 3.3.2.2.2.2.3.3.3.3.a.I D i.O.o.{ U A : @ X.W V M 4 s.%.$.c.I.P.C.C.C.m.x.",
"C.L.I.n.@.&.%.4 n C W X.y $ G H W Q o._ i.P Y 3.3.2.2.2.2.2.3.3.3.a.I D i.O.o.{ I A : @ X.W B M 4 s.%.$.c.I.P.C.C.C.m.x.",
"C.L.I.n.@.&.%.4 n C W X.y $ G H W Q o._ i.K K p.e.2.2.2.2.3.3.e.p.D.Y D y.O.o.[ I G : @ X.W B S 4 s.%.$.c.I.P.C.C.C.m.z.",
"C.L.I.n.@.&.%.4 n C W X.y $ G H ) Q o._ i.l D P D.3.2.2.2.3.3.a.P K i.i.y.O.o.[ I G : @ ..W B S 4 s.%.$.c.I.P.C.C.C.m.z.",
"C.L.I.n.@.&.%.4 n V W X.y $ G H ) Q X. .| F D K D i.6.3.3.5.y.D K D i._ } X.X.[ P A ; @ X.W P S 4 s.%.$.c.I.P.C.C.C.b.z.",
"C.L.I.n.@.&.%.4 s V W X.t $ A H ) W { o.O.T l i.J P e.3.3.w.P K i.i.i. .O.[ { E P h ; @ X.W B M 4 s.%.$.c.I.P.C.C.C.b.z.",
"C.L.I.n.@.&.%.4 s V W Q > X f k P / [ { X.X. .i.l D F K K K l i.i._ o.X.X.[ ) P g e + X X.W P S 4 s.%.$.c.I.P.C.C.C.b.l.",
"C.L.I.n.@.&.%.0 5 P E [ & . f k P U [ { { o.X.F D l H P P H i.D.F.` o.X.{ ) ) P h e O . { ) N Z 0 s.%.$.c.I.P.C.V.C.b.l.",
"C.L.I.n.@.&.%.%.h.4 M U *   e j H H H / [ { X.O.| l l l l l i.` o.o.{ ) ) G H H k e O . I S 4 <.%.%.%.$.c.I.L.C.V.C.b.l.",
"C.L.I.n.@.&.%.%.h.4 M R c , 6 9 A A H U / [ X.o. .T T T T T T } o.X.[ ) / H H A u 8 3 z I M 4 <.%.%.%.$.c.I.L.C.V.V.b.l.",
"C.L.I.n.@.&.%.%.h.4 M R { X.  O e k H G G ) [ { X.O.O.O.O.O.O.o.{ [ ) H A G h e # . ' { U N 4 <.%.%.%.$.c.I.P.C.C.V.b.l."
};
