/* XPM */
static char *result[] = {
/* columns rows colors chars-per-pixel */
"64 64 167 2 ",
"   c #7B4E76",
".  c #7D4C7B",
"X  c #7D5374",
"o  c #7E5973",
"O  c #7E5179",
"+  c #804E7E",
"@  c #815C74",
"#  c #82537C",
"$  c #855B7A",
"%  c #885C7D",
"&  c #846374",
"*  c #896777",
"=  c #876873",
"-  c #8A6C75",
";  c #876179",
":  c #8B657C",
">  c #8E6C7A",
",  c #906D7D",
"<  c #8E7275",
"1  c #8F7178",
"2  c #917576",
"3  c #947A77",
"4  c #93747B",
"5  c #967C79",
"6  c #997C7C",
"7  c #988077",
"8  c #978078",
"9  c #9B837A",
"0  c #9E897A",
"q  c #A0877E",
"w  c #A28D7C",
"e  c #A5927D",
"r  c #A9967E",
"t  c #AB9A7F",
"y  c #7F4A80",
"u  c #824A84",
"i  c #864A8A",
"p  c #894A8E",
"a  c #865382",
"s  c #895485",
"d  c #8B5B84",
"f  c #8C538B",
"g  c #8E5A88",
"h  c #915E8A",
"j  c #8C4A93",
"k  c #8F4A98",
"l  c #904B97",
"z  c #934B9B",
"x  c #994F9F",
"c  c #8F5390",
"v  c #925593",
"b  c #955A93",
"n  c #995B97",
"m  c #99529D",
"M  c #9B5B9A",
"N  c #8E6481",
"B  c #926A81",
"V  c #96618F",
"C  c #9C6F8C",
"Z  c #967181",
"A  c #9C7587",
"S  c #9D7A84",
"D  c #9E7689",
"F  c #9A6194",
"G  c #A27F87",
"H  c #A0758D",
"J  c #A47E8B",
"K  c #974CA0",
"L  c #9B4DA5",
"P  c #9E4DA9",
"I  c #9D53A2",
"U  c #A14EAD",
"Y  c #A053A7",
"T  c #A258A6",
"R  c #A353AC",
"E  c #A759AC",
"W  c #A54FB1",
"Q  c #A750B4",
"!  c #A951B5",
"~  c #AE59B5",
"^  c #AD52BA",
"/  c #B153BE",
"(  c #B15ABA",
")  c #B454C3",
"_  c #B856C6",
"`  c #B659C1",
"'  c #BA5CC7",
"]  c #BC56CC",
"[  c #BD59CA",
"{  c #BF57D0",
"}  c #BF5CD0",
"|  c #AC72EE",
" . c #AD74F0",
".. c #B176F5",
"X. c #B67AFB",
"o. c #BD7DFE",
"O. c #C057D1",
"+. c #C359D4",
"@. c #C85CD6",
"#. c #C75AD9",
"$. c #CB5BDD",
"%. c #C362D7",
"&. c #C365DF",
"*. c #CE5CE1",
"=. c #D25EE5",
"-. c #D55FE9",
";. c #C565E0",
":. c #C866E3",
">. c #C768E6",
",. c #CD6AEC",
"<. c #D562E6",
"1. c #D761EA",
"2. c #DA61ED",
"3. c #D169EE",
"4. c #DD63F2",
"5. c #D46BF2",
"6. c #D86DF7",
"7. c #D36FF9",
"8. c #D96FFB",
"9. c #CD71F6",
"0. c #C675F9",
"q. c #CA74FA",
"w. c #C47EFF",
"e. c #CC7DFF",
"r. c #D376FD",
"t. c #DC76FF",
"y. c #D37AFF",
"u. c #D978FF",
"i. c #E166EF",
"p. c #E264F5",
"a. c #E867F7",
"s. c #E168F4",
"d. c #E869F6",
"f. c #E566F9",
"g. c #E867FC",
"h. c #E56AFA",
"j. c #EC6BFD",
"k. c #F16DFF",
"l. c #E473FF",
"z. c #EB71FF",
"x. c #F070FF",
"c. c #A28384",
"v. c #A68C82",
"b. c #A6838A",
"n. c #A8868B",
"m. c #A79180",
"M. c #AB9582",
"N. c #AD9B81",
"B. c #B19E84",
"V. c #B39C88",
"C. c #AFA081",
"Z. c #B3A483",
"A. c #B8A786",
"S. c #B6A984",
"D. c #BAAD85",
"F. c #B7A28A",
"G. c #B9A688",
"H. c #BCAB89",
"J. c #BEB287",
"K. c #BFB288",
"L. c #C0AE8C",
"P. c #C0B587",
"I. c #C2B689",
"U. c #C5BB89",
"Y. c #C8BF8B",
"T. c #CBC38C",
"R. c #C680FF",
/* pixels */
"<.@.) W ! { 4.k.l.e.0.0.9.r.r.6.5.5.,.>.&.%.+.[ R v d : S S A A G S - < 3 w t 8 - = > 6 c.b.n.n.C h n m Y R ! Q R Y l z x Q +.=.",
"$.) P z L ! $.g.l.y.e.w.e.r.l.g.g.g.h.4.i.1.$.^ z u # * < < & ; < w e t e t Z.I.D.Z.r r w 3 1 > @ + s p k z L z l j p u p x / *.",
"] P k p j z ) 4.k.t.y.e.y.t.j.g.p.g.j.j.g.1._ L i   @ < 9 7 < & 2 D.D.q 2 < 8 t I.T.P.w 2 & & & X . + i p l l l i i + + + p Y O.",
"W k i y . p L +.g.j.l.l.l.z.g.$.@.=.2.1.$.] W j   & w S.D.D.t M.Z.Z.9 = @ @ = 9 I.U.t 7 2 * * > @ . u p l l l p u +     . + l W ",
"z i   X   . p P $.p.j.j.j.p.@.W W ^ _ _ ^ P c y * M.N.0 5 5 9 e 9 - : $ # @ * e T.t 5 1 : : * : : d p m x x m p + @ @ & #   u x ",
"p + X @ @ X   p W { =.-.$._ U j f z I K m k a Z Z.e * @ @ @ @ @ X $ d # O o - Z.P.5 = $ % % @ X # g n T E E I c # @ & = @ @ + p ",
"+ X @ = & @ X   p L ! ^ W K p # O y a i a d 8 D.w @ X   u #       # # # O X - S.D.- X + # # +     i x E ~ ~ I c + @ @ = & @ # + ",
"  X = < 3 3 - X . y p j p u X - 3 & ; ; - m.J.w o . y u i i .       X X X o < D.t @   . u +     . u z W Q W z u   @ = = = @ X   ",
"  o - 5 w w 9 @   . y y y   o 0 S.0 2 8 t T.S.= . y y i y y X o & o X o & - N.J.2 X y p j p i . u z ! ] O._ P j   @ & - - & @   ",
". X - 9 r e 2 o   . . y . . & C.J.C.e C.K.U.e & X . y y .   & r Z.w 3 3 w D.J.3 O i z P ! Q L j z ^ $.p.g.4.@.L i   & - - @   + ",
".   = 6 e w < o     .   X X < D.T.T.K.T.T.J.r 3 & o X o o - S.J.S.U.P.Y.Y.D.2   p L _ $.-.=.[ Q ^ =.j.z.j.j.f.] z + @ & & X + u ",
"p . @ 3 v.9 - o X       X = e T.T.T.T.T.T.T.T.J.D.e 8 5 e J.Z.= & < e t w =   i L +.4.j.j.j.g.=.1.j.z.l.t.l.k.<.Q j # % @ + + p ",
"j + # 2 0 9 > @ o X o o & 0 J.Y.K.T.T.J.N.0 0 0 C.K.T.U.J.e = . .   X X X   i L +.g.x.l.l.l.j.j.k.z.u.e.y.y.z.d.O.x f % $ + i l ",
"p u @ 4 c.n.S - & & - 3 r J.T.Y.T.J.w - o o X X o - 3 3 - O . p j u . . y p L +.h.j.t.e.R.y.t.z.z.y.R.w.R.y.l.j.$.E c g # + u j ",
"p u $ 6 M.V.M.0 7 0 t J.T.T.P.J.e - o O O . y y . . X X . y j U Q L k j k U +.g.z.u.e.o.o.o.e.t.t.e.R.R.e.y.l.k.<.~ M h % s i p ",
"u a : v.F.H.I.U.J.U.T.P.t 0 < - o   . y y i j j j p y y i k Q #.*.{ ^ Q ^ +.p.z.y.w.X.| | ..w.e.y.e.e.e.y.l.x.k.<.( M h h s a p ",
"# , v.B.M.B.G.Y.T.U.C.8 - o X   . . y j k L P P L k p i j K ] 4.p.*.) ^ ) $.h.z.y.o... ...w.e.u.t.t.t.t.z.z.k.p.[ I f N B B d O ",
"3 e 9 - & & 6 I.J.9 = o X   . . y p k L W ) ) ^ P z p p i K ) -.4.#.! P P ) -.j.l.e.w.w.w.R.l.j.k.z.z.j.j.j.2._ I i X X & 1 6 4 ",
"e 6 < > @ & w U.w o X . . y y y y k W ) { #.+._ W k i y i j Q *.*.^ K k k L _ p.j.l.y.y.t.l.j.p.4.g.j.g.2.#.) z u X & 3 9 9 8 e ",
"m.9 4 - - 3 Z.D.- X . . i i i y p L ) { -.-.*._ L j y . y i L ) _ L p i u j L +.f.k.z.z.j.j.4.{ ) ] $.+.) Q k u o 2 N.A.N.m.e M.",
"< = o @ = 5 I.Z.@   u p p k p i j U { -.4.4.*.) z u .     . j P U k . .   . i L [ 4.h.g.p.=.) K k L L P z j . X 5 J.e < & & - < ",
"& o X X @ 3 I.r X . i j K z j i j W { -.4.4.#.W p .   X X . y k k y   X X X . p P ) +.@.{ ! l u . u i i y   o 0 I.e = X X   X & ",
"& @ $ @ * 9 J.e X . p z K K k u i P ) *.2.*.) K y X o o o X   . . X o - - = o   u z L P K j   X o X   X X & e J.9 @ O . . . O & ",
"* $ % : 4 m.I.e X y i z K z j u y K ) *.*.{ W j   o & o & & o   X = < 3 0 w 5 o . y i p u . o 7 e 2 = - 8 D.I.5 o a s s d # $ = ",
"q 6 6 v.V.H.A.4   p z ! ^ ! K p j U { 2.2.$.^ k . X & @ & o o   X & 7 t S.Z.e - X   . . .   & S.U.Z.e t J.Y.e @ . a g g : : 4 0 ",
"N.r M.B.A.t - X i P ] =.2.=._ U U *.f.g.k.g.@.P i   o o & o o     @ 9 S.J.J.0 &     .     X < J.T.T.J.U.T.D.3 o X O $ : , 6 0 N.",
"6 q 9 w 6 = X u L @.4.j.x.k.2.{ +.p.k.j.x.k.p.) k . X o o X . . . o 3 Z.J.D.0 & X     X   & 0 T.T.T.T.T.T.J.Z.0 < & o = - 8 m.9 ",
"@ - 4 - & @ s L O.a.k.l.l.z.j.p.p.j.j.t.l.j.g.#.L u   X X   . y . X < Z.J.S.8 & X   X o o 2 J.T.J.Y.T.T.T.P.K.U.J.B.q 0 w m.6 O ",
"i u : : : g m [ g.j.t.e.e.t.z.k.k.z.t.y.l.z.j.=.W j .       . y . o 3 t D.S.e - = o o - 8 Z.T.J.D.T.J.r 5 < - < 0 N.A.Z.m.4 # i ",
"L l u a s z ( 2.z.y.w.w.o.e.u.z.z.l.u.l.l.z.k.-.! j .       . y . o 2 t J.J.t 0 2 2 7 t J.T.T.T.Y.r < o X   . X O $ ; : $ u j L ",
"+.^ L z L ^ $.d.t.w.o.X.o.R.y.z.z.l.l.l.z.k.j.=.! j . .       .   X 3 t T.T.U.D.S.S.P.T.T.J.t t 5 o X X . y u i u a u u u k Q { ",
"i.$._ ^ ) $.p.l.y.w.o.o.R.R.u.z.x.x.z.k.k.g.-.O.U j . .         X = e Y.T.T.T.T.T.T.P.t 9 - & o X . . i p k z K K z l l L ! @.p.",
"g.-.] / ) $.p.h.y.e.e.e.y.t.l.k.j.j.g.f.3.*.] Q k y o o & & & o = t P.S.r r t T.T.C.8 = o X .   . u p z L U ) ! Q P L K P ) =.g.",
"f.$.^ P L ! $.g.j.l.t.t.z.k.j.2.=.-.-.$.{ ) L p . o 2 t D.D.S.C.J.J.7 & & = r T.t - o X .   . . y k L W ) { { ) ! P z k z W +.f.",
"-./ K j p z ! *.g.k.k.k.j.g.*.) ! ^ ^ W L k i O & w K.J.C.C.S.J.t < o X o < J.J.< X . . u i i i i K ) { *.-.-.{ ! K j y i K ) -.",
"_ K p . . i k ! +.4.p.p.-.O.Q k j k k j p y o o N.K.w - o o = < < & o o o 7 T.t @ . y i j j j p k W { -.4.f.-.{ U k y y y i P ] ",
"P i .   X   u j L / ) ) ^ L p . . .   . X o - S.D.2 X   .   X o 8 o o o - w T.0 X . i j z K k p k ! *.4.f.f.-.) K i     . . p L ",
"p . X @ & & X   i k z z k i   @ & X X o = 0 J.Z.- O y y . . X < 7 < o o - r T.7 X . p z L L z p z ! *.p.g.p.*.! z y X X     y p ",
"  X - 9 e w 3 @   . u u X X & r S.t 0 t S.J.N.&   y y y .   o 2 0 < o < 7 t T.7   y p L P P z i j W #.2.p.-.{ L u X & - - & . . ",
"X < e Z.D.I.I.t - @ X X o 7 t J.Z.I.U.U.S.9 o     . . .   X o 0 t 7 8 0 t J.T.0 X y k L W P k i i L ] *.-.{ Q j   @ < 3 3 3 & X ",
"@ 9 Z.S.Z.H.P.I.0 - o = < t T.w 3 9 e e 0 8 2 = o X X X X o 0 J.U.U.t U.Y.T.S.- . p L ) ) ^ L j j Q $.2.4.$.^ k + @ - 5 9 q 2 X ",
"X 9 Z.Z.B.t P.U.e < < < w Y.J.< = 3 r S.U.U.J.S.w < & = 2 r J.t 0 t T.T.I.t -   p W +.-.p.1.] U W $.g.k.j.g.@.U i $ = < 9 9 < X ",
"X 3 Z.M.w r D.Y.S.w w t J.T.t < 3 S.U.S.e 0 e t J.J.D.C.J.J.w o o o 7 w 3 &   p R $.g.j.x.k.2.+.+.f.k.z.j.k.4./ j # & - 3 6 -   ",
"X 4 B.e q w L.Y.T.J.U.T.T.T.U.D.J.S.5 & X o o o < e S.J.Z.8 o y O   o o X . p P $.g.z.l.t.z.j.p.p.j.l.l.l.x.g.O.m s $ & 2 3 * O ",
"# 6 t e 5 6 t U.T.T.T.T.Y.D.D.H.e = X . . . y . . X & & @ O u k z i + . . i L O.g.z.u.y.R.u.l.k.k.z.l.t.l.z.j.#.Y f # @ > 3 * # ",
"$ q t 6 1 1 9 B.U.T.U.t 3 - = @ X . . i j k k j p y . . . u z ^ ) R k j j L ] p.z.t.w.w.R.y.l.x.k.z.t.l.j.k.g.$.U p # @ * 4 , @ ",
"> w e 2 = = 9 P.I.e < @ X X     . i k z U ! ) ! P k j p j K _ 2.4.#.^ W W _ -.j.t.w.w.o.o.e.t.z.x.z.z.z.k.j.p.+.Y p + X @ 2 4 & ",
"6 e 5 - - q L.t 3 o X . . y u i p L U ) { #.=.-.#.) W P W _ 2.j.j.g.:.O.O.-.j.j.y.R.w.w.R.y.t.z.x.k.k.j.g.p.*.) x s $ X @ > 6 6 ",
"r e 5 3 0 D.t < @ + y y i j k k L / +.-.4.g.j.g.2.+.) W ^ { 4.j.k.g.*.O.O.=.g.j.u.e.e.y.t.l.k.k.j.g.p.4.*.{ ^ L p # ; - 2 2 8 e ",
"L.t t t D.U.e @ + + p j z U U U ^ #.4.g.j.k.k.j.2.] W L L ) -.j.g.=.) W U / :.h.z.z.l.j.j.k.f.-.+.$.#._ ) P z i O & e D.J.D.D.J.",
"L.A.t t U.U.3 X + i k U ! / / ! ) -.j.k.k.k.k.g.*.^ K j j L ] 2.-.] K k j z ! +.f.k.k.k.g.2.O.W L P U P z p y X = N.U.Z.e m.Z.D.",
"t B.t B.P.t <   + p U / O.O.O.^ ] 4.k.k.k.k.k.p.{ K j y y j P ] _ L i + + u k P _ =.1.-.$._ L p i i j i y . o < Z.S.8 < 4 3 q e ",
"r t M.V.L.t < @ i K ! O.#.$.O.! ) 4.j.k.k.k.g.=.W j . .   . i L K p     X X . i K U ^ ^ U z i + X .     X o 9 J.N.= = : : 4 9 e ",
"t r V.V.L.t -   u K ) #.=.*.O.W Q *.g.k.k.k.p._ z y X X X X . i p   @ - < < o X u j k k p +   @ < & & & 3 C.J.e @   d N B S 9 M.",
"t t B.B.L.L.3 # u z ) #.*.#.! K L ] p.j.k.p.+.Y y . o & & & X     & 9 t S.S.e - X . . .   @ 3 D.J.J.Z.J.U.J.0 &   . d B B 4 w Z.",
"t B.L.t A.t 3 @ y z ! O.+.) U j k Q $.4.-.#.! p . X - < 2 3 - o = w U.T.T.T.T.D.5 & X o & q P.t e C.D.S.e < & X   O % : 4 6 w Z.",
"M.r r r w 9 & X i L _ *.=.@.W z z ^ $.-.-.@.R p X @ 2 9 w w 3 & - S.Y.U.L.t I.T.Z.3 & - 9 P.D.2 & > 6 q m.e q 2 @ X @ - 2 6 r t ",
"- 9 7 5 < & @ u z O.2.g.a.2.O.U U O.-.p.i.$.^ v # @ < 0 e w < @ - t I.B.w w t T.D.w 5 w Z.I.r & @ 3 M.I.I.L.L.L.m.3 - < 3 q w > ",
"+ @ , < - @ + l ) p.g.j.h.a.<.) _ $.i.i.2.*.( x $ @ = 7 w q = @ & r H.e 4 5 t T.Y.S.t S.L.S.q 2 5 Z.V.c.Z , : 6 M.B.M.m.e 9 & + ",
"l u # $ @ + p ! -.g.j.g.l.h.g.$.@.-.i.i.i.*./ x + @ 2 9 0 5 2 - 2 r Z.6 < 2 w P.T.U.P.D.D.S.B.t B.9 ; # + i + + @ 1 6 0 4 @ u j ",
"U l u + u p Y @.g.z.t.y.t.l.j.2.-.p.j.g.i.*./ z + # = w e e 5 - w t t 3 - = 3 e I.T.J.Z.e q 7 5 - X . + i p p u u . # @ + + k U ",
"O.Q z j j L _ p.j.t.y.e.y.l.j.g.p.j.j.g.a.=.O.x p + @ < q 5 < & 5 J.P.9 2 2 5 t U.Y.t w < & @ @ @ . u i k z z k p u + + u j U O.",
"<.[ U L L / <.d.l.y.q.e.q.t.z.h.s.h.p.i.-.$.O.E z + @ = 6 5 < > 6 t w w q w t U.S.e 9 9 6 , , : % a p k x Y U Y K z j i l L ] -.",
"1.$.) ^ ^ +.i.h.t.y.q.9.7.7.t.5.3.,.>.&.%.O.O./ R v % , G G G G n.q - = 2 w r 5 & @ & , G J J J H n n Y R ~ ( / ! U m x L ^ @.<."
};
