/* XPM */
static char *a12e39519a8c4ef786364c9496a2f987ELw0wUo1SMM9aZoX[] = {
/* columns rows colors chars-per-pixel */
"54 34 170 2 ",
"   c #7B4E77",
".  c #7D4C7B",
"X  c #7D5375",
"o  c #7E5973",
"O  c #7F5179",
"+  c #804E7E",
"@  c #815C74",
"#  c #82557B",
"$  c #875B7D",
"%  c #846374",
"&  c #896777",
"*  c #876873",
"=  c #8A6C74",
"-  c #876179",
";  c #8B657B",
":  c #8E6C7A",
">  c #916C7E",
",  c #8E7275",
"<  c #8F7178",
"1  c #917576",
"2  c #947A77",
"3  c #94747B",
"4  c #967C79",
"5  c #997C7D",
"6  c #988077",
"7  c #978078",
"8  c #9B847A",
"9  c #9E897A",
"0  c #A28C7C",
"q  c #A6937D",
"w  c #A8967E",
"e  c #AB9A7F",
"r  c #7F4A80",
"t  c #814A83",
"y  c #864A8A",
"u  c #894A8E",
"i  c #855283",
"p  c #8B5B82",
"a  c #8A5189",
"s  c #8C4A93",
"d  c #904B97",
"f  c #934B9B",
"g  c #994F9F",
"h  c #945594",
"j  c #9A5A99",
"k  c #8F6681",
"l  c #936A82",
"z  c #967181",
"x  c #9E7B85",
"c  c #9A6194",
"v  c #A17F86",
"b  c #A0758D",
"n  c #A47E8B",
"m  c #974CA0",
"M  c #9B4CA5",
"N  c #9E4DA9",
"B  c #9C53A2",
"V  c #A14EAD",
"C  c #A352AB",
"Z  c #A54FB1",
"A  c #A750B4",
"S  c #A951B6",
"D  c #AC58B3",
"F  c #AD52BA",
"G  c #B153BE",
"H  c #B058BA",
"J  c #B454C3",
"K  c #B855C7",
"L  c #B659C1",
"P  c #BA5CC7",
"I  c #BC56CC",
"U  c #BF57D0",
"Y  c #BE5FD0",
"T  c #B67AFC",
"R  c #BD7DFE",
"E  c #C057D1",
"W  c #C359D4",
"Q  c #C85CD6",
"!  c #C75AD9",
"~  c #CB5BDD",
"^  c #C062D7",
"/  c #C365DF",
"(  c #CE5CE1",
")  c #D25EE5",
"_  c #D65FEA",
"`  c #C768E6",
"'  c #CD6AEC",
"]  c #D662E6",
"[  c #D661EA",
"{  c #DA61ED",
"}  c #D169EE",
"|  c #DE63F2",
" . c #D76CF6",
".. c #D36FF9",
"X. c #D96FFB",
"o. c #CD71F6",
"O. c #CA74FA",
"+. c #C47FFF",
"@. c #CC7DFF",
"#. c #D177FD",
"$. c #DD76FF",
"%. c #D27AFF",
"&. c #D978FF",
"*. c #E166EF",
"=. c #E264F5",
"-. c #E867F7",
";. c #E869F6",
":. c #E566F9",
">. c #E867FC",
",. c #E66AFA",
"<. c #ED6AFE",
"1. c #EF6FFF",
"2. c #EC6BFD",
"3. c #F16DFF",
"4. c #F06CFE",
"5. c #F16EFF",
"6. c #F16EFF",
"7. c #E772FF",
"8. c #E174FF",
"9. c #E473FF",
"0. c #EB72FF",
"q. c #ED71FF",
"w. c #EB71FF",
"e. c #F070FF",
"r. c #F170FF",
"t. c #A28186",
"y. c #A5818B",
"u. c #A8878A",
"i. c #A79080",
"p. c #AA9581",
"a. c #AD9D80",
"s. c #AD9B81",
"d. c #B09D84",
"f. c #B59F88",
"g. c #AFA081",
"h. c #B1A281",
"j. c #B2A482",
"k. c #B5A783",
"l. c #B3A483",
"z. c #B5A883",
"x. c #B7AA84",
"c. c #B6A984",
"v. c #B8AB84",
"b. c #B9AD85",
"n. c #BAAE85",
"m. c #BAAC85",
"M. c #BCAC88",
"N. c #BCB086",
"B. c #BDB286",
"V. c #BEB287",
"C. c #BFB487",
"Z. c #BEB287",
"A. c #BFB288",
"S. c #C0AE8C",
"D. c #C0B587",
"F. c #C1B688",
"G. c #C2B788",
"H. c #C2B589",
"J. c #C3B889",
"K. c #C7BE8A",
"L. c #C6BD8A",
"P. c #C5BA89",
"I. c #C8BF8B",
"U. c #C8BF8B",
"Y. c #C9C18B",
"T. c #CBC38C",
"R. c #CCC48D",
"E. c #CBC28C",
"W. c #C780FF",
"Q. c #C580FF",
/* pixels */
"R T R +.%.7.q.8.8.7.q.5.2.( F s .         .   o 4 v.L.Y.J.n.k.v.F.I.L.B.g.w 4 @ X   . t t t t t t t t s A W ",
"R R W.@.&.w.e.1.1.5.<.>.{ E V s .   X X     X % w I.Y.R.Y.R.Y.Y.F.g.8 = % @ X   . y y s f m g f d d m S ~ =.",
"@.@.%.$.7.5.<.5.<.:.| ( I Z d t X @ % % % @ = e J.z.w w l.L.I.g.7 = o X     . t s d M Z F F Z N m m N J ) >.",
"$.$.w.5.<.{ ) _ ) ~ I F M s . X , e n.n.k.e B.B.8 % % = w I.a.= o X   . . . t s M A J I W K F N d s f Z W :.",
"5.5.<.:.) J S F F Z N d y   @ 0 F.B.h.g.x.B.h., o o o , B.C.1 X   . t t y y u m F U ~ ) ) W F f s y u f G _ ",
"=.=._ W A s s s s s u r X * e F.0 = @ @ % , = % o o % 8 L.e %   t y s s s s s Z E _ | :.{ W V s t . . u N K ",
"K J F N u .   . .     X , k.n.1 X   .   X % = % o o * 0 I.0 X . y s f f d u d S ~ | >.>._ K m y       . u N ",
"f f s y   @ % o o o % 8 B.l.= X . r r   X , 6 = % @ = w Y.8 X . u f N M d s d S ( :.>.:.~ F d . X o o X . s ",
"t t   X % w x.e 9 e x.J.e *   . t r .   o 2 0 = % = 2 h.Y.8 X r s m V N f y s Z W { =._ I M t O % = = % X . ",
"X X o , v.D.k.F.P.P.k.8 % X   . .     X @ 8 e 8 2 9 e F.Y.8 X . s N V N s y y N K ( _ W A u   @ , 2 4 2 % X ",
"o % , h.I.0 1 8 q 0 9 7 1 * o X X X o % 8 B.L.B.z.B.I.Y.z.= . u N G J F M s s S ! { | ~ F s . @ = 4 8 0 , o ",
"= 1 0 P.C., * 2 w n.P.L.J.n.q = % % , w D.w 9 z.L.Y.J.e =   u A W { =._ I V Z ~ >.5.5.:.! V y @ * 1 8 8 , X ",
"0 e D.Y.a., 2 k.P.k.q 8 0 h.C.C.x.k.B.P.0 @ X * 4 0 2 %   u Z ~ >.1.5.<.| W W :.5.q.q.5.| G s # % = 1 4 & X ",
"J.Y.R.Y.F.x.C.v.4 % X X X @ = q v.B.l.2 X . t   X X X   u N ! >.q.8.8.7.1.=.=.1.w.$.7.5.>.W B i @ * 1 2 & O ",
"R.R.L.B.v.n.q = X   . . . .   X % * @ X t s f u r . r y M E >.w.&.%.@.&.7.1.5.q.$.$.9.1.2.! C a # @ : 2 ; X ",
"C.w 4 = % % o   r y s d d s y t .   . t f F J V s s s M K =.q.&.+.+.+.@.$.e.5.w.8.8.w.5.>.~ V a # @ & 3 > @ ",
", % X X     . t s f V S G F N d s u s m K { | ! F V Z K { 1.8.@.R R R @.$.q.e.w.w.1.5.<.=.W C u . X % 3 5 % ",
"X   . t t u s m Z J I ~ _ ) ! J Z N Z K { 1.5.:.) E W _ <.7.%.W.+.+.@.%.$.q.5.5.5.<.>.| ( J m a # o o = 5 2 ",
". t y s s d N G W ) | :.<.>.{ W G Z F W =.5.5.>.( U I ) 2.1.&.@.@.%.$.7.1.<.2.>.=.{ ( W F M u # * = 1 2 8 0 ",
"u s f N V V S ! | 2.<.5.5.2.{ K V N N G ) <.2.) K Z V G ( :.1.7.7.w.1.5.:.) W ~ W K F V d y   % 0 n.n.n.n.B.",
"f N S J J S K [ <.5.e.e.5.2.( F m s s M K _ { K M s s f S W =.<.5.<.2.| W A M V V N d u t X * a.J.h.q q h.n.",
"V J I E I F K | <.5.q.q.5.=.I M s t t s N I K M u . . t s V I ) { [ ~ K M s t u s y t   X , k.z.8 1 < 3 0 w ",
"F U ~ ~ I F K { <.5.q.5.<.) A s .     . u N m y   X X X . u m Z F F V f y   X       X @ 8 B.s.* % ; > 3 8 w ",
"J ! ) ~ K Z S ~ 2.5.5.<.| K d r X o o X . y y   @ = 1 = @   t u s s u r X % , % % % 1 h.F.q @ O p k l 3 8 e ",
"J ! ( W F m N I | 2.<.=.W N t X @ % % % X     % 8 h.n.v.q = X   . .   X 1 x.F.n.k.B.P.B.9 @     p k l 3 0 h.",
"F U W K V s s S ~ | { ! A s   o = , 2 2 = o % 0 F.R.R.Y.Y.n.4 % o o * 8 F.h.q h.n.x.q 2 % o   O $ ; 3 5 0 l.",
"K ( ) W A d d F ~ { [ W C u   @ , 8 0 0 2 % = x.I.P.n.k.B.Y.h.2 = = 8 A.n., % = 2 9 i.i.0 1 @ o @ = 1 4 q s.",
"{ >.;.{ W V V I { =.{ ~ F h i o = 8 q 0 , o % k.H.h.0 0 h.I.B.9 4 8 k.F.w % @ 1 s.S.H.S.S.M.i.2 = , 2 0 0 = ",
",.,.,.;.[ K K ( *.*.{ ) G f $ % = 8 0 8 = o % s.M.0 3 4 s.L.L.k.s.k.M.x.8 , 4 l.f.t.z : > 5 p.d.p.q w 9 % + ",
"7.9.9.,.-.~ ! [ *.*.{ ) J f t - 1 8 9 8 1 = , e l.8 , 1 0 n.R.P.B.M.v.k.l.h.h.8 - # t t t O @ : 5 9 3 @ t s ",
"$.%.$.7.<.{ _ =.2.>.=.) J f t X = 9 w q 8 = 8 v.l.4 = = 2 w F.Y.C.k.q 8 8 8 = X   t y u u t t   X X O r s V ",
"%.%.%.$.1.:.:.2.<.2.=.) K M y   @ , 8 4 , % 2 B.B.8 1 , 4 e P.L.k.9 , % @ @ X   t u s f f d s y t t t s V E ",
"@.@.#.$.w.,.=.:.| | ] ~ I A d t @ = 5 2 < : 5 p.0 8 8 0 a.D.z.q 8 8 5 3 : ; $ i u d m N V V m f s u s N K [ ",
"O.o.o...X. .} ' ` / ^ Y P L C h p z v t.t.v u.8 = = 1 0 w 4 * @ % 3 x n y.n b c j B C D H F D C g g N F Q [ "
};
