/* XPM */
static char *_be4db9d2feb44f9ad902ae373b19b27Fp6XEiRUD5rekHhj[] = {
/* columns rows colors chars-per-pixel */
"62 30 146 2 ",
"   c #4F3C61",
".  c #593B65",
"X  c #6F316F",
"o  c #633C6A",
"O  c #6B396E",
"+  c #6E3C71",
"@  c #713771",
"#  c #4D4462",
"$  c #574065",
"%  c #832F7A",
"&  c #882F7D",
"*  c #83327A",
"=  c #4B1D96",
"-  c #4D1D9A",
";  c #541E95",
":  c #521E9C",
">  c #5F1F99",
",  c #681F95",
"<  c #631F9A",
"1  c #6D2194",
"2  c #6C229C",
"3  c #742195",
"4  c #7D2296",
"5  c #72229C",
"6  c #7C239D",
"7  c #72289F",
"8  c #4F1EA0",
"9  c #521EA3",
"0  c #541FAA",
"q  c #5D20A2",
"w  c #5620AD",
"e  c #5B20AD",
"r  c #5720B0",
"t  c #5A21B4",
"y  c #5D22BB",
"u  c #6421A4",
"i  c #6C22A4",
"p  c #6421AB",
"a  c #6C23AC",
"s  c #7423A3",
"d  c #7C24A3",
"f  c #7423AC",
"g  c #7A24AA",
"h  c #6322B3",
"j  c #6A23B4",
"k  c #6423BC",
"l  c #6924BA",
"z  c #7324B2",
"x  c #7924B1",
"c  c #5F23C0",
"v  c #6324C3",
"b  c #6924C2",
"n  c #6525C9",
"m  c #852E85",
"M  c #8D2C84",
"N  c #8F278F",
"B  c #8A2B8A",
"V  c #932D85",
"C  c #942B8B",
"Z  c #9C2B8B",
"A  c #8C3281",
"S  c #903182",
"D  c #842394",
"F  c #8B2594",
"G  c #852994",
"H  c #8D2891",
"J  c #85239B",
"K  c #8C249A",
"L  c #932790",
"P  c #922696",
"I  c #952496",
"U  c #9C2696",
"Y  c #922891",
"T  c #962896",
"R  c #972892",
"E  c #9E2896",
"W  c #952798",
"Q  c #94259A",
"!  c #9F2798",
"~  c #9F259A",
"^  c #9E279B",
"/  c #9C269A",
"(  c #A12C8B",
")  c #A32C8D",
"_  c #A32C8D",
"`  c #A02697",
"'  c #A22797",
"]  c #A52895",
"[  c #A72A94",
"{  c #A22A93",
"}  c #AB2B93",
"|  c #AF2C94",
" . c #A32699",
".. c #A3269B",
"X. c #A42799",
"o. c #A72699",
"O. c #A7269D",
"+. c #A4269C",
"@. c #A8269C",
"#. c #AA279C",
"$. c #AE279E",
"%. c #AA279C",
"&. c #A52899",
"*. c #AF2899",
"=. c #AC2899",
"-. c #B32B96",
";. c #B22B95",
":. c #B1279E",
">. c #B02A98",
",. c #B4299B",
"<. c #B4289F",
"1. c #B42A99",
"2. c #BB299E",
"3. c #B92A9D",
"4. c #8523A1",
"5. c #8324A5",
"6. c #8825A0",
"7. c #8C27A2",
"8. c #8F24A5",
"9. c #8A25A2",
"0. c #8224A8",
"q. c #8124AA",
"w. c #8724A8",
"e. c #8726AC",
"r. c #8424AA",
"t. c #8A24A8",
"y. c #8D25AC",
"u. c #9425A2",
"i. c #9E25A1",
"p. c #9025A8",
"a. c #8225B4",
"s. c #A225A0",
"d. c #A325A0",
"f. c #A526A1",
"g. c #AD26A1",
"h. c #A026A8",
"j. c #A526A8",
"k. c #A527AB",
"l. c #A026AD",
"z. c #B727A0",
"x. c #B627A2",
"c. c #BA27A1",
"v. c #A227B3",
"b. c #C02B9E",
"n. c #C329A4",
"m. c #C32AA2",
/* pixels */
"a q 9 9 - = = = = = = - w n f n.c.z.2.) C e.y r k j - = = = = w j.^ l I O.j l a ^  .=.[ a n r = - - - = = - 9 t k p 2 5 K ` ",
"l t 0 0 - = = = = = = = r b d.$.6 s 6.Y * + T z 8.p.- = = - = 9 v.^ F A f r y v i 3 @.<.l y 9 = = = = = = - 9 - 0 r y j K B ",
"h y y t - = = = = = = = w j +.q.v v v b d C C Z L H 9 = - - = 9 j.[ } 7.w - 9 v l i +.@.k 9 - = = = = = = = = = - 8 0 k a 6 ",
"h k v y - = = = = = = = r a D j y v r w y j f Z ;.C e = = = = r d.Z y.h - - - t v f Z H y - = = = = = = = = = = - 9 9 w k l ",
"h k p h 0 = = = = = = = w i 2 j y v y - - 9 t j K >.p = = - = r H G y 9 = = - - y f ( Q w = = = = = = = = = = - - : 9 0 0 p ",
"r r p h r - = = = = - = w l a 2 b n y = = = - 0 t h.a - - - = r D g - = = = - - y q.1.w.: = = = = = = = = = = - - : 9 0 0 5 ",
"9 9 r 9 - = = = = = = - 8 v v a 4.j v - = = = = - t k 9 = - = w a 0 = - = = - 0 k 5 a k - = - - - - = = = = = = - - - - - 2 ",
"- - - = = = - = = - = = - w w k g. .l 9 = = = = = = y w = = = w w - = - = = - c b k v v y w y y y y - - = = = = = - - - - 0 ",
"= = = = = = = = = - = = = - - 9 y.Z 6.y - = = = - = - w - - - 0 - = = = = = r v v k a s j d d f i b 0 - = = = = = = = = = 9 ",
"= = = = = = = = = - - = - y r 0 k Q [ q.y - = = = = = - = = = = = = = = = w k r r y h j j ^ | >. .l y 9 - = = = = = = = = - ",
"= = = = = = = - 9 y y t k s g 0./ { ) :.u.e - = - = = = = - = = - = = - 0 0 - = = - 8 r r j ^ ;.2.f v 0 - - = = = = = = = - ",
"= = = = = = - t v l l l 5 #.n.O.f.+.u.f z h y w = = = = = w - 9 - = - - - - = - = = - - 9 k s z.b.&.l 0 - - = = = = = = = = ",
"= = = = = - t b a K I 4 F $.J l v l y r w - - - = = = = - < 9 w = = - - - = = = = = = - w v j ^ m._ z 9 - - - = = = = = = = ",
"= = = = - - y l D m.;.#.3 2 i v w r 8 - = = = = - - = = = q : - - - = = = = = = = = 9 9 0 v f 2.;.<.j 0 - - - = = = = = = - ",
"= = = = = - y b Q m.M #.i 2 b v : - = = = = = = = = = - - 9 9 - = - = = - - = = - t v l v l / * * @.l 0 - - = = - - = = = = ",
"= = = = - 8 y b 5  .) +.3 a y v 9 - - = = = = = = = = = r - w - 9 - - 9 - - w y k l s O.d Q V X Z g y 9 = - = - - - = = = = ",
"= = = = - 9 r v v j Q F I j v n r - r 9 - - - 9 9 = = 9 9 - 9 = 0 - = - 9 y g +. .O.Z O | 1.>.@.g y - = = = = - - - = = = - ",
"= = = = = 9 0 y t y v l J s l a k y b l k y k y - = = - = = - = = = = - - - w t.m.f.N B K d s h r - = = = = = = - - = = = = ",
"= = = = = = - 9 9 - 9 r k a i / s a +.@.@.a w - = = = = - = = = - = = = = = = w f +.+.x v y t - = = = = = = = = = = = = = = ",
"= = = = = = = = = = = = 0 y k j l l 6  .u.w = = = = = 9 r = = - 9 - = = = = = - r 5.* / l y - = = = = - = = = = = = = = = - ",
"= = = = = = = = = = = = = - - r t l  .=.j - = = = = - h r = = = - y = = = = = = 9 j { ) d b 9 = = - = = = = - - - = - - 9 9 ",
"9 9 - - - = - - - - - - = = = - k f.2.5.v - = = = = w a 9 - = = = t w - = = - - - y f ^ K a r = = = = = = - r y y w w r t y ",
": : : : - = = - - = = = = = = r 8.m.J l w - = = = 9 j x : = = = = t j j e - = = - y v i F s y = = = = = = = 0 h u i u q e v ",
"> > ; - - - - - = = = = = = - k E R a v 0 - - = 9 j O.z 9 - = = - y a U Q h : 9 y v l i +.i.v - = = = = = = 9 k u < 4 2 k p ",
"p p w - = = = = - = = = - - w l C C 5 y 9 - r w h F Z g y - = = - v a 6.>.+.f 5.s 6 4 U V R b y 8 = = = = = = 9 t h 3 2 h g ",
"a l k r - - - 9 - = = = = 9 t j ` 1.u.v y 9 y f T C V ' j - = = - v a l z x.m.+.:.1.V o # Z j n t = = = = = = = 9 t a s i 7 ",
"K i u u y y - 9 - = = = = - t l K 2.6 b n b z Z V 6.V * f 9 = = - k p k r j x.1.* o   . O Q j v t - = - - - - - : : j 6 D F ",
"l.K 1 1 p v 9 - = = = = - - 0 k 5 D i i a 6 =.% u.b m o u.w - = = h p v y v s ^ A @ S ' O.l v w 8 = = - = = - - ; ; i a.4.^ ",
"i , 1 p v v 9 - = = = = = - 8 t a 3 2 Q =.U @.^ j k C $ / y - = - p / a v y y k g ^ Q l l t 0 - - = = - = = = - : ; : p l y.",
"u 1 u y r t - = - - = = = = - w l 2 i ^ =.a l l r y / & ^ k - = 9 w._ K k - 9 0 y k k v y 9 - - - = = = = = = = - ; ; 9 t J "
};
