/* XPM */
static char *_07ccdf3f95b403c9d88e5dd1415ae6bCaTPgGEiy95kidca[] = {
/* columns rows colors chars-per-pixel */
"128 53 234 2 ",
"   c #729C7D",
".  c #7B9C7D",
"X  c #6F987E",
"o  c #74A277",
"O  c #74A17A",
"+  c #7CA47B",
"@  c #829C7E",
"#  c #83A37E",
"$  c #6C7E8F",
"%  c #6C7B93",
"&  c #6B769C",
"*  c #6D7A9C",
"=  c #667897",
"-  c #737C95",
";  c #7B7B95",
":  c #7D769B",
">  c #737B9C",
",  c #7C7C9B",
"<  c #73779E",
"1  c #777F8F",
"2  c #695BAD",
"3  c #775BAC",
"4  c #6B58B2",
"5  c #7455B2",
"6  c #6968A9",
"7  c #7C6CA6",
"8  c #7D65A9",
"9  c #7A6CA9",
"0  c #766AA8",
"q  c #6D7AA1",
"w  c #6977A9",
"e  c #7575A3",
"r  c #7B74A4",
"t  c #737CA3",
"y  c #7C7CA3",
"u  c #7B73AA",
"i  c #7C7AA9",
"p  c #7577AB",
"a  c #6A6AB4",
"s  c #756AB5",
"d  c #6B73B5",
"f  c #7A75B4",
"g  c #82769E",
"h  c #837B9C",
"j  c #8B7B9C",
"k  c #877C98",
"l  c #937C9B",
"z  c #9B7C9C",
"x  c #977B98",
"c  c #A57E97",
"v  c #A5739D",
"b  c #AC759C",
"n  c #A47C9C",
"m  c #AD7B9B",
"M  c #A87E97",
"N  c #B1769D",
"B  c #B0789C",
"V  c #A46F9F",
"C  c #845BAD",
"Z  c #836BA6",
"A  c #8C6EA5",
"S  c #8263A9",
"D  c #8C6EA8",
"F  c #8768A9",
"G  c #946DA6",
"H  c #9C6EA4",
"J  c #936CA9",
"K  c #9765A8",
"L  c #8475A4",
"P  c #8C74A4",
"I  c #847CA2",
"U  c #8B7BA3",
"Y  c #8372A9",
"T  c #8A74AA",
"R  c #827CA9",
"E  c #8C7AA9",
"W  c #9373A3",
"Q  c #9C73A2",
"!  c #947AA1",
"~  c #957CA6",
"^  c #8576B2",
"/  c #806EB4",
"(  c #A36DA2",
")  c #A273A1",
"_  c #A27BA0",
"`  c #6B8D8B",
"'  c #6B878D",
"]  c #768C85",
"[  c #7B8D85",
"{  c #76848B",
"}  c #7C858D",
"|  c #738C8C",
" . c #7C8C8C",
".. c #6D9484",
"X. c #6B938B",
"o. c #6C9B8D",
"O. c #6B9688",
"+. c #739485",
"@. c #7B9383",
"#. c #739B83",
"$. c #7C9B84",
"%. c #75958B",
"&. c #7C948B",
"*. c #739B8B",
"=. c #7B9B8B",
"-. c #6A8392",
";. c #6D8B93",
":. c #6E849B",
">. c #688A99",
",. c #738194",
"<. c #7D8495",
"1. c #738D94",
"2. c #7C8C94",
"3. c #73849C",
"4. c #7C839C",
"5. c #738A9A",
"6. c #7C8B9C",
"7. c #6B9395",
"8. c #749293",
"9. c #7C9393",
"0. c #799696",
"q. c #7CA184",
"w. c #7CA18A",
"e. c #75A08A",
"r. c #6A84A5",
"t. c #7382A2",
"y. c #7C83A3",
"u. c #7A88A3",
"i. c #828C8C",
"p. c #8C8D8E",
"a. c #80878E",
"s. c #948C8C",
"d. c #97888D",
"f. c #839585",
"g. c #8B9686",
"h. c #839B84",
"j. c #8C9C86",
"k. c #83948C",
"l. c #8C938B",
"z. c #839B8A",
"x. c #8C9C8B",
"c. c #919787",
"v. c #919C87",
"b. c #94948B",
"n. c #99958D",
"m. c #949C8B",
"M. c #9A9C8D",
"N. c #838494",
"B. c #8C8495",
"V. c #848C94",
"C. c #8B8B93",
"Z. c #84839B",
"A. c #8C839A",
"S. c #838B9C",
"D. c #8B8C9C",
"F. c #938494",
"G. c #9C8495",
"H. c #948B93",
"J. c #9B8B94",
"K. c #94839A",
"L. c #9B839A",
"P. c #948C9B",
"I. c #9B8B9C",
"U. c #849393",
"Y. c #8B9494",
"T. c #849B93",
"R. c #8C9C94",
"E. c #84939B",
"W. c #8C939A",
"Q. c #8A9A98",
"!. c #949494",
"~. c #9B9493",
"^. c #949A92",
"/. c #9D9C92",
"(. c #94929A",
"). c #9B929A",
"_. c #9B9C9D",
"`. c #A28396",
"'. c #A48C96",
"]. c #AA8C97",
"[. c #A5839B",
"{. c #AB849A",
"}. c #A58C9A",
"|. c #AA8B99",
" X c #B1839A",
".X c #A59495",
"XX c #A99296",
"oX c #A29B94",
"OX c #A59299",
"+X c #A89198",
"@X c #A69997",
"#X c #85A284",
"$X c #8CA286",
"%X c #8BAD85",
"&X c #84A18B",
"*X c #8CA28B",
"=X c #87AA84",
"-X c #94A38B",
";X c #9AA38E",
":X c #95AB8C",
">X c #99AA8E",
",X c #99AB8E",
"<X c #90A487",
"1X c #8BB286",
"2X c #83BD82",
"3X c #8ABC86",
"4X c #8DBB89",
"5X c #8BB486",
"6X c #94B48C",
"7X c #98B28E",
"8X c #94B98D",
"9X c #8BA293",
"0X c #87A391",
"qX c #9DA392",
"wX c #9DAB92",
"eX c #9AA197",
"rX c #9AB391",
"tX c #97B690",
"yX c #A1A294",
"uX c #A0A695",
"iX c #8383A3",
"pX c #8B84A4",
"aX c #858AA1",
"sX c #8B89A1",
"dX c #8A86AB",
"fX c #9383A4",
"gX c #9B84A3",
"hX c #958AA3",
"jX c #9A8AA1",
"kX c #9081AB",
"lX c #9694A2",
"zX c #8581B1",
"xX c #84C083",
"cX c #88C086",
/* pixels */
"A.K.K.H.J.J.~.!.M.-X-X-X:X:X,X,X,X7X7X6X6X6X4X3X2X2X2X2X2X2X2X2X2X5X1X%X$X<X-Xm.m.m.m.m.c.c.m.m.m.-X-X-X-X:X:X:X-X;X;X;X;XM.M.M.M.M.M.M.M.M.;X;X;X;XqXqXqXoXoXoX.X.X.X.X.X.X.X.X.XoXoXoXoXyX;X;X;X,X,X,X:X:X:X6X:X:X:X:X:X,X,X,XwXyXyXoXoX@XXXXX].].]. X X X X X",
"A.K.K.K.H.J.H.!.^.M.-X-X-X:X,X,X,X,X7X6X6X6X4X3X2X2X2X2X2X2X2X2X2X5X1X%X%X<X-Xm.m.m.m.m.c.c.m.m.m.-X-X-X:X:X:X:X;X;X;X;X;X;XM.M.M.M.M.M.M.M.;X;X;X;X;XqXqXoXoXoX.X.X.X.X.X.X.X.X.X.XoXoXoXyXyXqX;X;X,X,X,X,X:X6X:X6X6X:X:X,X,X,XwXwXyXyXoXoX@XXXXX].|. X X X X X",
"A.A.K.K.F.H.H.!.!.m.m.-X-X-X:X,X,X,X7X6X6X8X4X3X2X2X2XxX2X2X2X2X2X5X1X%X<X<X-X-Xm.m.m.v.c.v.v.v.<X-X-X-X:X:X:X,X,X;X;X;X-X-XM.M.m.m.m.m.m.M.m.;X;X;X;X;X/./.oXoXoX.X.X.X.X.XOX.X.X.X.XoXoXoXoXyXyXqXqX>X,X,X,X:X6X6X6X6X6X6X7X,XwXwXwXyXyXyXoX@XXXXXXX].|. X X X",
"A.A.l l K.K.F.H.!.b.m.m.-X-X-X,X,X,X,X6X6X8X4X3X3X2XxXxXxXxX2X2X2X5X5X%X<X<X-X-Xm.m.m.v.v.v.v.v.<X<X-X:X:X:X,X,X,X;X;X;X;X-X-X-Xm.-Xm.m.m.m.m.M.;X;X;X;XM./././.oXoXoX.X.X.XOX.XXXXX.X.X.XoXoXoXoXyXyXqXwX,X,X,X7X6X6X6X6X6X6X7X7XrXwXwXuXyXyXoXoX@XXXXX].|.{. X",
"A.j l l l K.K.H.H.b.b.m.m.-X-X-X,X,X,X7X6X6X4X4X3X3XcXxXxXxX2X2X3X3X5X1X:X<X-X-Xm.m.m.v.v.v.v.<X<X<X<X:X:X,X,X,X,X;X;X;X;X;X;X;X-Xm.m.m.m.m.m.m.M.M.M.M.M.M.M.M././.oXoXoX.X.X.X+X+X+X+X.X.X.XoXoXoXyXqXqXwXwX,X7X7X6X6X8X8X8X7X7X7XrXrXwXwXyXyXyX@X@XXX+X].].].",
"A.j l l l l F.F.H.s.l.b.m.m.-X-X;X,X,X7X6X6X8X4X3X3XcXcXcXcX2X2X3X5X5X6X<X:X-X-Xm.m.m.v.v.v.j.<X<X<X<X:X:X:X,X,XwXqXqXqX;X;X;X;XM.M.m.m.m.m.m.m.m.m.M.M.M.M.;X;XM.;X/./.oXoX.X.XOX+X+X+X].+XOX.X.XoXoXyXqXqXwXwXrX7X6X8X8X8X8X8X8X7XrXrXrXwXwXyXyX@X@XXX+X+X].].",
"A.j l l l l l F.F.p.p.l.b.m.m.-X;X,X,X,X6X6X8X4X4X3X3X3XcX3X3X3X3X5X1X:X:X:X-X-X-Xm.m.v.v.j.j.$X$X<X<X<X:X:X:XwXqXqXqXqXqXqX/.M.M.M.M.m.m.m.m.m.m.m.m.m.m.m.-X-X-X;X;X/./.oX.XOXOX}.|.|.|.|.}.OXOX.XoXoXyXqXwXwXwXrXrX7X7XtX8XtX8XrXrXrXrXwXwXwXyXyXoXoXXX].].].",
"B.l l x x x l l F.p.p.b.b.m.m.M.;X;X,X,X6X6X6X8X4X4X4X3X3X4X4X4X5X6X6X:X:X-X-X-Xm.m.m.v.j.j.j.$X$X$X<X<X<X:X-X>X>XqXqX/./././.~.^.n.n.m.m.m.b.b.b.m.m.m.m.m.-X-X-X-X-X;X/./.oXOX}.}.}.|.}.}.}.}.}.OX.XoXoXyXyXqXwXwXrXrXrXrXrXrXrXrXrXrXwXwXwXqXyX@XoX.X+X+X].].",
"F.l x x x x x x F.d.p.p.b.b.m.M.;X;X,X,X7X6X6X8X8X4X4X4X4X4X6X6X6X:X:X:X;X;X;XM.M.m.m.m.j.j.j.j.$X$X*X*X-X-X-X>X;XqX/./.^.^.^.~.!.!.!.b.b.b.b.b.g.b.b.v.g.j.$X*X<X<X-X-X/.^.~.}.}.}.[.[.[.[.|.|.}.}.OX.X@XoXoXyXqXwXwXwXrXrXrXrXrXrXwXwXwXwXqXyXyXoXoX.X+X].|.|.",
"K.K.l x x x x x F.d.s.s.b.b.b.M.;X;X;X,X,X6X6X6X6X8X8X8X6X6X6X6X:X:X;X;X;XM.M.M.M.n.m.m.x.g.j.j.$X$X$X*X*X-X-X;X^.^.^.~.~.~.).).(.(.(.!.!.l.l.l.l.l.g.g.j.j.$X$X*X*X-Xm.^.~.).I.I.[.[.n n n [.[.[.|.}.}.OX@XoXoXyXuXuXwXwXwXwXwXwXwXwXwXqXqXyXoXoXoX.XOX].|.|.{.",
"F.G.x x x x x F.F.d.s.s.b.b.b.M.M.;X;X>X,X,X6X6X6X6X6X6X6X:X,X,XqXqXqX/././.~.n.n.b.b.b.x.x.j.j.j.$X$X&X*X*X*X^.^.^.!.).I.I.I.I.P.P.H.H.C.C.p.p.p.g.g.f.h.h.h.#X$X&X*Xx.^.!.I.I.L.L._ _ _ n n n n [.|.}.}.}.OX@XoXoXoXyXyXyXyXyXuXyXyXyXoXoXoXoX.XOXOX].|.|.{.{.",
"G.G.G.G.x x G.G.d.d.s.s.s.b.n.M.M.;X;X;X,X,X:X6X6X6X6X:X,X,X;XqX/./.oX.X~.~.~.~.~.b.b.b.g.x.g.j.j.h.h.&X&Xx.x.x.Y.!.P.P.I.L.L.K.K.K.K.K.B.B.C.p.i.i.f.f.f.h.h.h.#X#Xx.x.Y.(.P.K.z ! Q Q ) ) ) _ n n [.[.|.|.}.}.OXOX@X@X@XoXoXoXoXoXoXoX.X.XOXOX}.|.|.|.|.{.{.m ",
"J.G.G.G.`.G.G.G.d.d.s.s.s.b.n.M.M.;X;X;X,X,X:X:X:X:X:X,X;XqXoXoXoXoXOXOX'.'.J.J.J.H.b.b.l.l.l.z.h.h.h.h.h.z.g.x.Y.H.P.K.K.K.l l l l l l A.B.B.N.a.i.[ @.$.$.$.$.h.h.z.x.Y.C.K.K.! ! Q Q Q Q ) ) ) n n n n [.|.|.|.|.|.|.OXOXOXOXOXOXOX+X|.|.|.|.|.|.{.{.{.m m m ",
"J.J.'.`.`.`.G.G.d.d.s.s.b.b.n.M.M.M.;X;X;X,X,X,X,X:X;X;X/.oXoX.XOX].].'.'.'.J.J.J.H.H.H.l.l.k.k.k.z.h.h.h.z.z.l.Y.C.K.K.l ! ! ! ! ! ! l j k N.N.a. .[ [ @.@.$.$.$.h.z.k.U.C.A.j ! W W Q H H Q Q ) ) ) v n n n {.{.{.|.|.|.|.|.|.|.|.|.|.{.{.{.{.{.{.{.m m m m m ",
"J.J.'.'.'.'.J.d.d.d.s.s.b.b.n.M.M.M.;X;X;X;X;X;X;X;X;X/.oXoXOX].].}.|.|.`.`.`.G.G.G.H.H.C.C.U.k.k.&.=.$.$.h.k.k.C.C.A.l ! W ! W ! ! W l j j k N.} } { [ ] @.@.$.$.$.f.k.k.V.A.k j P W G G G H H H ) ) ) v v m m m m m m m {.{.{.{.{.{.{.{.m m m m m m m m m m m ",
"~.~.'.'.'.'.J.d.d.s.s.s.b.n.n.M.M.M.M.;X;X;X;X;X;X;X/./..XOX].|.|.{.{.{.M M c L.L.G.F.B.B.V.V.V.&.&.&.$.$.$.&.k.V.N.A.j P W W W W W W P j j g k ; } { { ] ] @.@.@.$.@.&.i.V.N.k j g P W G G G H H H H ) ) v b b b m m m m m m m m m m m B m m m m m m m m b N N ",
"~..X.X.X.XJ.J.d.s.s.s.b.n.n.n.M.M.M./.qXqXqXqXqX;X/./..X.X].|.|.{.m m m n n n c z x l A.A.Z.Z.2.2.&.&.&.$.&.&.&.V.N.k j P P P P W W P P P U h h ; ; { { { ] ] @.@.@.@.@. .a.N.k k j P P P G G G J H H ( ( ( v v b b b b b b m m m m B B B N N N N N N N N N N N ",
"/./..X.X.Xn.n.n.n.b.b.b.n.n.n.M.M.M./.qXqXqXqX/././..X.X].|.|.{.m m m n n n n n z z l j j h 4.4.2.2.%.%.+.&.&.%. .N.h h L P P P P P P P U U h h , ; ; 1 { { ] ] @.@.@.@.[  .a.N.k g h P P P D J J J H H ( ( V v v v b b b b b b b b N N N N N N N N N N N N N N ",
"/./././.n.n.n.n.b.b.b.b.b.n.n.M.M././.oX/././.oX/..XoX].'.|.{.m m m m b b v v v z Q W P L L y 4.3.1.8.%.%.+.%.%. .<.4.h L L L P P P U U U U I g : : ; ; 1 { { ] ] [ @.@.[ [  .} N.N.h h L P D D J J J H H ( V v v v b b b b B b b B N N N N N N N N N N N N N N ",
"qX/./.M.M.M.n.n.b.b.b.b.b.n.M.M.M./.oXoXoXoXoXoX.X.XOX].|.{.{.m m b b b b v v v Q W W A L L y y 3.5.8.%.%.%.%.%. .2.4., y L L L P U U U U U I L g : : ; ; 1 { ] ] [ @.[ [ [ [  .} <.N.h I L L T D J J G H H ) v v v b b b m m m m m B B N N b b N N N N N N N N ",
"qXqX/./.M.M.n.n.b.b.b.b.b.m.M.M.M././.oXoXoXoXoX.XOX].|.|.{.m m m b b v v v v v Q H G D F Y r y 3.5.1.%.%.%.%.%.%.2.4.4., y I I I U U U U U U L L g : : ; ; } { ] [ [ @.. [ [ [  . .<.Z.h L L Y T T J G Q Q v v v n b b m m m m m m m m m m m m b N N N N N N N ",
"qXqX/./.M.M.n.b.c.c.c.c.b.m.M.M.M././.oXoXoXoX.XOX].].|.|.{.m m b b b b v v v ) H H G D F Y u y y.3.2.&.%.%.%.%.%.1.5.3.4.y.y I iXpXpXpXU U U U L g g g ; ; }  .] [ @.@.. @.@.@. . .2.<.4.y L I T T W W Q Q z v n n n n M M M m m m n m m m m m m b N N N N N N ",
"/././.~.M.M.b.b.c.c.c.v.v.m.m.M.M./.oXoXoXoXoX.XOX].|.|.|.m m m b b b b v v v ) H H G D D Y r y 4.4.2.&.&.&.=.%.%.8.1.5.4.4.4.iXaXsXsXpXpXpXU U P g g g g k N. .[ [ @.@.$.$.$.$.@.&. .2.<.4.iXI I U U W ! z z n n n M M M M M M M m m m m m m m m m N N N N N N ",
"/././.~.~.n.b.b.c.g.g.g.v.m.m.M.M./.oXoXoXoX.X.XOX].|.|.{.m m m b b b b b v v ) ) H G W P L I y 4.6.2.&.&.&.=.&.&.%.8.1.2.6.6.S.S.D.sXpXpXpXpXU U j j j k B.N.a.i.f.$.$.$.$.$.$.@.&.&.9.2.6.4.Z.iXU U l l z z z c c c `.`.`.`.`.`.`.M M M m m n m m m N N N N N ",
"~.~.~.~.~.b.b.b.g.g.g.j.g.v.m.M.M./.oXoXoXoXoX.XOX].|.|.{.m m m b b b b b b v v v Q Q W P U I Z.Z.S.V.k.k.k.=.=.&.&.%.8.8.9.9.S.S.D.D.D.sXfXfXfXl l l A.A.B.C.p.l.f.f.h.h.h.h.h.$.$.&.&.9.2.V.S.Z.D.A.K.K.L.L.G.`.`.`.`.G.G.G.G.`.`.`.`.M M M m n n b b b N N N ",
"I.I.J.J.~.b.b.g.g.g.g.j.j.j.m.M.M././.oXoX.XoX.XOX].|.|.{.m m m b b N b b b b b v v ! ! ! U A.Z.S.V.V.k.k.k.z.z.=.=.=.=.=.9.9.U.E.W.D.D.P.P.K.K.K.K.K.K.F.H.C.Y.l.l.z.h.h.h.h.h.h.h.=.z.k.U.U.V.V.C.C.H.F.G.G.G.G.G.G.G.G.G.G.G.G.G.G.G.`.`.c M M n m b b b N N ",
"G.G.G.J.H.s.b.g.g.h.h.h.j.j.x.n.~.~./.oXoXoX.XOXOX].|.|.{.m m m b b b N b b b m n n z z K.K.A.D.C.C.Y.l.l.l.z.z.z.=.=.=.=.=.=.T.E.Y.W.D.P.P.P.K.L.L.L.P.H.H.(.!.l.x.g.g.j.h.h.h.h.h.h.z.z.k.k.k.k.C.C.H.H.J.J.J.J.J.J.J.J.F.F.F.F.F.G.G.G.L.L.c M n n b b b b b ",
"L.L.L.L.F.H.p.g.f.h.h.h.h.j.x.m.!.~.~.~.OXOXOXOXOX}.|.|.{.{.m m B b b N b m m n M c L.L.K.K.P.C.C.C.C.l.l.l.l.z.h.$.$.=.=.=.=.z.T.Y.Y.W.P.P.P.I.I.I.I.I.I.H.(.!.b.x.x.x.x.x.z.z.h.h.h.h.z.z.z.k.k.k.l.l.b.s.J.J.J.J.H.H.d.s.H.H.F.F.F.F.K.L.x z z n v v v v v v ",
"! z z K.K.F.p.l.f.h.h.h.h.z.x.Y.!.(.).).).OXOXOX}.}.|.|.|.{.m m m B m m m m m m {.[.`.G.L.H.H.H.H.H.H.H.l.l.l.k.h.h.$.q.q.q.w.=.z.T.Y.W.(.P.P.I.I.I.I.I.I.).(.!.^.^.m.x.x.x.x.z.z.z.z.h.h.h.h.h.h.f.l.l.b.b.b.b.s.s.s.s.s.p.C.C.B.B.B.B.K.l l z z z Q ) ( ( ( ( ",
"! ! l l l B.p.i.f.$.$.$.$.z.k.Y.W.P.P.I.I.I.}.}.}.}.|.|.|.{.m m m m m m m m m {.{.|.`.G.J.J.H.H.H.H.H.H.H.l.l.l.z.h.$.q.q.q.q.=.z.z.Y.Y.(.P.P.P.I.I.I.I.I.).).!.^.^.^.R.x.x.x.z.z.z.z.z.$.$.$.$.h.h.h.g.g.b.b.b.b.b.b.p.p.p.C.C.B.B.B.A.k j j l ! Q H H H H ( ( ",
"W W W j j B.N.i.@.@.$.$.&.&.U.V.D.D.hXhXjXI.I.}.}.}.|.|.|.|.{.{.m m m m {.{.{.{.|.|.}.'.J.J.J.H.H.H.H.H.H.C.p.l.k.h.$.$.q.q.q.q.h.z.x.Y.W.(.P.P.P.hXjXjXI.I.).(.^.^.^.^.Y.T.T.U.k.k.k.&.$.$.$.$.$.h.h.h.g.g.g.g.g.l.l.l.p.p.C.V.N.N.Z.h h L P P A A G K K K K K ",
"P P P P h k N. .@.+.+.+.%.&.2.S.aXpXpXfXfXgXgX}.}.}.}.|.|.|.|.{.{.{.{.{.{.{.{.{.|.}.}.'.'.J.J.J.J.H.F.F.F.H.C.p.l.k.$.$.$.q.q.q.h.z.z.l.Y.W.P.P.fXfXfXfXhXjXP.(.(.!.!.!.Y.Y.Y.U.V.U.&.&.&.&.@.$.. . . @ @ h.g.g.g.g.l.l.p.V.V.N.N.Z.h h L L Z Z F F F F F F K K ",
"T P L L g , <.{ ] +.+.+.%.1.5.4.iXR E E ~ fXgXgX[.}.}.|.|.|.|.|.{.{.|.|.|.|.|.|.|.'.'.'.'.'.J.J.G.G.K.K.F.B.B.p.i.k.@.$.$.$.$.$.$.h.z.z.Y.Y.D.D.fXfXfXfXfXhXhXP.(.(.!.(.W.C.C.V.V.V.2. .&.%.&.$.. . . . . . @ h.f.f.k.k.k.V.V.N.Z., : r 7 7 0 8 8 3 3 C C C C C ",
"Y Y L L r , ,.| | +...X.X.;.3.t.i u Y T E ~ gXgX[.}.}.}.|.|.|.|.|.|.|.|.|.|.|.].'.].].].'.'.J.J.G.G.K.l l l B.B.a.i.&.@.$.$.$.$.$.h.z.z.Y.Y.D.D.pXpXE ~ fXfXhXP.P.(.(.(.D.D.Z.Z.Z.<.<.2. .%.+.+.+.. . . . . . . h.f.f.k.k.V.V.Z.4., r e 0 0 0 3 3 3 3 5 5 3 C C ",
"Y Y u u r > ,.1.` ....X.X.>.r.t p f f ^ ^ E ~ gXgX}.}.}.}.}.}.OX+X+X+X+X+XOXOXOXOXOXOXOX'.'.J.J.G.L.l l l j k B.N.a. .&.&.$.$.$.$.h.z.z.T.U.D.sXpXE E E ~ fXfXhXP.P.P.D.D.A.Z.Z., , ,.,.1.| %.+.+.+.X .     . . $.$.@.k.k.V.V.<.4., e e 6 6 6 2 2 4 5 5 5 5 5 5 ",
"u u u r e > ,.' ` X.X.X.;.>.r.w p s s / ^ E ~ gXjX}.}.OXOX.X.X.X.X.X.XoX.X.X.X.XoXoXoX.X.X~.J.J.G.K.l l j j j k N.N. . .%.&.$.$.$.h.z.z.z.E.D.sXpXE E E E E fXfXhXP.D.D.A.Z.k h , , - - ,.| | | ......X     . . . $.$.&.&.9.2.2.4.> < w 6 6 6 2 2 2 4 4 4 5 5 5 ",
"u u u e e > :.;.X.X.X.X.7.>.w w d s s s / T ~ gXjX}.OXOXoXoXoXoXoXoXoXoXoXoXoXoXoXoX/./.~.~.~.H.H.F.K.l j j j g k N.<.2. .&.&.=.$.z.z.z.T.E.W.sXpXE E T E E E pXD.D.A.A.A.Z.h , , > > - - -.' ` ` O.....X X     . #.$.&.&.&.2.2.<.3.> q w 6 6 6 2 2 4 4 4 4 5 5 ",
"u u u e t 3.:.;.X.X.X.X.7.>.w w a a s s / ^ kXhXjX).@XoXoXoXyXyXyXyXqXqXqXqXqXqXqXqXM.M.M.n.b.!.H.F.K.j j j h g h , <.<.2.2.&.=.=.z.&X&XT.R.W.sXdXE E T T E U U pXA.A.Z.Z.h , , > > - - % % -.' ' ` ` O.....#.  #.#.#.$.&.&.&.1.5.,.,.* q w 6 6 6 6 2 2 4 4 4 5 ",
"u u u t t 3.5.7.o.X.X.X.7.>.r.w a a s s f ^ kXhXlX_._.yXyXuXuXwXwXwXwXwXwXwXwX,X,X;X-X-Xm.m.m.l.C.C.B.A.k h h g : : , 4.<.2.9.9.z.z.&X&X0XQ.W.sXsXU E T T T U U I Z.Z.Z., , , - - - % % % % % -.' ' ` ` O.O.#.#.#.#.#.#.#.%.%.%.| 1.1.:.:.* q w w 6 6 a a 4 4 5 ",
"R i y y t.3.5.7.o.o.o.o.7.>.r.w a a s s f ^ dXlXlX_.eXqXwXwXwXwXrXrXrXrXrX7X7X:X:X:X<X<X*X*Xx.g.l.C.C.Z.Z.h h g : : , , 4.4.2.9.T.&X&X&X0XQ.Q.W.sXpXU E T P L I L h , , ; ; - - - % % % % % = = % -.' ' X.X.O.#.#.#.#.#.#.#.#.+.%.%.| 1.;.:.:.q q w w a s s s s ",
"R R y y.u.5.8.8.o.o.o.o.7.>.r.w d a s f f zXdXlXlXeXeXwXwXrXrXrXrXrXrXtX6X6X6X6X6X6X%X%X$X=X#Xz.k.k.V.V.Z.h h y r r r r y 4.6.9.T.T.0X9X9X9XR.W.sXpXU U P L L L y : , , - - - - % % % % = = = = = = -.-.;.X.%.*.#.#.#.#.#.#.#.#.#.+.%.%.8.1.5.3.t.t p p p s s s ",
"I iXiXy.u.5.8.*.*.o.o.o.7.>.r.w d d d f f zXdXlXlXeXeXwXwXrXrXrXrXrX6X6X6X6X6X6X6X1X1X%X=X=X#Xh.z.k.U.V.S.Z.I y r r r r r y 4.6.E.T.9X9X9X9XR.W.D.pXpXU I L L r r , > > - - % % $ $ % % = = = = = = * -.;.;.8.%.*.#.#.#.#.        #.#.+.%.%.8.1.5.u.t.i p p 9 9 ",
"pXiXiXu.6.0.0.*.*.e.*.o.7.>.r.w d d f f ^ dXdXlX_.eXeXwXwXrXrXrXrXrXtXtXtX6X6X6X6X1X1X%X=X=X#X#X=.z.U.E.S.Z.4.y r r 7 r r y y.6.E.Q.9X9X9X9XR.Q.W.D.pXpXI L L r r < > > % % % $ $ $ % % % & & & & & * :.:.;.8.8.%.*.#.#.              #.#.*.%.8.8.5.u.u.i i u u ",
"pXsXaXaX6.0.0.=.e.e.e.*.7.7.r.r.p f f f zXdXhXlX_.eXeXwXwXwXrXrXrXrXrXrXrX6X6X6X6X1X%X%X=X=X#X#X#Xz.z.U.E.S.4.y.y r 9 9 u r y y.E.E.Q.9X9X9XR.Q.W.D.D.A.h I y r < < < * % % % $ $ $ $ % % & & & & * * * :.5.5.1.8.%.*.#.#.      O O     #.=.*.%.9.9.6.u.y.y.i R ",
"sXsXD.E.E.0.0.w.w.w.e.*.0.0.u.t.t.p i R dXdXlXlX_._.yXuXuXwXwXwXwXwXwXrXrXrXrX:X:X:X%X%X%X=X=X#X#Xz.z.T.U.S.6.y.y r 9 9 9 u y y.S.E.Q.Q.R.R.R.R.W.D.D.D.Z.h , y e < & & * % % % $ -.% % % * * > t t t t t.3.3.5.1.8.%.#.#.    O O O O O O #.=.*.=.9.9.0.6.u.iXiX",
"P.W.W.W.Q.T.T.w.w.w.w.=.0.0.6.u.u.y.zXzXdXhXhXlX_.@X@XyXyXyXuXuXwXwXwXwXwXwXwXwX,X:X<X<X$X$X$X=X&X&X&XT.T.U.S.6.y.r u 9 9 9 r y iXS.W.W.R.R.R.Y.Y.Y.C.S.Z.4., > t e & & * % % % % ,.,.,.,.> > > t t t t t t.t.3.5.1.8.%.#.#.  O O o o o O O #.=.=.=.0.9.9.S.S.Z.",
"(.(.W.Q.Q.T.0X&X&Xw.w.=.=.0.9.6.u.iXiXdXpXhXjXjXOX@X@X@XoXoX@X@XoXoXoXyXyXyXyXqXqXqX;X-X-X-X*X*X*X&X&X&XT.T.E.6.y.y r 9 9 9 9 r I Z.S.D.W.Y.Y.Y.Y.Y.Y.V.V.6.4.> > > q * * * - - - ,.,.,.3.4.4.4.y.y.t t t t t t.3.5.1.%.%.#.#.  o o o o O O O O #.=.=.=.9.U.E.D.",
"!.!.^.R.R.R.&X&X&X&X&Xz.z.T.U.E.S.aXsXsXhXjXjX}.}.}.+X+X+X+XXX.X.XoXoXoX@XoXoXoXoX/./.M.M.-X-X-X*X*X*X&XT.T.U.S.4.y r 9 9 9 9 u L I Z.D.D.Y.Y.Y.Y.U.U.U.E.2.6.3.> > * * * > > - - - ,.4.4.4.4.y.y.y.y.y t t t t t 3.5.1.%.=.$.$.. o o o o o O O O q.=.=.=.z.U.Y.",
"!.^.^.^.9X*X&X&X&X#Xz.z.z.z.T.E.W.W.D.P.P.I.}.}.}.|.|.|.|.|.|.|.+X+X+X+XOXOX.X.X.X.XoX/.M.M.-X-X-X-X*X*X9XR.T.E.S.y r 9 9 8 8 7 L L h Z.Z.C.C.U.k.k.k.k.9.9.5.5.3.> q * > > > > > , 4.4.4.S.S.aXiXiXiXy i u u e t y 4.2.9.&.$.$.. . O o o o o o o O q.q.q.z.z.l.",
"^.^.^.^.*X*X*X&X$Xj.x.x.g.x.T.R.Y.W.(.(.I.I.}.}.|.|.|.{.|.|.|.|.|.|.|.|.|.].+XOXOX.XoXoX/./.M.M.-X-X-X-X9XR.R.W.S.I L 7 9 8 8 9 Z L L h Z.Z.V.U.k.z.z.=.&.9.8.5.3.3.:.> > > > > > , 4.4.Z.S.aXaXaXiXiXR i u u u r y 4.<.V.k.&.h.$.. . . O o o o o O + q.#Xh.h.g.",
"^.^.^.m.-X*Xx.x.j.j.j.x.g.x.x.Y.^.!.!.).I.}.}.{.{.{.{.{.{.{.|.|.|.|.|.|.|.].].+XOXOX.XoXoXoX/./././.qX;X^.^.Y.W.D.I L Z Z S S S S Z L L h Z.V.V.k.z.z.=.=.&.8.1.5.3.3.3.t t t t t y y iXaXaXsXsXdXdXpXR Y Y Y Y L L h Z.V.V.k.k.h.h.@ . . . O O O + + + # #X#Xj.",
"~.^.M.m.m.x.x.j.j.g.j.x.x.x.x.m.^.^.^.~.).}.}.|.{.{.{.{.{.|.|.|.|.|.|.|.].+X+XOXOXOX.X.X.XoXoXoX/./././.~.^.!.P.D.j P A F S S S S 8 7 r r , <.2.&.=.=.=.=.=.%.8.1.5.5.:.t.t t t t y y iXiXdXdXpXpXpXE E T T F F L L j A.B.C.p.l.l.g.h.h.@ @ . + + + + + + # #X#X",
"n.n.n.m.m.x.x.j.j.g.g.x.x.x.m.m.^.^.^.~.OX}.}.|.{.{.{.{.{.|.|.|.|.|.+X+X+XOXOXOXOXOXOX.X.X.XoXoXoX/././.^.~.(.P.K.l P A F S S C S 8 7 7 r : <.2.9.=.=.=.=.=.%.8.8.5.5.:.r.t t t p i i R zXdXpXpXfXfXE E T D D D A P j j A.C.C.p.l.l.j.g.h.@ # # # + + + + # # # "
};
