/* XPM */
static char *_887f16b866f4068d71a5b570fe675cdrFZx4fjdLQvkFCqu[] = {
/* columns rows colors chars-per-pixel */
"64 64 244 2 ",
"   c #687D7F",
".  c #5D8F72",
"X  c #619C67",
"o  c #649D69",
"O  c #6A9D6D",
"+  c #6C976F",
"@  c #658979",
"#  c #7C8D7B",
"$  c #758A7A",
"%  c #6E9B71",
"&  c #689574",
"*  c #739473",
"=  c #739C74",
"-  c #7A9C77",
";  c #7C947A",
":  c #7C9C7A",
">  c #75997A",
",  c #65A26B",
"<  c #6AA46E",
"1  c #6AA96F",
"2  c #67AA6D",
"3  c #6DA471",
"4  c #6DAB72",
"5  c #6DA879",
"6  c #73A475",
"7  c #72AB75",
"8  c #7CA47B",
"9  c #74AC7A",
"0  c #7BAC7B",
"q  c #74A479",
"w  c #6DB373",
"e  c #72B476",
"r  c #76B379",
"t  c #7BB37C",
"y  c #7BBA7D",
"u  c #73BA78",
"i  c #78C37D",
"p  c #838B7E",
"a  c #84877F",
"s  c #83937E",
"d  c #829C7D",
"f  c #82A37E",
"g  c #81AA7E",
"h  c #80B17F",
"j  c #3F2FAC",
"k  c #412FAE",
"l  c #4834B8",
"z  c #533CB9",
"x  c #583DB6",
"c  c #503AAD",
"v  c #77589B",
"b  c #5A6D92",
"n  c #647987",
"m  c #797E86",
"M  c #666899",
"N  c #77699B",
"B  c #68769C",
"V  c #7A7799",
"C  c #696F8F",
"Z  c #5846AE",
"A  c #5A55AB",
"S  c #5A46B8",
"D  c #4E44A4",
"F  c #6A4AAD",
"G  c #6548AB",
"H  c #734FA9",
"J  c #6957A9",
"K  c #7A57A9",
"L  c #634BBC",
"P  c #6748B7",
"I  c #744EB6",
"U  c #6957B6",
"Y  c #7253B3",
"T  c #7C5BB4",
"R  c #7857B6",
"E  c #5B66A3",
"W  c #6965A8",
"Q  c #7D62A4",
"!  c #7869A9",
"~  c #7978A6",
"^  c #7764B5",
"/  c #6C71B1",
"(  c #555F98",
")  c #4C37C8",
"_  c #543BC6",
"`  c #583DD3",
"'  c #5C44C6",
"]  c #5B42D1",
"[  c #6648C3",
"{  c #6F53C2",
"}  c #696FC6",
"|  c #885B9B",
" . c #877B8A",
".. c #937D8B",
"X. c #8A689B",
"o. c #92649B",
"O. c #9A659B",
"+. c #946C9C",
"@. c #9C6B9C",
"#. c #916297",
"$. c #89799B",
"%. c #9C7C95",
"&. c #95739D",
"*. c #9D739B",
"=. c #9B7C9B",
"-. c #957997",
";. c #A36D9C",
":. c #A96F9D",
">. c #A37C95",
",. c #A4749B",
"<. c #AD739C",
"1. c #A47A9A",
"2. c #AD7C9A",
"3. c #A17796",
"4. c #B1759D",
"5. c #B27B9C",
"6. c #835CAB",
"7. c #875CA6",
"8. c #865DB7",
"9. c #8C62AC",
"0. c #8868A7",
"q. c #9364A4",
"w. c #946CA4",
"e. c #9363AB",
"r. c #996AA7",
"t. c #8774A5",
"y. c #9677A4",
"u. c #8964B5",
"i. c #817FB6",
"p. c #A26DA1",
"a. c #A079A9",
"s. c #5D818E",
"d. c #688987",
"f. c #7C8686",
"g. c #6C958A",
"h. c #7A9A87",
"j. c #6B8498",
"k. c #778897",
"l. c #789695",
"z. c #6E9191",
"x. c #7DA382",
"c. c #77A884",
"v. c #7CB783",
"b. c #7BA297",
"n. c #7987A5",
"m. c #7795A6",
"M. c #6B89A7",
"N. c #76AEA3",
"B. c #7EC581",
"V. c #8C8B85",
"C. c #898787",
"Z. c #928C86",
"A. c #9A838E",
"S. c #958B8C",
"D. c #9A8C8C",
"F. c #94858B",
"G. c #8C9483",
"H. c #859C82",
"J. c #8B9B84",
"K. c #8D958B",
"L. c #839B8C",
"P. c #8C9D8D",
"I. c #859386",
"U. c #929386",
"Y. c #95948B",
"T. c #9B938D",
"R. c #959C8B",
"E. c #9A9B8D",
"W. c #919B86",
"Q. c #848B9C",
"!. c #888798",
"~. c #938594",
"^. c #9C8494",
"/. c #948B95",
"(. c #9B8C93",
"). c #9C839A",
"_. c #978A9A",
"`. c #839493",
"'. c #8C9393",
"]. c #849A92",
"[. c #88999A",
"{. c #939394",
"}. c #9C9493",
"|. c #9D9C92",
" X c #959795",
".X c #A38495",
"XX c #AA8497",
"oX c #A48C95",
"OX c #AA8C96",
"+X c #A58499",
"@X c #AD8399",
"#X c #A68B98",
"$X c #AC8A98",
"%X c #B1829A",
"&X c #B18A99",
"*X c #A49494",
"=X c #A99396",
"-X c #A39C94",
";X c #A89797",
":X c #A08D8F",
">X c #85A382",
",X c #8CA385",
"<X c #85AC83",
"1X c #8BAB85",
"2X c #83A389",
"3X c #8DA48B",
"4X c #8DAC8A",
"5X c #84AC8A",
"6X c #91A387",
"7X c #94A38B",
"8X c #9AA48E",
"9X c #94AB8A",
"0X c #9AAB8E",
"qX c #90A987",
"wX c #84B482",
"eX c #8AB385",
"rX c #84BB83",
"tX c #8ABB86",
"yX c #8DB389",
"uX c #8BBC8A",
"iX c #94B48C",
"pX c #99B38F",
"aX c #93BB8D",
"sX c #98B98F",
"dX c #88A393",
"fX c #9DA492",
"gX c #95AD91",
"hX c #9DAB92",
"jX c #93A392",
"kX c #9CB391",
"lX c #97B591",
"zX c #A2A393",
"xX c #A1AC93",
"cX c #A0B093",
"vX c #8E83A4",
"bX c #8589A6",
"nX c #9387A4",
"mX c #8A95A1",
"MX c #84C385",
"NX c #83CA85",
"BX c #8BC38A",
"VX c #89C78A",
"CX c #90C38C",
"ZX c #86D68A",
/* pixels */
"*X*X|.{.V =.Y.0 , , : f.f 8 s d t E.@X-Xr 7 s 7 0 s , : : t %X4X6X2.S.m < X x.j.K.G.m  .S.OX9X4 ; a f.b b f.7 < <X~.9.W ~ =.oXOX",
"=.E.R. Xk.&.,.-Xr X 2 J.G.r 0 Z.g 7 E.@X-X0 # ; : # 2 O ; yX%XwX7X4.$.g.X , C C g C.W ~.OX6X8 ; p # n b $ ; - J.oX@.$.!._.E.E.&.",
"0.}.Y.T.'.z.k.}.U.8 X 2 J.E.sXE.D.>Xt T.$XI.$ # $ @ O X g oXXX1X*X<.T x.X h.A > 3 M W /.; $ # 2X,Xh.z.= O 3 ;  Xr.+.=.~.D.R.(.0.",
"h.7XXX2.,.$.t.2XiXA.J.3 < fX*X9X-X*Xt g oX*Xh.* * @ + X wX@XzX<XOX2.0.0 4 V N < h.A t.H.% = >X8X*XoXyXu X o d.`.w.+X3X*X2.@XjX].",
"!.k.y.O.1.*X|.*X~.N N <X, 8 E.).vX+X.XR.4X.Xy.2X* * % , rX5.*X-X=XaX@X6 4 A k.<XW ! s + 3 7XOX+XOX8XrX2 O + O <X2.1.zX+X,.{.l.!.",
"K W M F Y =.<X= 6 h.J Z `.8 % L.Z K 2.>.R.7X1.*Xt O O 4 iX<.oX$X-X9X}.O h.Y oX&.U 7X& = 9X*X*.7.Q -.E.tX& @ O 1X#.@.1.r.t.j.! K ",
"vXq.W W F S J bX>X< <XT Z vX% & z.8. XOX}.K.0.*.BX6 O y E.,.pX=XxXfXG.+ ~ t.zXP bX< O 9X5.<.| ' ' v *Xc.& X 4 *X).2X~.w.Q.Q.r.~.",
">X*X$X$X<.q.6.8.o.@XoX<.e.w.*X8 7 *X X@.*X{.z _ X.oXhXhX*.o.0X&XpX$X7 q S 2Xm.Z 3XX 7 }.O.2.*X}.3.<.-Xr o 1 fX@X0 3X<.@X|.@X-Xf ",
"4 t ,X<XiX*X2.2.OXBXJ.-X5.8XhX+X7 < Q.z ].< {.' P | O.#.F K $X%XNX$XO k.K v.L w.rXMX).z ) H OXiX=X4.@Xy X t 5.xXt =X$XBX7XR.0 1 ",
", X O * @ % t 4X-X@X3.w.;.@X3.[ V 4 0 ! U h.7 u.l ) H | O.7XiX5.|.7XO ~ m.mXS <X2 gX[ S t.gXt NX-X<.8X2 X 1Xe.9.@X>.+.N K.< X , ",
"d , X o @ . o X 4 rXfX6.[ q.-X*.P bX, = / 8.zX,.6.u.;.4.-Xw zX4.,.d 5 [ ;XK k.X 6 X.0.fXNXi B.pX2.XXr X O bXl t.rX!.D M , X , d ",
"d - , X o & & o X X u 0X<.*.hXXXXXR.-X6 7X*X7X2.xXNXhX=XuXr -X-X|.t R.e.<.T 4 < /.| $X-XlXVXi iX5.*X2 X 4XG H kXP.S W - X < H.d ",
"4 : g u y rXyXwXy e , , <X*X-XtX$XXX*X-X3 *X4X9X2.xX*X@.w.3.5.^.^.7 OXhXhX|.O Y.K o.<.<.4.5.*X}.5.7X, 9X@X^.<.2.| Q 4X< 7 7Xd 6 ",
"p 0 aXfXT.oX%X5.%XOXxX<X1 7 E.$XyX-XOXkXT.7 OXwXOX4.5.7.P O.*X8.M.O 0.<..X1X,X-X7X5.<.<.4.<.;.O.=X4 6 @XkX;X<.<.@.T.= : *XpX<XV.",
"a H.NXfX@X>.>.4.4.5.4.2.xXr , f =XyX9XzXhX,X- -X4X5.-X,XfX2.5.6.k.9 T ,.bXO *X9XhX5.4.<.4.=X0X5.0X, fX@.1.5.e.F K.O q =XE.MXZ.C.",
": s 0 yX).1.,.,.5.=X-X*X@X@X7X7 7 -X7X@X2.0.q : J ;.$X2.-X-X%X7XZ.W.).1.G.,X|.zX5.&X%X4.%XtX8XXX4 eXw.7.-Xw._ mX, 5 !.0.E.J.V.8 ",
"0 p # <X X,.#.v | ,.$X0XaXxX@X@XeXO 1Xu.y.y./ 4 V F hX@X<.<.%X9XU.-X-XhX0 *Xt OX5.5.4.<.<.w..X= t @X7X2.@XK bX4 O nXL t.^...V.wX",
"0X7 = 8 0X@X;.O.,.-XpXVXZXu r 4X=XT.7 <X+.2.r.F.O t.@X4.5.2.-XE.0 @X<.Y.J.*XOX;XiX-X4.4.e.[ : o t.K 2.,.[.T.6 8 #X}.fXOXY.d t fX",
"@X8X3 * 0 zX<.<.=XZXZXZXVXxX-XxXaXzX$Xf yXE.*X7XR.7X9XzX5.<.5.2.O @.e.: n.;.<.1.xXkX2.-X(.P.O h.L ^.nXS [.O 8 ~ [ -.-X^. .2X}.@X",
"|.@XI.s.@ 7 7X3.o.{.hXxX-X%X5.4.%XpXyX-X3X>X8X|.pXd |.eX@X5.|.*Xf }.^.= X.4.7.' Y <.4._.|.- T.8X2.2.0.c., 3XY Z `.7 H.W J -.XX8X",
"I.!._.H.g.& 1X>.P z L @.*XhXzXoXoXoX$X.X9.c.: y.<./.- %.<.<.$X*XZ.*X6X7X*XXX7.' 6.5.r./ 4 >X3.$XgX:X3X, 2XR P {.aX~.A U %._.[.h.",
"f.E E t.,.,.<.<.4.}.~.<.8Xe X O e i 7 7 `.U l.; r.p.,XR.oX5.OXfXU.OXJ.E.E.aX5.;.;.<.T > ; 9.<.%XOX4X6 }.6.9.-XhX0.x x w.`.d.n # ",
"0 >XV A Q O.p.2.2.2.oXu.u.gX, < BX}.%.^.OX<./.R.H.|.E.H.T.aXwXxXtX=XW.0XwX@X%XzX5.,.x.d ;.<.@X*X- 4X3.| *.sXgXK l z 0.L.d.$ 6 8 ",
">XV.F. .Q P R  X7 4 f bX6.y.*X5.2.fXaXtXK.).<.1.$.@ r. .G.2.kX8X6X4XsX0X=X<.7XxXxXR.<XoX2.-XT.t T.@X;.<.zX_.L k _ t.2X@ $ ; s g ",
"eX7 f S.>.>.+X(.=XW.7 7 E.=X].*.4.XX*.L ) l x t.y.V l.,.H.fXwXV.2.f.r.a.zX5.lXpXE.7XXX;.(.f q (.zXE.5.5.2.6.G R (.MX% * * 3 3 tX",
"9XV.>X,X.X3.2.*XsX0XOX,X, 4 `.Z Y 5X7 bXz ) ) l R ;..XT.D.G.{ B n.`.V l.5X9.2.E.R.@X,.Q.o z.Y K @X4.5.tXB.-X<.5.8XMX% * = = s iX",
", < - H.N G 9.@.<.$XfXgXzXG.< = j.A B = h.L ) K u.R p.*X9Xf K B Z z.B 3 ~ w.2XT.Y.*Xd : ~ F r.-X=X<.@XpX0X%X4.%XaXv.@ & % O , , ",
": 3 X X < h.~ S P 8.,.@X=X-X-XE.f 5 z.^ j.L./ S ).BXn.r.Y.$XT.Z./.).6 W.*.H.E.OX,X,X8XR.;X<.4.$XfX,XB.aX$X<.<.%XiXMX4 , X X < : ",
"C.U.}.7Xf 6 o q f.M.Y I e.<.2.fXfX7XG.q z.n.n.mXR !.3 g.&.C.D.Z.T.W.d @XW.@XT.>XC.+.|.$X%X2.5.@X.X+.T S x x G 8.&.}.7XiXyX7XH.a ",
"~.&.o.e.q.@.}.H.r , 4 2X X*.5.5.%X@XY.-XsXU.P.Y.XXS.U.G.6 wXOX,X>X8 .XoXD.h.k.{ F %.pXy 1 < 4 r g 9X].t.T Z l k l P 8.@.p.,.%.S.",
"4.4.>.$.^ G S F ~ m.L.t e 3 0 U.R.-X2.w.u.;.3.+Xj.Q.Z.~.A.; G.E.H.D.U.Y.C.Y ` ' [ 8.i.m.j.f.V.d 0 u e 7 MXlX_.u.I Z S P X.<.4.4.",
"7X*X1.E.8 = x.K.m.0.G S K w.oXfXU.,X7 o q f.B s.l.gXt.U  .XXD.1XE.d U.Z.F.Z.F.C.C.L.l.t.u.u.u.+.^.hXR.8X-X%X%X5.<.,.3.-.*.@XzX9X",
"9XpX.X#.w.`.I.e O O 4 3X/.@.XXsXtXR.fX.X%.'.h.I.G.G.J.7X*XT.~.J.I.d =.-.S.t.2.<.1.].f.Z.>X7 0 J.U.J.|.*XhXU.rXrX6XfX+X,.,.$XiX9X",
"OX%X@X%X*.8.Y L 8.bXdXgXzX$X4.<.2.*XzX-X0XaXVXwXJ.P.{.V.g.W n.j.%.I.<X].~ k.k.j.k.0.w.;.q.@.,.R.G.J.t 4 f Z.8X*XoX'.!.>.@X%X%X$X",
"0 ,X/.^.1.2.2.@.e.{ P F K O.<.<.4.5.5.5.%X-XsXxX*XH.f.t.B E g.`.{.!.~.; x.B k.0.V g.: M.*.2.XX@XlXsX=X-.L.9 o O O <XP.y.Q ..R.t ",
"p ; = u wX*X2.<.<.4.5.1.^.|.cXkX0X$X5.4.-X4XR.G.G.8XE.9X(.3 S.H.G..XY.}.,Xy |.,.2.,.1.E.d ,XE.R.lXOX2.*.6.S H w. X<X3 3 4 f V.s ",
"- , X , e BX*X<.<.<.5.=XVXu u BX@X<.4.;.-.d > ~.<.D..XOX4XJ.E.0XY.E.gX>X7XoXOX%X5.@.:.<.+.bXx.6 G.-X-XhX@X2.e.K L ^ J.0 , X 3 : ",
"w 3 = * * t sX%X<.<.5.-XCXpX-X@X-X7XOXD.7 I.+.@.h...<.;X0 =X,X*XW.fX7X8XqXfX@X,.<.F _ e.-XvXL ~ : O f E.E.4XR.@X<.,.^.D.S.H.6 w ",
"3X# ; * * 0 pX5.<.%XzX8X%X<.<.$X9X-X4Xf OX:.@.$  .;.@.aX-XhX*X%X7XBXU.-XD.T.<.O.v v L P +.OX2.7.S ~ 6 O 8 -X|.g 9XoX>.F.U.Z.F.3X",
"rX- # $ = tX=X4.OXtXNX=X4.@XhX=X*X0 Y.2.<.0.; N y.Y -.}.^.+Xt 8X8XaX-X>X@XE.:XzXOX1X>XeXt 9X-X5.2.dXOXE.8 , 9X@X-XaX8XA.A.Z.f tX",
"eX: - 7 MX=X5.@XpX7X-X5.OXK.fX>X3 Q.$.nXQ 4XV l.m.l H Z *.j.+XiXkXy y E.W.9XR.E.hX@X*X0X9X8X&X5.5.iXe 9X@XE.7 7 E.%XzXMX<XW.J.tX",
"s 6 e iX$X2.XX5.5.4.<.7.S !.O : / V N.^ uXvX~ ; L ) ) ^ bXx.q.C.8XBXMX8XJ.gXfX,XT.9XOX$XhXCXaX-X5.%X0Xw tX@X=X9 O 0 *X$XiXe 8 V.",
"3 t 8X@XoX7X9X2.<.4.R Y h.O c.J r._./ - x.R oXt._ _ I ,.!.G.XXZ.-X9X@X.XI.: r.w.@ 8 9.p.<.<.<.<.4.4.5.uXe sX<.-X7 O O 6X@XfX7 3 ",
"0 -XXXA.wX0 8X$X8X-X2.<X< R. X2.E.=X>X4XR.-X-X,XkXkX2.$XU.kXfXG.zX*X<.;.U 6 ! vXK $ ; ^ ,.2.4.4.5.5.5.OX*X=.I R P.3 O 3 d =X*Xt ",
"|.@X(.Y.D.2.@XyXiX@XyX6 *XaX8XiX*X1X: =XhX%XrX2 NXzX<.3.6 y.3.6 *X*X4.5.'.Y.9 _.=XjX<Xd *XC./.<.<.4.<.<.<.v _ ) 6.E.8 = * 7X$X|.",
"T.J.0 wXoX@X7XT.*X6 4 (.#XXX-XR.R.6 OXtX=X-XZXVX=X<.e.k.z.n.Y O [ +X*XOXOXq.h.f u.}.Q > O Q.Z x R O.<.<.2./.L.jX+X2.OX<X3 6 d T.",
"f 7 J.A.>.K L dX, 6 V [ 2.;.,.Y., -X9XrX%X-XBXaX@X;X(.9 $.1.n.e ' hXCXBX4 n.Y aXy.M @ A l., x.~ R $.R.<XeXf.m.Q G P =.1X> = 3 d ",
"7 V...-.U Z vXy 9XQ c /.+X| }.< 4X$XtXOX4.4.2.2.<.!.oXf *X(.jXJ.'.5.2.5.|.eXY $.f / V [.U L., 0 $X@X=.Y _ l k j l ] H {.> # ; 4 ",
"s F.F./ J `.5 v.N c 1.2.<.5.wX7 @X5.<.4.$X*XpXlX9.U 5 f.q.,.G.U.hX2.8XpX$X5.;.L h.5 } r.<.;.=X8 4 eXfX0.S l k l ) ' +.'.b.H.a - ",
"F.C.W W P.0 3X0.z mXhXK +.yX, zX$XpX@X4.5.5.@X1.K `.< ).<.^.y |.=X<.aX, y =X<.r.! 4 > { p.4.4.@X4X< 1 rXgX/.0.8.9.=.*X9Xb.l.# a ",
"C.M B 5Xr eXw._ bXr ~ S 2XX r %XkXw CX=X@XOXhXrX$Xg R.8X-X|.7 OX,X@Xy , w rX@X<.O.(., x.T ;.<.@X$X-X6 X 2 i BXpX|.|.9XrXMXd.n C.",
"d  .<X4 4 3X' 0.7X_._ mX, X 7X2.rXu VXpXxXaXNX;XE.< OX@X$XfX0 fX9X;Xi B.BXu t =X@XfXD.O R.1.*X%XMX-X@XwXX X , w B.MXBXB.i 0 $ - ",
"I.J., 3 R.(.^.<.4.,.;.yXX wX5.$XZXuX-X*XaXi 9X%X7 R.9X$X9X7XU.8XOX4.>.+.+.$.].+X5.E.#X8X7 -X7X#X5.@Xq.&.4X4 X X X < 7 6 , O ; s ",
": 2 , W.D.tX.X<.2.,.-X4 X pX<.zXi e i i y 9X@XeX, +X-X2.-Xg hXaX5.<.K _ x ` l L ).7Xu.U > O C.L p.@X@.[ 7.*X9Xt < O , * = X , d ",
"1 , >X^.}.oX<.;.[ -.0 X , kX<.%XhXxX}.&.6.-.g X >XL 2.r./.O *XNX@X$X7.G H F _ l T 6 ; U W 5 o Q.K <.<.5.7X8X@X5.*XpXwXv.d 6 X 4 ",
"6 wX*X$.*.5.<.I [ gXX X r =X<.%X-X-X*.7.0.eXX O ~ Y OXI I., $XuX&X8Xo.| 2.<.| ' ) bX7 dXx /.7 7 XXE.7X<.2..Xw.8.e.2.*X XK.0XwX7 ",
"<X*X*XY.*.p.{._.<.kXO O rX#X;.q.t.$.>.<.OXr o K.y.;.2.+.0 d hXiX$XxXO.>.4X,XhX$.' ' %.$X+X}.XX7 6 T.G K fXf K.^ z c H w.~.*X|.<X",
"$.6.! t.q.$.c.OX.Xr o & 3 gXN ' ) _ q.9X6 O 8 @XVXoX9XoXO R..X2.OXrXXXXXgXrXBX(.,.#X<X*X2.@.P ~ > t y.Z U h.< v.).J S G U U T k.",
"K U 0.+.=.R.yX>.T.9 . & y yX^.&.6.$.7X8 O O Y.+.oXY.d 7X3 oX*.<.2..X2.8Xy & 6 c.dX.Xv N .XOX7.S !.= 0 h.N v A.oX<.1.^.!.Q.~ R ! ",
"P.h.(.2.oX{.$.+X2X& & 3 r 8XXX@X*XiX= O % ,XT X.%.A.S.0 g OXE.$X|.-X2.yX4 @ & O c./.>.C.,XoX@X/.}.E.0 1 J.D.g.Q.<.1.oXXX#XE.x.J.",
"Q..XOX*X&.J J '.t * O X , tXkX0XfX>X3 3 >X~.U ..A.W h.X f XXOXoX|.@Xy.v., @ @ , O z._.oX,XY.A.*X}.w.4X< X 7 V J H +.jX|.*XXX^.Q.",
"t.R.: J.~ M ! |.: , X , : yXBX1X: 3 4 ,XOX . .F. .N = X R.oX2.R.7X<.y.c.X %   & , @ j.oXF.....D.(.B ( f.f 0 S.~.q.| +./.H.8 R.! ",
"=.7XP.'.t.w.,.E.r o o ; : 4 8 ; 6 7 7X@X-Xg V.V.8 V.4 6 G.tX@XeX9X5./.$ X , d.n = # n K.$X|.f G.F. .M ( m G.f R..X@.! N ~.R.E.=.",
"fX|.oX~.$.$.S.9 X , > f.d d s 8 t E.@X-Xr 6 G.7 0 G., d 8 t @XyX7X2.K.n , X c.j.].H.#   V.OX8X7 : C.C.C b f.e , h -.K N $.).}.fX"
};
